<svg width="192" height="47" viewBox="0 0 192 47" fill="none" xmlns="http://www.w3.org/2000/svg">
<g clip-path="url(#clip0_776_2705)">
<path d="M174.321 47.0021L172.794 46.5781L172.775 46.3283L175.962 45.5384L175.932 45.328L171.449 44.7693L174.375 42.9429L170.545 42.3863L172.509 40.3177L168.403 40.0263L168.388 39.7666L169.737 39.1093C167.961 38.6458 166.356 37.7003 164.519 38.6535L165.575 39.2429L163.841 40.0811L166.527 40.481L163.455 41.7432V40.7724L160.818 40.4142V40.2038L162.084 39.4884L159.426 38.8945L159.394 38.5932L162.655 38.1002C162.138 37.9424 161.734 37.8811 161.388 37.6981C160.93 37.4604 160.515 37.1339 160.079 36.8446C160.388 36.5981 160.698 36.3527 161.003 36.1018C161.051 36.0624 161.073 35.9922 161.244 35.7139H157.108L157.095 35.4137L158.707 34.6753L156.496 33.9796L156.459 33.7309L158.81 33.2817C158.291 33.0866 157.899 33.0143 157.604 32.804C157.395 32.655 157.316 32.3197 157.112 31.9417L155.736 31.5681V29.7165L153.302 29.3287L153.193 29.0317L154.81 28.4018L151.958 26.1656L154.696 25.586L154.691 25.4929H150.328C150.873 24.4575 152.322 24.1223 155.158 24.3469L154.424 24.8947C155.582 25.2781 156.882 24.6317 158.228 25.4261L156.255 26.033C156.641 26.48 156.98 27.0191 157.455 27.3785C157.906 27.7258 158.495 27.8934 159.255 28.2484L157.278 28.7436L157.21 28.9792L159.828 29.539C159.637 30.1296 159.447 30.7124 159.251 31.3194L161.479 31.429C161.261 31.8672 161.137 32.1269 160.973 32.4621L163.103 33.2006L163.097 33.4405L160.659 33.5917L160.583 33.7561C160.822 33.8536 161.066 33.9423 161.299 34.0519C161.533 34.1614 161.762 34.2929 162.159 34.5022L160.946 35.188L160.995 35.3754L164.72 34.2798L163.945 33.881V33.6432L167.026 33.1984L166.141 32.4764L168.084 31.4246L166.021 31.0663L165.958 30.8297L169.617 29.5226L167.402 29.1709L167.356 28.9364C167.853 28.7173 168.355 28.4982 168.846 28.2604C169.133 28.1224 169.567 28.0062 169.65 27.7773C170.176 26.3223 171.402 26.0615 172.691 25.7788L169.368 25.3154C171.189 24.1102 173.192 24.3622 175.218 24.5046L173.766 24.9615L173.801 25.1346L176.974 25.9235L176.926 26.136C176.09 26.3332 175.246 26.4998 174.426 26.7463C174.153 26.8274 173.79 27.075 173.728 27.3127C173.48 28.2517 172.87 28.5935 171.983 28.6724C171.765 28.691 171.561 28.9255 171.319 29.081L174.084 29.4864L174.129 29.6672L170.354 30.6401L170.34 30.891L172.59 31.2383L172.636 31.3906L170.193 32.3077L170.013 32.7295L170.927 33.2346L169.63 33.5786L169.442 34.7147L173.769 35.4444V35.6186L172.116 36.3078C172.597 37.4768 173.683 37.5272 174.581 38.0608L172.474 38.499L173.387 38.8277L172.96 39.7042C173.593 39.782 174.573 40.0679 174.668 39.8872C175.278 38.717 176.74 39.3963 177.491 38.4212C177.753 38.0816 178.263 37.7321 178.522 37.2895C178.996 36.4787 179.593 35.967 180.582 35.9637C180.875 35.9637 181.169 35.7545 181.612 35.5825L178.11 34.6775L178.082 34.4332L181.216 33.9653L180.259 33.2159L184.057 31.6382L180.71 31.0061L180.727 30.7004L185.09 30.1756C185.09 30.1109 185.097 30.0452 185.102 29.9795L181.939 29.2651L181.896 28.9737L185.386 28.3853L183.891 27.9383L183.911 27.5965L187.631 26.858C187.21 26.4625 186.132 26.686 186.571 25.5882L184.854 25.07C187.188 23.9744 189.602 24.3556 191.979 24.2965C191.986 24.3775 191.995 24.4586 192.003 24.5397L189.323 24.8377L189.254 25.0196L190.425 25.6123C190.336 25.9202 190.257 26.1919 190.161 26.5206L191.798 27.178L191.767 27.4683L187.757 27.786C187.757 27.8693 187.757 27.9537 187.757 28.0369L189.874 28.4839L189.88 28.7469L186.063 29.2246L189.444 30.2446C189.444 30.3279 189.444 30.4111 189.444 30.4944L184.824 30.9699L188.723 32.0053L183.455 33.4088L185.956 34.0015L185.92 34.2118L183.274 34.5953L183.205 34.8144L185.714 35.8465L185.776 36.161C183.833 35.8673 182.566 36.9947 181.219 38.1331L182.384 38.5878C182.384 38.6699 182.392 38.7532 182.396 38.8354L178.765 39.4752L182.499 40.3725L182.472 40.5577L177.179 42.188L180.708 43.1313L180.692 43.3504L175.76 44.3485C175.744 44.4428 175.726 44.5381 175.71 44.6323L179.015 45.2787L179.058 45.5669L174.227 46.3448L175.294 47.0021H174.321Z" fill="black"/>
<path d="M175.281 5.64793C173.385 8.38699 171.562 11.0066 169.781 13.646C169.627 13.8739 169.618 14.3811 169.768 14.6068C171.268 16.866 172.813 19.0989 174.355 21.3263C174.67 21.7843 175.025 22.2148 175.415 22.7298H171.452L163.269 10.8467C162.754 11.5446 162.223 12.2326 161.726 12.9459C159.843 15.6466 157.824 18.2684 156.153 21.0962C155.281 22.583 154.282 22.9949 152.758 22.7988C152.297 22.7396 151.821 22.79 151.113 22.79L163.249 5.14942C164.694 7.27055 166.037 9.24596 167.446 11.3178L175.245 0L191.042 22.8897C189.695 22.8897 188.524 23.0157 187.404 22.8295C186.933 22.7517 186.51 22.0549 186.171 21.5662C184.656 19.3892 183.181 17.1837 181.689 14.9925C180.751 13.6142 179.82 12.2304 178.853 10.873" fill="black"/>
<path d="M0 8.58643H7.62616C9.28621 8.58643 10.53 8.98341 11.3574 9.77737C12.1849 10.5713 12.5983 11.7002 12.5976 13.1639C12.5976 14.6708 12.1471 15.8475 11.2462 16.694C10.3453 17.5406 8.96954 17.9653 7.11899 17.9682H4.61038V23.5022H0V8.58643ZM4.6082 14.941H5.73162C6.61654 14.941 7.23787 14.7869 7.59562 14.4787C7.76845 14.3347 7.90652 14.1532 7.99946 13.9479C8.09241 13.7425 8.13781 13.5187 8.13225 13.2932C8.13684 13.0738 8.09803 12.8557 8.01809 12.6514C7.93814 12.4472 7.81865 12.2609 7.66652 12.1034C7.35458 11.7769 6.77033 11.6136 5.91377 11.6136H4.60493L4.6082 14.941Z" fill="black"/>
<path d="M14.4219 16.0529C14.4219 13.6184 15.097 11.723 16.4473 10.3666C17.7976 9.01022 19.6776 8.33203 22.0873 8.33203C24.5596 8.33203 26.4635 8.99853 27.7993 10.3315C29.135 11.6645 29.8036 13.5311 29.8051 15.9313C29.8051 17.674 29.5142 19.1035 28.9325 20.2195C28.3621 21.3205 27.4792 22.2265 26.3956 22.8227C25.2918 23.4436 23.9164 23.754 22.2695 23.754C20.597 23.754 19.2111 23.4863 18.1117 22.9509C17.0123 22.4155 16.1234 21.5675 15.445 20.4069C14.7622 19.2477 14.4211 17.7964 14.4219 16.0529ZM19.0094 16.0737C19.0094 17.5791 19.2878 18.6608 19.8448 19.3189C20.4018 19.977 21.1595 20.3057 22.1178 20.305C23.1038 20.305 23.8673 19.9829 24.4083 19.3387C24.9493 18.6944 25.2191 17.5382 25.2176 15.8699C25.2176 14.4661 24.9358 13.4402 24.3723 12.7923C23.8088 12.1444 23.0453 11.8209 22.0819 11.8216C21.1569 11.8216 20.4142 12.1503 19.8536 12.8076C19.2929 13.465 19.0115 14.5537 19.0094 16.0737Z" fill="black"/>
<path d="M32.3359 23.5V8.58643H39.9817C41.3996 8.58643 42.4831 8.7084 43.232 8.95236C43.9711 9.18829 44.6098 9.66673 45.0459 10.3109C45.5047 10.9727 45.7344 11.7761 45.7352 12.7213C45.7352 13.5481 45.5596 14.2621 45.2084 14.8632C44.8555 15.4657 44.3564 15.9685 43.7577 16.3248C43.3665 16.5622 42.8296 16.759 42.1468 16.9153C42.6929 17.0987 43.091 17.2813 43.3411 17.4632C43.6152 17.6952 43.8615 17.9584 44.0751 18.2476C44.318 18.5354 44.5331 18.8458 44.7176 19.1745L46.9393 23.4957H41.7552L39.3033 18.9379C38.9921 18.3484 38.7151 17.9653 38.4722 17.7886C38.1428 17.5584 37.75 17.4373 37.3488 17.4423H36.943V23.4957L32.3359 23.5ZM36.943 14.6255H38.878C39.0874 14.6255 39.4924 14.5579 40.093 14.4228C40.3907 14.3656 40.6563 14.1987 40.8379 13.955C41.0288 13.7076 41.1304 13.4024 41.1259 13.0894C41.1259 12.6081 40.9739 12.2385 40.67 11.9807C40.366 11.7228 39.7956 11.5943 38.9587 11.595H36.943V14.6255Z" fill="black"/>
<path d="M47.1797 8.58643H61.1254V12.271H56.4463V23.5H51.8588V12.271H47.1797V8.58643Z" fill="black"/>
<path d="M77.585 18.0984V14.9956H84.6746V21.3502C83.3178 22.2793 82.118 22.9115 81.0753 23.2467C80.0326 23.582 78.7964 23.75 77.3669 23.7507C75.6043 23.7507 74.1679 23.4491 73.0576 22.8457C71.9406 22.2358 71.0385 21.2941 70.4748 20.1494C69.864 18.9566 69.5586 17.5867 69.5586 16.0397C69.5586 14.4116 69.8927 12.9961 70.5609 11.7931C71.2281 10.5919 72.2562 9.63321 73.4982 9.05405C74.5038 8.57343 75.8574 8.33276 77.5589 8.33203C79.1993 8.33203 80.4263 8.4814 81.24 8.78014C82.0238 9.05802 82.722 9.53649 83.2654 10.1683C83.802 10.7957 84.2056 11.5908 84.4761 12.5535L80.05 13.3478C79.8961 12.8239 79.5696 12.3681 79.124 12.055C78.6877 11.7569 78.1322 11.6079 77.4574 11.6079C76.4518 11.6079 75.6501 11.9589 75.0524 12.6608C74.4547 13.3628 74.1544 14.4745 74.1515 15.9959C74.1515 17.6101 74.4537 18.7627 75.0579 19.4537C75.6621 20.1447 76.5045 20.4894 77.585 20.488C78.0827 20.4916 78.578 20.4177 79.0531 20.2688C79.6133 20.0741 80.1501 19.8168 80.6532 19.5019V18.0984H77.585Z" fill="black"/>
<path d="M87.457 23.5V8.58643H95.1083C96.5262 8.58643 97.6096 8.7084 98.3586 8.95236C99.0972 9.18851 99.7356 9.66693 100.171 10.3109C100.631 10.9727 100.861 11.7761 100.861 12.7213C100.861 13.5481 100.685 14.2621 100.334 14.8632C99.9797 15.4662 99.4791 15.9691 98.8788 16.3248C98.4869 16.5622 97.9499 16.759 97.2679 16.9153C97.8139 17.0987 98.2139 17.2813 98.4676 17.4632C98.7417 17.6952 98.9881 17.9584 99.2017 18.2476C99.4446 18.5354 99.6597 18.8458 99.8441 19.1745L102.066 23.4957H96.8763L94.4244 18.9379C94.1132 18.3484 93.8362 17.9653 93.5933 17.7886C93.2639 17.5584 92.8711 17.4373 92.4699 17.4423H92.0641V23.4957L87.457 23.5ZM92.0641 14.6255H93.999C94.2085 14.6255 94.6135 14.5579 95.2141 14.4228C95.5116 14.3658 95.777 14.1989 95.9579 13.955C96.1496 13.7079 96.2516 13.4026 96.247 13.0894C96.247 12.6081 96.095 12.2385 95.7911 11.9807C95.4871 11.7228 94.9167 11.5943 94.0798 11.595H92.0641V14.6255Z" fill="black"/>
<path d="M102.598 16.0529C102.598 13.6184 103.273 11.723 104.623 10.3666C105.973 9.01022 107.853 8.33203 110.263 8.33203C112.735 8.33203 114.639 8.99853 115.975 10.3315C117.311 11.6645 117.979 13.5311 117.98 15.9313C117.98 17.674 117.689 19.1035 117.107 20.2195C116.538 21.3197 115.657 22.2256 114.576 22.8227C113.472 23.4436 112.096 23.754 110.449 23.754C108.776 23.754 107.391 23.4863 106.292 22.9509C105.193 22.4155 104.301 21.5675 103.616 20.4069C102.937 19.2477 102.598 17.7964 102.598 16.0529ZM107.185 16.0737C107.185 17.5791 107.464 18.6608 108.021 19.3189C108.578 19.977 109.335 20.3057 110.294 20.305C111.28 20.305 112.043 19.9829 112.584 19.3387C113.125 18.6944 113.395 17.5382 113.393 15.8699C113.393 14.4661 113.112 13.4402 112.548 12.7923C111.985 12.1444 111.221 11.8209 110.258 11.8216C109.333 11.8216 108.59 12.1503 108.029 12.8076C107.469 13.465 107.187 14.5537 107.185 16.0737Z" fill="black"/>
<path d="M130.114 8.58643H134.695V17.4719C134.699 18.3212 134.561 19.1651 134.284 19.9678C134.016 20.7415 133.576 21.4437 132.997 22.021C132.482 22.5621 131.854 22.9835 131.16 23.2557C130.268 23.5881 129.198 23.7542 127.95 23.7542C127.159 23.7501 126.37 23.6993 125.585 23.6019C124.731 23.5004 124.017 23.2988 123.443 22.9971C122.841 22.6728 122.307 22.2362 121.868 21.7109C121.424 21.2143 121.089 20.6288 120.886 19.993C120.603 19.0434 120.461 18.2034 120.461 17.473V8.58643H125.042V17.6801C125.042 18.493 125.267 19.1281 125.716 19.5854C126.165 20.0426 126.788 20.2716 127.584 20.2723C128.374 20.2723 128.992 20.047 129.438 19.5963C129.885 19.1457 130.11 18.5069 130.113 17.6801L130.114 8.58643Z" fill="black"/>
<path d="M137.707 8.58643H145.332C146.994 8.58643 148.238 8.98341 149.064 9.77737C149.891 10.5713 150.305 11.7002 150.305 13.1639C150.305 14.6708 149.854 15.8475 148.952 16.694C148.05 17.5406 146.675 17.9653 144.826 17.9682H142.317V23.5022H137.71L137.707 8.58643ZM142.314 14.941H143.439C144.324 14.941 144.945 14.7869 145.302 14.4787C145.474 14.3347 145.612 14.1532 145.705 13.9479C145.798 13.7425 145.844 13.5187 145.838 13.2932C145.843 13.0738 145.804 12.8556 145.724 12.6513C145.644 12.447 145.525 12.2607 145.372 12.1034C145.062 11.7783 144.478 11.6155 143.621 11.6147H142.312L142.314 14.941Z" fill="black"/>
</g>
<defs>
<clipPath id="clip0_776_2705">
<rect width="192" height="47" fill="white"/>
</clipPath>
</defs>
</svg>
