<svg><defs><symbol id="icon-Portgroup-logo-1" viewBox="0 0 192 47"><path d="M174.321 47.002l-1.527-.424-.019-.25 3.187-.79-.03-.21-4.483-.559 2.926-1.826-3.83-.557 1.964-2.069-4.106-.291-.015-.26 1.349-.657c-1.776-.463-3.381-1.409-5.218-.456l1.056.589-1.734.838 2.686.4-3.072 1.262v-.971l-2.637-.358v-.21l1.266-.715-2.658-.594-.032-.301 3.261-.493c-.517-.158-.921-.219-1.267-.402-.458-.238-.873-.564-1.309-.853.309-.247.619-.492.924-.743.048-.039.07-.11.241-.388h-4.136l-.013-.3 1.612-.738-2.211-.696-.037-.249 2.351-.449c-.519-.195-.911-.267-1.206-.478-.209-.149-.288-.484-.492-.862l-1.376-.374v-1.852l-2.434-.388-.109-.297 1.617-.63-2.852-2.236 2.738-.58-.005-.093h-4.363c.545-1.035 1.994-1.371 4.83-1.146l-.734.548c1.158.383 2.458-.263 3.804.531l-1.973.607c.386.447.725.986 1.2 1.346.451.347 1.04.515 1.8.87l-1.977.495-.068.236 2.618.56-.577 1.78 2.228.11c-.218.438-.342.698-.506 1.033l2.13.739-.006.24-2.438.151-.076.164c.239.097.483.186.716.296s.463.241.86.45l-1.213.686.049.187 3.725-1.096-.775-.399v-.238l3.081-.445-.885-.722 1.943-1.052-2.063-.358-.063-.237 3.659-1.307-2.215-.352-.046-.234c.497-.219.999-.438 1.49-.676.287-.138.721-.254.804-.483.526-1.455 1.752-1.716 3.041-1.999l-3.323-.463c1.821-1.205 3.824-.953 5.85-.811l-1.452.457.035.173 3.173.789-.048.213c-.836.197-1.68.364-2.5.61-.273.081-.636.329-.698.566-.248.939-.858 1.281-1.745 1.36-.218.019-.422.253-.664.409l2.765.405.045.181-3.775.973-.014.251 2.25.347.046.152-2.443.917-.18.422.914.505-1.297.344-.188 1.136 4.327.73v.174l-1.653.689c.481 1.169 1.567 1.219 2.465 1.753l-2.107.438.913.329-.427.877c.633.078 1.613.364 1.708.183.61-1.17 2.072-.491 2.823-1.466.262-.34.772-.689 1.031-1.132.474-.811 1.071-1.323 2.06-1.326.293 0 .587-.209 1.03-.381l-3.502-.905-.028-.244 3.134-.468-.957-.749 3.798-1.578-3.347-.632.017-.306 4.363-.525c0-.065.007-.13.012-.196l-3.163-.714-.043-.291 3.49-.588-1.495-.447.02-.342 3.72-.739c-.421-.396-1.499-.172-1.06-1.27l-1.717-.518c2.334-1.096 4.748-.714 7.125-.773l.024.243-2.68.298-.069.182 1.171.593-.264.908 1.637.657-.031.29-4.01.318v.251l2.117.447.006.263-3.817.478 3.381 1.02v.25l-4.62.476 3.899 1.035-5.268 1.403 2.501.593-.036.21-2.646.383-.069.219 2.509 1.032.062.314c-1.943-.294-3.21.834-4.557 1.972l1.165.455c0 .082.008.165.012.248l-3.631.64 3.734.897-.027.185-5.293 1.63 3.529.943-.016.219-4.932.998-.05.284 3.305.646.043.288-4.831.778 1.067.657h-.973zm.96-41.354c-1.896 2.739-3.719 5.359-5.5 7.998-.154.228-.163.735-.013.961 1.5 2.259 3.045 4.492 4.587 6.719.315.458.67.889 1.06 1.403h-3.963l-8.183-11.883c-.515.698-1.046 1.386-1.543 2.099-1.883 2.701-3.902 5.323-5.573 8.15-.872 1.487-1.871 1.899-3.395 1.703-.461-.059-.937-.009-1.645-.009l12.136-17.641c1.445 2.121 2.788 4.097 4.197 6.168l7.799-11.318 15.797 22.89c-1.347 0-2.518.126-3.638-.06-.471-.078-.894-.775-1.233-1.263-1.515-2.177-2.99-4.383-4.482-6.574-.938-1.378-1.869-2.762-2.836-4.12zM0 8.586h7.626c1.66 0 2.904.397 3.731 1.191s1.241 1.923 1.24 3.387c0 1.507-.45 2.684-1.351 3.53s-2.277 1.271-4.127 1.274H4.61v5.534H0V8.586zm4.608 6.355h1.123c.885 0 1.506-.154 1.864-.462a1.494 1.494 0 00.537-1.186 1.658 1.658 0 00-.466-1.19c-.312-.327-.896-.49-1.753-.49H4.604l.003 3.327zm9.814 1.112c0-2.434.675-4.33 2.025-5.686s3.23-2.035 5.64-2.035c2.472 0 4.376.666 5.712 1.999s2.004 3.2 2.006 5.6c0 1.743-.291 3.172-.873 4.288a6.247 6.247 0 01-2.537 2.603c-1.104.621-2.479.931-4.126.931-1.672 0-3.058-.268-4.158-.803s-1.988-1.383-2.667-2.544c-.683-1.159-1.024-2.611-1.023-4.354zm4.587.021c0 1.505.278 2.587.835 3.245s1.315.987 2.273.986c.986 0 1.75-.322 2.291-.966s.811-1.801.809-3.469c0-1.404-.282-2.43-.845-3.078s-1.327-.971-2.29-.971c-.925 0-1.668.329-2.228.986s-.842 1.746-.844 3.266zM32.336 23.5V8.586h7.646c1.418 0 2.501.122 3.25.366a3.46 3.46 0 011.814 1.359c.459.662.689 1.465.689 2.41 0 .827-.176 1.541-.527 2.142a4.13 4.13 0 01-1.451 1.462c-.391.237-.928.434-1.611.59.546.183.944.366 1.194.548.274.232.52.495.734.784.243.288.458.598.642.927l2.222 4.321h-5.184l-2.452-4.558c-.311-.59-.588-.973-.831-1.149a1.919 1.919 0 00-1.123-.346h-.406v6.053l-4.607.004zm4.607-8.875h1.935c.209 0 .614-.068 1.215-.203.298-.057.563-.224.745-.468.191-.247.293-.553.288-.866 0-.481-.152-.851-.456-1.109s-.874-.386-1.711-.386h-2.016v3.03zM47.18 8.586h13.946v3.685h-4.679V23.5h-4.588V12.271H47.18V8.586zm30.405 9.512v-3.103h7.09v6.355c-1.357.929-2.557 1.561-3.599 1.896s-2.279.503-3.708.504c-1.763 0-3.199-.302-4.309-.905a6.189 6.189 0 01-2.583-2.696c-.611-1.193-.916-2.563-.916-4.11 0-1.628.334-3.044 1.002-4.247a6.506 6.506 0 012.937-2.739c1.006-.481 2.359-.721 4.061-.722 1.64 0 2.867.149 3.681.448a4.772 4.772 0 012.025 1.388c.537.627.94 1.422 1.211 2.385l-4.426.794a2.408 2.408 0 00-.926-1.293c-.436-.298-.992-.447-1.667-.447-1.006 0-1.807.351-2.405 1.053s-.898 1.814-.901 3.335c0 1.614.302 2.767.906 3.458s1.447 1.036 2.527 1.034c.498.004.993-.07 1.468-.219a7.924 7.924 0 001.6-.767v-1.403h-3.068zm9.872 5.402V8.586h7.651c1.418 0 2.501.122 3.25.366a3.456 3.456 0 011.812 1.359c.46.662.69 1.465.69 2.41 0 .827-.176 1.541-.527 2.142a4.133 4.133 0 01-1.455 1.462c-.392.237-.929.434-1.611.59.546.183.946.366 1.2.548.274.232.52.495.734.784.243.288.458.598.642.927l2.222 4.321h-5.19l-2.452-4.558c-.311-.59-.588-.973-.831-1.149a1.919 1.919 0 00-1.123-.346h-.406v6.053l-4.607.004zm4.607-8.875h1.935c.209 0 .614-.068 1.215-.203.298-.057.563-.224.744-.468.192-.247.294-.552.289-.866 0-.481-.152-.851-.456-1.109s-.874-.386-1.711-.386h-2.016v3.03zm10.534 1.428c0-2.434.675-4.33 2.025-5.686s3.23-2.035 5.64-2.035c2.472 0 4.376.666 5.712 1.999s2.004 3.2 2.005 5.6c0 1.743-.291 3.172-.873 4.288a6.256 6.256 0 01-2.531 2.603c-1.104.621-2.48.931-4.127.931-1.673 0-3.058-.268-4.157-.803s-1.991-1.383-2.676-2.544c-.679-1.159-1.018-2.611-1.018-4.354zm4.587.021c0 1.505.279 2.587.836 3.245s1.314.987 2.273.986c.986 0 1.749-.322 2.29-.966s.811-1.801.809-3.469c0-1.404-.281-2.43-.845-3.078-.563-.648-1.327-.971-2.29-.971-.925 0-1.668.329-2.229.986-.56.657-.842 1.746-.844 3.266zm22.929-7.488h4.581v8.885a7.544 7.544 0 01-.411 2.496 5.385 5.385 0 01-1.287 2.053 5.128 5.128 0 01-1.837 1.235c-.892.332-1.962.499-3.21.499a20.106 20.106 0 01-2.365-.152c-.854-.101-1.568-.303-2.142-.605a5.374 5.374 0 01-1.575-1.286 4.744 4.744 0 01-.982-1.718c-.283-.95-.425-1.79-.425-2.52V8.586h4.581v9.094c0 .813.225 1.448.674 1.905s1.072.686 1.868.687c.79 0 1.408-.225 1.854-.676s.672-1.089.675-1.916l.001-9.094zm7.593 0h7.625c1.662 0 2.906.397 3.732 1.191.827.794 1.241 1.923 1.241 3.387 0 1.507-.451 2.684-1.353 3.53s-2.277 1.271-4.126 1.274h-2.509v5.534h-4.607l-.003-14.916zm4.607 6.355h1.125c.885 0 1.506-.154 1.863-.462a1.503 1.503 0 00.536-1.186 1.658 1.658 0 00-.466-1.19c-.31-.325-.894-.488-1.751-.489h-1.309l.002 3.326z"/></symbol></defs></svg>