<svg aria-hidden="true"><defs><symbol id="icon-portgroup-logo-1" viewBox="0 0 128 32"><path d="M116.214 31.513l-1.018-.283-.013-.167 2.125-.527-.02-.14-2.989-.373 1.951-1.218-2.553-.371 1.309-1.379-2.737-.194-.01-.173.899-.438c-1.184-.309-2.254-.939-3.479-.304l.704.393-1.156.559 1.791.267-2.048.841v-.647l-1.758-.239v-.14l.844-.477-1.772-.396-.021-.201 2.174-.329c-.345-.105-.614-.146-.845-.268-.305-.159-.582-.376-.873-.569.206-.164.413-.328.616-.495.032-.026.047-.073.161-.259h-2.757l-.009-.2 1.075-.492-1.474-.464-.025-.166 1.567-.299c-.346-.13-.607-.178-.804-.318-.139-.099-.192-.323-.328-.575l-.917-.249v-1.234l-1.623-.259-.073-.198 1.078-.42-1.901-1.491 1.825-.386-.003-.062h-2.909c.363-.69 1.329-.914 3.22-.764l-.489.365c.772.256 1.639-.175 2.536.354l-1.315.405c.257.298.483.657.8.897.301.232.693.343 1.2.58l-1.318.33-.045.157 1.745.373-.385 1.187 1.485.073c-.145.292-.228.465-.337.689l1.42.492-.004.16-1.625.101-.051.11c.159.065.322.124.477.197s.309.161.573.3l-.809.457.033.125 2.483-.73-.517-.266v-.158l2.054-.297-.59-.481 1.295-.701-1.375-.239-.042-.158 2.439-.871-1.477-.234-.031-.156c.331-.146.666-.292.993-.451.191-.092.481-.169.536-.322.351-.97 1.168-1.144 2.027-1.332l-2.215-.309c1.214-.803 2.549-.635 3.9-.54l-.968.305.023.115 2.115.526-.032.142c-.557.131-1.12.242-1.667.407-.182.054-.424.219-.465.378-.165.626-.572.854-1.163.906-.145.012-.281.169-.443.272l1.843.27.03.121-2.517.649-.009.167 1.5.232.031.102-1.629.611-.12.281.609.337-.865.229-.125.757 2.885.486v.116l-1.102.459c.321.779 1.045.813 1.643 1.169l-1.405.292.609.219-.285.584c.422.052 1.075.242 1.139.122.407-.78 1.381-.327 1.882-.977.175-.226.515-.459.687-.755.316-.541.714-.882 1.373-.884.195 0 .391-.14.687-.254l-2.335-.603-.019-.163 2.089-.312-.638-.5 2.532-1.052-2.231-.421.011-.204 2.909-.35c0-.043.005-.087.008-.131l-2.109-.476-.029-.194 2.327-.392-.997-.298.013-.228 2.48-.492c-.281-.264-.999-.115-.707-.847l-1.145-.346c1.556-.73 3.165-.476 4.75-.516l.016.162-1.787.199-.046.121.781.395-.176.605 1.091.438-.021.194-2.673.212v.167l1.411.298.004.175-2.545.318 2.254.68v.167l-3.08.317 2.599.69-3.512.936 1.667.395-.024.14-1.764.256-.046.146 1.673.688.041.21c-1.295-.196-2.14.556-3.038 1.315l.777.303c0 .055.005.11.008.165l-2.421.427 2.489.598-.018.123-3.529 1.087 2.353.629-.011.146-3.288.665-.033.189 2.203.431.029.192-3.221.519.711.438h-.649zm.64-27.57c-1.264 1.826-2.479 3.572-3.667 5.332-.103.152-.109.49-.009.641 1 1.506 2.03 2.995 3.058 4.48.21.305.447.592.707.936h-2.642l-5.455-7.922c-.343.465-.697.924-1.029 1.4-1.255 1.8-2.601 3.548-3.715 5.434-.581.991-1.247 1.266-2.263 1.135-.307-.039-.625-.006-1.097-.006l8.091-11.76 2.798 4.112L116.83.18l10.531 15.26c-.898 0-1.679.084-2.425-.04-.314-.052-.596-.516-.822-.842-1.01-1.451-1.993-2.922-2.988-4.382-.625-.919-1.246-1.841-1.891-2.746zM0 5.902h5.084c1.107 0 1.936.265 2.487.794s.827 1.282.827 2.258c0 1.005-.3 1.789-.901 2.353s-1.518.847-2.751.849H3.074v3.689H0V5.901zm3.072 4.237h.749c.59 0 1.004-.103 1.243-.308a.996.996 0 00.358-.79 1.118 1.118 0 00-.31-.793c-.208-.218-.597-.326-1.168-.326h-.873l.002 2.218zm6.543.741c0-1.623.45-2.887 1.35-3.791s2.154-1.356 3.76-1.356c1.648 0 2.917.444 3.808 1.333s1.336 2.133 1.337 3.733c0 1.162-.194 2.115-.582 2.859a4.165 4.165 0 01-1.691 1.735c-.736.414-1.653.621-2.751.621-1.115 0-2.039-.178-2.772-.535s-1.326-.922-1.778-1.696c-.455-.773-.683-1.74-.682-2.903zm3.058.014c0 1.004.186 1.725.557 2.163s.876.658 1.515.657c.657 0 1.166-.215 1.527-.644s.541-1.2.54-2.312c0-.936-.188-1.62-.564-2.052s-.885-.648-1.527-.647c-.617 0-1.112.219-1.486.657s-.561 1.164-.563 2.177zm8.884 4.951V5.903h5.097c.945 0 1.668.081 2.167.244a2.3 2.3 0 011.209.906c.306.441.459.977.46 1.607 0 .551-.117 1.027-.351 1.428a2.743 2.743 0 01-.967.974c-.261.158-.619.29-1.074.394.364.122.629.244.796.365.183.155.347.33.489.523.162.192.305.399.428.618l1.481 2.881h-3.456l-1.635-3.039c-.207-.393-.392-.648-.554-.766a1.285 1.285 0 00-.749-.231h-.271v4.036l-3.071.003zm3.072-5.917h1.29c.14 0 .41-.045.81-.135a.81.81 0 00.497-.312.924.924 0 00.192-.577c0-.321-.101-.567-.304-.739s-.583-.258-1.141-.257h-1.344v2.02zm6.824-4.026h9.297v2.456h-3.119v7.486h-3.058V8.358h-3.119V5.902zm20.27 6.342v-2.069h4.726v4.236c-.905.619-1.704 1.041-2.4 1.264s-1.519.336-2.472.336c-1.175 0-2.133-.201-2.873-.603a4.12 4.12 0 01-1.722-1.798c-.407-.795-.611-1.708-.611-2.74 0-1.085.223-2.029.668-2.831a4.337 4.337 0 011.958-1.826c.67-.32 1.573-.481 2.707-.481 1.094 0 1.912.1 2.454.299.523.185.988.504 1.35.925.358.418.627.948.807 1.59l-2.951.53a1.61 1.61 0 00-.617-.862c-.291-.199-.661-.298-1.111-.298-.67 0-1.205.234-1.603.702s-.599 1.209-.601 2.223c0 1.076.201 1.845.604 2.305s.964.69 1.685.689c.332.002.662-.047.979-.146a5.31 5.31 0 001.067-.511v-.936h-2.045zm6.582 3.601V5.903h5.101c.945 0 1.668.081 2.167.244.492.157.918.476 1.208.906.307.441.46.977.46 1.607 0 .551-.117 1.027-.351 1.428-.236.402-.57.737-.97.974-.261.158-.619.29-1.074.394.364.122.631.244.8.365.183.155.347.33.489.523.162.192.305.399.428.618l1.481 2.881h-3.46l-1.635-3.039c-.207-.393-.392-.648-.554-.766a1.285 1.285 0 00-.749-.231h-.271v4.036l-3.071.003zm3.071-5.917h1.29c.14 0 .41-.045.81-.135a.807.807 0 00.496-.312.919.919 0 00.193-.577c0-.321-.101-.567-.304-.739s-.583-.258-1.141-.257h-1.344v2.02zm7.023.952c0-1.623.45-2.887 1.35-3.791s2.153-1.356 3.76-1.356c1.648 0 2.917.444 3.808 1.333s1.336 2.133 1.337 3.733c0 1.162-.194 2.115-.582 2.859a4.173 4.173 0 01-1.687 1.735c-.736.414-1.653.621-2.751.621-1.115 0-2.039-.178-2.771-.535s-1.327-.922-1.784-1.696c-.453-.773-.679-1.74-.679-2.903zm3.058.014c0 1.004.186 1.725.557 2.163s.876.658 1.515.657c.657 0 1.166-.215 1.527-.644s.541-1.2.539-2.312c0-.936-.187-1.62-.563-2.052s-.885-.648-1.527-.647c-.617 0-1.112.219-1.486.657s-.561 1.164-.563 2.177zm15.286-4.992h3.054v5.924a5.011 5.011 0 01-.274 1.664 3.598 3.598 0 01-.858 1.369 3.396 3.396 0 01-1.225.823c-.595.222-1.308.332-2.14.332a13.424 13.424 0 01-1.577-.102c-.569-.068-1.045-.202-1.428-.403a3.578 3.578 0 01-1.05-.858 3.169 3.169 0 01-.655-1.145c-.189-.633-.283-1.193-.283-1.68V5.902h3.054v6.062c0 .542.15.965.449 1.27s.715.457 1.245.458c.527 0 .939-.15 1.236-.451s.448-.726.45-1.278l.001-6.062zm5.062 0h5.083c1.108 0 1.937.265 2.488.794s.827 1.282.827 2.258c0 1.005-.301 1.789-.902 2.353s-1.518.847-2.751.849h-1.673v3.689h-3.071l-.002-9.944zm3.071 4.237h.75c.59 0 1.004-.103 1.242-.308a.996.996 0 00.358-.79 1.118 1.118 0 00-.311-.793c-.207-.217-.596-.325-1.167-.326h-.873l.001 2.218z"/></symbol></defs></svg>