<svg><defs><symbol id="icon-portgroup-logo-1" viewBox="0 0 128 32"><path d="M116.214 31.513l-1.018-.283-.013-.167 2.125-.527-.02-.14-2.989-.373 1.951-1.218-2.553-.371 1.309-1.379-2.737-.194-.01-.173.899-.438c-1.184-.309-2.254-.939-3.479-.304l.704.393-1.156.559 1.791.267-2.048.841v-.647l-1.758-.239v-.14l.844-.477-1.772-.396-.021-.201 2.174-.329c-.345-.105-.614-.146-.845-.268-.305-.159-.582-.376-.873-.569.206-.164.413-.328.616-.495.032-.026.047-.073.161-.259h-2.757l-.009-.2 1.075-.492-1.474-.464-.025-.166 1.567-.299c-.346-.13-.607-.178-.804-.318-.139-.099-.192-.323-.328-.575l-.917-.249v-1.234l-1.623-.259-.073-.198 1.078-.42-1.901-1.491 1.825-.386-.003-.062h-2.909c.363-.69 1.329-.914 3.22-.764l-.489.365c.772.256 1.639-.175 2.536.354l-1.315.405c.257.298.483.657.8.897.301.232.693.343 1.2.58l-1.318.33-.045.157 1.745.373-.385 1.187 1.485.073c-.145.292-.228.465-.337.689l1.42.492-.004.16-1.625.101-.051.11c.159.065.322.124.477.197s.309.161.573.3l-.809.457.033.125 2.483-.73-.517-.266v-.158l2.054-.297-.59-.481 1.295-.701-1.375-.239-.042-.158 2.439-.871-1.477-.234-.031-.156c.331-.146.666-.292.993-.451.191-.092.481-.169.536-.322.351-.97 1.168-1.144 2.027-1.332l-2.215-.309c1.214-.803 2.549-.635 3.9-.54l-.968.305.023.115 2.115.526-.032.142c-.557.131-1.12.242-1.667.407-.182.054-.424.219-.465.378-.165.626-.572.854-1.163.906-.145.012-.281.169-.443.272l1.843.27.03.121-2.517.649-.009.167 1.5.232.031.102-1.629.611-.12.281.609.337-.865.229-.125.757 2.885.486v.116l-1.102.459c.321.779 1.045.813 1.643 1.169l-1.405.292.609.219-.285.584c.422.052 1.075.242 1.139.122.407-.78 1.381-.327 1.882-.977.175-.226.515-.459.687-.755.316-.541.714-.882 1.373-.884.195 0 .391-.14.687-.254l-2.335-.603-.019-.163 2.089-.312-.638-.5 2.532-1.052-2.231-.421.011-.204 2.909-.35c0-.043.005-.087.008-.131l-2.109-.476-.029-.194 2.327-.392-.997-.298.013-.228 2.48-.492c-.281-.264-.999-.115-.707-.847l-1.145-.346c1.556-.73 3.165-.476 4.75-.516l.016.162-1.787.199-.046.121.781.395-.176.605 1.091.438-.021.194-2.673.212v.167l1.411.298.004.175-2.545.318 2.254.68v.167l-3.08.317 2.599.69-3.512.936 1.667.395-.024.14-1.764.256-.046.146 1.673.688.041.21c-1.295-.196-2.14.556-3.038 1.315l.777.303c0 .055.005.11.008.165l-2.421.427 2.489.598-.018.123-3.529 1.087 2.353.629-.011.146-3.288.665-.033.189 2.203.431.029.192-3.221.519.711.438h-.649zm.64-27.57c-1.264 1.826-2.479 3.572-3.667 5.332-.103.152-.109.49-.009.641 1 1.506 2.03 2.995 3.058 4.48.21.305.447.592.707.936h-2.642l-5.455-7.922c-.343.465-.697.924-1.029 1.4-1.255 1.8-2.601 3.548-3.715 5.434-.581.991-1.247 1.266-2.263 1.135-.307-.039-.625-.006-1.097-.006l8.091-11.76 2.798 4.112L116.83.18l10.531 15.26c-.898 0-1.679.084-2.425-.04-.314-.052-.596-.516-.822-.842-1.01-1.451-1.993-2.922-2.988-4.382-.625-.919-1.246-1.841-1.891-2.746zM0 5.902h5.084c1.107 0 1.936.265 2.487.794s.827 1.282.827 2.258c0 1.005-.3 1.789-.901 2.353s-1.518.847-2.751.849H3.074v3.689H0V5.901zm3.072 4.237h.749c.59 0 1.004-.103 1.243-.308a.996.996 0 00.358-.79 1.118 1.118 0 00-.31-.793c-.208-.218-.597-.326-1.168-.326h-.873l.002 2.218zm6.543.741c0-1.623.45-2.887 1.35-3.791s2.154-1.356 3.76-1.356c1.648 0 2.917.444 3.808 1.333s1.336 2.133 1.337 3.733c0 1.162-.194 2.115-.582 2.859a4.165 4.165 0 01-1.691 1.735c-.736.414-1.653.621-2.751.621-1.115 0-2.039-.178-2.772-.535s-1.326-.922-1.778-1.696c-.455-.773-.683-1.74-.682-2.903zm3.058.014c0 1.004.186 1.725.557 2.163s.876.658 1.515.657c.657 0 1.166-.215 1.527-.644s.541-1.2.54-2.312c0-.936-.188-1.62-.564-2.052s-.885-.648-1.527-.647c-.617 0-1.112.219-1.486.657s-.561 1.164-.563 2.177zm8.884 4.951V5.903h5.097c.945 0 1.668.081 2.167.244a2.3 2.3 0 011.209.906c.306.441.459.977.46 1.607 0 .551-.117 1.027-.351 1.428a2.743 2.743 0 01-.967.974c-.261.158-.619.29-1.074.394.364.122.629.244.796.365.183.155.347.33.489.523.162.192.305.399.428.618l1.481 2.881h-3.456l-1.635-3.039c-.207-.393-.392-.648-.554-.766a1.285 1.285 0 00-.749-.231h-.271v4.036l-3.071.003zm3.072-5.917h1.29c.14 0 .41-.045.81-.135a.81.81 0 00.497-.312.924.924 0 00.192-.577c0-.321-.101-.567-.304-.739s-.583-.258-1.141-.257h-1.344v2.02zm6.824-4.026h9.297v2.456h-3.119v7.486h-3.058V8.358h-3.119V5.902zm20.27 6.342v-2.069h4.726v4.236c-.905.619-1.704 1.041-2.4 1.264s-1.519.336-2.472.336c-1.175 0-2.133-.201-2.873-.603a4.12 4.12 0 01-1.722-1.798c-.407-.795-.611-1.708-.611-2.74 0-1.085.223-2.029.668-2.831a4.337 4.337 0 011.958-1.826c.67-.32 1.573-.481 2.707-.481 1.094 0 1.912.1 2.454.299.523.185.988.504 1.35.925.358.418.627.948.807 1.59l-2.951.53a1.61 1.61 0 00-.617-.862c-.291-.199-.661-.298-1.111-.298-.67 0-1.205.234-1.603.702s-.599 1.209-.601 2.223c0 1.076.201 1.845.604 2.305s.964.69 1.685.689c.332.002.662-.047.979-.146a5.31 5.31 0 001.067-.511v-.936h-2.045zm6.582 3.601V5.903h5.101c.945 0 1.668.081 2.167.244.492.157.918.476 1.208.906.307.441.46.977.46 1.607 0 .551-.117 1.027-.351 1.428-.236.402-.57.737-.97.974-.261.158-.619.29-1.074.394.364.122.631.244.8.365.183.155.347.33.489.523.162.192.305.399.428.618l1.481 2.881h-3.46l-1.635-3.039c-.207-.393-.392-.648-.554-.766a1.285 1.285 0 00-.749-.231h-.271v4.036l-3.071.003zm3.071-5.917h1.29c.14 0 .41-.045.81-.135a.807.807 0 00.496-.312.919.919 0 00.193-.577c0-.321-.101-.567-.304-.739s-.583-.258-1.141-.257h-1.344v2.02zm7.023.952c0-1.623.45-2.887 1.35-3.791s2.153-1.356 3.76-1.356c1.648 0 2.917.444 3.808 1.333s1.336 2.133 1.337 3.733c0 1.162-.194 2.115-.582 2.859a4.173 4.173 0 01-1.687 1.735c-.736.414-1.653.621-2.751.621-1.115 0-2.039-.178-2.771-.535s-1.327-.922-1.784-1.696c-.453-.773-.679-1.74-.679-2.903zm3.058.014c0 1.004.186 1.725.557 2.163s.876.658 1.515.657c.657 0 1.166-.215 1.527-.644s.541-1.2.539-2.312c0-.936-.187-1.62-.563-2.052s-.885-.648-1.527-.647c-.617 0-1.112.219-1.486.657s-.561 1.164-.563 2.177zm15.286-4.992h3.054v5.924a5.011 5.011 0 01-.274 1.664 3.598 3.598 0 01-.858 1.369 3.396 3.396 0 01-1.225.823c-.595.222-1.308.332-2.14.332a13.424 13.424 0 01-1.577-.102c-.569-.068-1.045-.202-1.428-.403a3.578 3.578 0 01-1.05-.858 3.169 3.169 0 01-.655-1.145c-.189-.633-.283-1.193-.283-1.68V5.902h3.054v6.062c0 .542.15.965.449 1.27s.715.457 1.245.458c.527 0 .939-.15 1.236-.451s.448-.726.45-1.278l.001-6.062zm5.062 0h5.083c1.108 0 1.937.265 2.488.794s.827 1.282.827 2.258c0 1.005-.301 1.789-.902 2.353s-1.518.847-2.751.849h-1.673v3.689h-3.071l-.002-9.944zm3.071 4.237h.75c.59 0 1.004-.103 1.242-.308a.996.996 0 00.358-.79 1.118 1.118 0 00-.311-.793c-.207-.217-.596-.325-1.167-.326h-.873l.001 2.218z"/></symbol><symbol id="icon-arrow-21" viewBox="0 0 132 32"><path fill="var(--color1, #fff)" d="M128.166 16.677a1.778 1.778 0 000-2.514L116.852 2.849a1.778 1.778 0 00-2.514 2.514l10.057 10.057-10.057 10.057a1.778 1.778 0 002.514 2.514l11.314-11.314zm-126.513.521h125.256v-3.556H1.653v3.556z"/></symbol><symbol id="icon-partners1" viewBox="0 0 113 32"><path fill="var(--color4, #00679e)" d="M83.105 31.9c-.325-.161-.669-.293-.971-.489-.974-.638-1.476-1.538-1.475-2.711V3.205c0-1.535.926-2.71 2.447-3.109.042-.011.073-.061.107-.093h26.49c.342.152.698.279 1.025.46.828.459 1.209 1.255 1.527 2.093v26.899c-.189.131-.186.36-.266.544-.44 1.024-1.277 1.564-2.286 1.901H83.105zM97.68 14.454c0-.552-.022-.978.006-1.401.023-.332-.087-.418-.413-.413-1.187.02-2.374.02-3.562 0-.319 0-.417.078-.416.411.012 4.003.012 8.006 0 12.01 0 .34.08.457.438.45a74.33 74.33 0 013.405 0c.443.013.559-.113.555-.553a410.347 410.347 0 01-.007-6.749c.008-1.302.92-2.353 2.1-2.47 1.383-.138 2.243.498 2.526 1.908.048.297.068.598.057.898 0 2.162.011 4.323-.005 6.483 0 .364.085.49.468.482 1.17-.024 2.34-.024 3.511 0 .381.007.471-.116.469-.481-.016-2.267-.01-4.534-.007-6.801a9.879 9.879 0 00-.203-2c-.738-3.592-5.185-5.174-7.959-2.839-.339.287-.588.652-.965 1.067zm-6.49 4.69c0-2.021-.006-4.043.008-6.057 0-.333-.067-.456-.426-.449a74.72 74.72 0 01-3.511 0c-.425-.013-.483.145-.482.515.013 3.949.013 7.898 0 11.847 0 .385.082.524.496.514a72.314 72.314 0 013.454 0c.374.007.475-.098.47-.47-.023-1.969-.01-3.934-.01-5.9zm-2.248-8.298c.141 0 .283.01.425 0 1.102-.084 1.927-.861 2.103-1.976a2.078 2.078 0 00-1.291-2.212 2.997 2.997 0 00-2.66.16 1.909 1.909 0 00-.895 1.076c-.54 1.511.589 2.962 2.314 2.955l.005-.003z"/><path fill="var(--color1, #fff)" d="M72.379 13.277c0-2.186.014-4.238-.011-6.291-.006-.44.106-.569.551-.555 1.134.034 2.269.031 3.404 0 .406-.011.494.113.492.505-.013 4.73-.013 9.46 0 14.191 0 1.31-.02 2.621.106 3.928.033.33-.019.467-.401.457a59.867 59.867 0 00-3.085 0c-.35.007-.453-.106-.463-.445-.016-.488-.096-.973-.157-1.545-.361.387-.589.763-.924 1.05-2.3 1.977-6.209 1.518-8.16-.967-2.128-2.71-1.982-7.333.319-9.894 1.651-1.842 4.602-2.48 6.876-1.489a4.208 4.208 0 011.454 1.054zm0 5.367c0-.319-.026-.638.005-.957.107-1.071-.672-2.198-1.702-2.553a2.87 2.87 0 00-3.191.931c-1.037 1.354-1.064 3.924-.046 5.302.686.935 1.951 1.326 3.139.968 1.082-.324 1.74-1.203 1.793-2.42.014-.42-.001-.846-.001-1.27h.005zm-23.596-6.608l-2.66 2.88c-.71.766-1.409 1.543-2.138 2.288-.256.262-.226.426-.024.7 1.758 2.375 3.505 4.756 5.244 7.145.091.124.222.228.247.455-1.434 0-2.862-.06-4.281.022-.837.048-1.287-.231-1.697-.957-.879-1.55-1.869-3.036-2.842-4.595-.352.436-.672.845-1.008 1.24-.147.172-.113.365-.113.554 0 1.099-.016 2.197.006 3.298.007.349-.088.45-.44.443a111.242 111.242 0 00-3.561 0c-.293 0-.394-.064-.393-.377.009-6.111.009-12.221 0-18.332 0-.319.12-.368.399-.365 1.17.014 2.341.028 3.511 0 .426-.013.483.131.482.506-.014 3.47-.008 6.942-.008 10.413.195.071.202-.106.262-.193a629.645 629.645 0 003.442-4.781.742.742 0 01.695-.352c1.576.015 3.152.004 4.879.004zM24.33 14.397a.784.784 0 01.072-.198c1.283-1.836 3.517-2.172 5.473-1.624 1.856.519 3.146 2.169 3.332 4.291.22 2.509.052 5.025.091 7.537.018 1.1 0 1.101-1.096 1.101-.957 0-1.915-.018-2.872.009-.375.011-.474-.098-.471-.471.018-2.16.009-4.32.009-6.481a4.318 4.318 0 00-.106-1.105c-.311-1.186-1.034-1.76-2.204-1.73-1.115.024-2.072.796-2.285 1.857a4.345 4.345 0 00-.076.844c-.006 2.196-.014 4.392.006 6.587 0 .393-.085.512-.494.501a68.575 68.575 0 00-3.454 0c-.374.008-.468-.106-.467-.47.02-3.683.021-7.366.026-11.049 0-.354 0-.71-.021-1.064-.015-.238.076-.299.303-.297 1.258.009 2.516.011 3.773 0 .253 0 .34.067.33.326-.02.451-.005.903-.005 1.354l.137.083z"/><path fill="var(--color1, #fff)" d="M52.186 20.117c.107 1.086.734 1.715 1.65 2.113 1.213.532 2.487.47 3.762.37a10.433 10.433 0 002.19-.388c.29-.087.371.01.42.255.142.709.288 1.418.439 2.128.047.213.012.358-.238.435-2.766.862-5.553 1.17-8.332.176-2.565-.916-3.856-2.86-4.08-5.54-.129-1.549.119-3.037.888-4.403 1.425-2.531 3.691-3.55 6.499-3.496 2.167.043 3.962.844 5.113 2.777.618 1.038.874 2.186.957 3.383.042.587-.045 1.164-.057 1.746-.009.379-.181.453-.532.452-2.693-.014-5.385-.007-8.078-.007h-.601zm-.024-2.889h4.982c.187 0 .228-.07.238-.246.064-1.056-.807-2.205-1.847-2.419-1.713-.349-3.185.799-3.374 2.665zM.136 15.953c0-2.995.012-5.99-.013-8.983 0-.461.133-.549.561-.532 1.115.031 2.234.033 3.349 0 .436-.013.52.13.519.532-.012 4.681 0 9.356-.019 14.032 0 .556.155.662.675.654 2.198-.03 4.396 0 6.596-.023.426 0 .532.123.521.532a56.93 56.93 0 000 2.922c0 .31-.062.426-.407.426-3.793-.013-7.588-.013-11.383 0-.41 0-.403-.181-.403-.473.006-3.03.006-6.059 0-9.089l.005.002zm17.974 3.161c0 1.965-.01 3.929.008 5.893 0 .373-.053.52-.479.509a82.748 82.748 0 00-3.558-.005c-.303 0-.393-.088-.392-.389.009-4.034.009-8.068 0-12.103 0-.298.078-.392.382-.387 1.203.017 2.408.02 3.611 0 .345-.006.439.085.436.434-.017 2.015-.01 4.032-.01 6.049zm-2.134-8.248c-1.829 0-2.96-1.427-2.447-2.945.213-.628.657-1.032 1.256-1.277 1.204-.495 2.615-.106 3.24.784.863 1.23.182 3.183-1.681 3.418-.149.018-.31.017-.368.019z"/><path fill="var(--color5, #fdfdfd)" d="M97.68 14.454c.374-.415.623-.78.957-1.064 2.774-2.334 7.221-.752 7.959 2.839.136.658.204 1.328.203 2 0 2.267-.009 4.534.007 6.801 0 .365-.088.488-.469.481a85.614 85.614 0 00-3.511 0c-.383.009-.471-.118-.468-.482.016-2.161.01-4.321.005-6.483.01-.3-.009-.601-.057-.898-.284-1.41-1.139-2.046-2.526-1.908-1.18.117-2.093 1.17-2.1 2.47-.015 2.25-.017 4.5.007 6.749 0 .44-.107.566-.556.553a65.476 65.476 0 00-3.404 0c-.359.007-.439-.106-.438-.45.011-4.004.011-8.007 0-12.01 0-.333.092-.416.416-.411 1.188.019 2.375.019 3.562 0 .327 0 .437.081.414.413-.018.42.001.846.001 1.398zm-6.49 4.69c0 1.966-.01 3.936.008 5.897 0 .372-.097.478-.47.47a76.485 76.485 0 00-3.454 0c-.414.011-.497-.129-.496-.514.013-3.949.013-7.898 0-11.847 0-.37.054-.532.482-.515 1.17.033 2.34.027 3.51 0 .363-.007.432.116.426.449-.017 2.027-.006 4.041-.006 6.06zm-2.252-8.295c-1.724 0-2.86-1.445-2.314-2.953.152-.459.472-.843.896-1.076a3.013 3.013 0 012.66-.16 2.078 2.078 0 011.292 2.212c-.177 1.115-1.001 1.892-2.103 1.976-.147.007-.288.001-.43.001z"/></symbol><symbol id="icon-partners2" viewBox="0 0 111 32"><path fill="var(--color2, #fb7555)" d="M92.341 26.212c-1.303.068-2.639-.291-3.853-1.034-.59-.36-1.065-.362-1.518.16-.983 1.132-2.426 1.871-2.398 3.775.018 1.177-1.302 1.842-2.699 1.749a2.396 2.396 0 01-2.255-2.062c-.219-1.465.383-2.789 1.771-2.909 1.831-.158 2.758-1.334 3.861-2.454.457-.463.523-.837.22-1.393-1.368-2.535-1.307-5.1-.062-7.659.239-.492.155-.797-.291-1.14a911.17 911.17 0 01-8.529-6.652c-.465-.364-.949-.379-1.505-.273-2.062.391-3.743-.798-3.987-2.784C70.898 1.915 72.35.214 74.049.074c1.817-.149 3.382 1.256 3.436 3.217.018.718.313 1.135.824 1.527a1106.74 1106.74 0 018.263 6.394c.581.455 1.047.661 1.729.142.478-.365 1.071-.697 1.652-.785 1.202-.183 1.347-.883 1.317-1.906-.034-1.11-.038-2.065-1.003-2.951-1.07-.984-.8-2.872.276-3.873a2.866 2.866 0 013.918-.011c1.18 1.109 1.441 2.901.258 3.943-1.313 1.152-.892 2.512-.915 3.841-.015.837.848.771 1.379.97 2.737 1.023 4.533 2.903 5.198 5.757 1.205 5.164-2.603 9.894-8.041 9.874zm.185-12.109c-2.247.009-4.145 1.93-4.13 4.18.015 2.156 1.847 3.943 4.059 3.957 2.356.015 4.171-1.768 4.166-4.092-.006-2.224-1.858-4.053-4.095-4.045z"/><path fill="var(--color3, #fcfcfc)" d="M.162 15.685C.161 12.53.18 9.379.146 6.22c-.007-.733.175-.979.954-.989 2.951-.039 2.951-.071 2.95 2.923 0 1.639.026 3.279-.01 4.92-.017.701.136 1.03.942 1.009 2.049-.051 4.099-.048 6.149 0 .785.018.959-.289.942-1.006-.036-2.213.025-4.426-.025-6.638-.021-.872.165-1.225 1.141-1.209 2.806.046 2.807 0 2.807 2.826 0 5.696-.025 11.391.021 17.086.007.966-.248 1.25-1.222 1.237-2.73-.037-2.73.007-2.729-2.668 0-1.638-.041-3.279.019-4.92.029-.825-.265-1.026-1.047-1.007-2.008.052-4.016.052-6.026 0-.748-.019-.994.196-.978.957.045 2.171-.022 4.344.036 6.514.023.865-.244 1.115-1.106 1.113-2.799-.01-2.799.024-2.799-2.816l-.002-7.867zm37.773-3.658c3.801-2.111 7.072-1.812 9.64.792 2.47 2.512 2.972 6.416 1.223 9.535-1.589 2.835-5.183 4.511-8.374 3.904-3.227-.613-5.703-3.162-6.04-6.574-.448-4.528-.105-9.083-.181-13.625-.009-.546.226-.726.733-.714.696.018 1.395.042 2.088 0s.936.202.921.907c-.039 1.877-.009 3.755-.009 5.774zm.154 6.393c-.043 2.258 1.829 4.209 4.067 4.242 2.187.032 4.082-1.833 4.122-4.048a4.124 4.124 0 00-4.053-4.221c-2.195-.03-4.096 1.821-4.138 4.028h.003zm31.987 6.242c0 1.763.007 3.34 0 4.92 0 1.211-.535 1.732-1.78 1.773-.209.006-.418-.028-.613.007-1.047.184-1.383-.166-1.361-1.286.085-3.971 0-7.946.065-11.919.063-3.826 2.401-6.784 5.892-7.622 3.245-.779 7.118 1.014 8.759 4.049 1.698 3.146 1.036 7.052-1.604 9.575-2.575 2.46-6.754 2.626-8.804.855a5.72 5.72 0 00-.555-.353zm.133-6.026c-.221 1.316 1.831 3.652 3.839 3.723 2.242.08 4.28-1.675 4.384-3.91a4.153 4.153 0 00-3.843-4.316c-2.607-.175-4.684 2.135-4.38 4.506v-.004zM57.929 5.231c2.067.029 3.774.7 5.249 2.007.523.46.674.847.104 1.409-.607.605-1.015 1.537-1.726 1.877-.791.378-1.288-.733-1.996-1.061-1.907-.901-3.697-.353-4.089 1.351-.209.924.087 1.605.887 2.082.746.446 1.588.648 2.397.936.813.273 1.61.594 2.386.961 2.039 1.016 2.69 2.826 2.809 4.966.165 2.926-.942 5.103-3.768 6.085-2.992 1.039-5.75.635-8.212-1.594-.982-.889-.967-1.421 0-2.151a3.15 3.15 0 00.597-.618c.692-.918 1.288-1.151 2.109-.041.78 1.047 2.617 1.413 3.789.924.844-.351 1.457-.953 1.531-1.906.079-1-.418-1.763-1.296-2.167-1.299-.599-2.672-1.036-3.969-1.639-3.614-1.675-4.62-6.071-2.083-9.168 1.373-1.674 3.292-2.195 5.281-2.253zM18.278 15.748c0-1.475.023-2.951-.012-4.425-.015-.628.186-.837.837-.877 2.848-.166 2.847-.188 2.847 2.681 0 1.967-.014 3.934 0 5.901.02 2.171 1.295 3.631 3.153 3.65 1.836.02 3.14-1.465 3.147-3.615.008-2.54.026-5.081-.012-7.621-.012-.733.177-.986.952-1 2.809-.047 2.811-.077 2.803 2.722-.006 2.213.039 4.427-.044 6.637-.139 3.732-3.227 6.641-6.881 6.581-3.809-.066-6.737-3.006-6.781-6.824-.015-1.27 0-2.54 0-3.81h-.011zm88.286-8.817c0 1.081.051 2.094-.016 3.103-.056.837.262 1.124 1.055 1.011a4.18 4.18 0 01.613 0c1.762.013 1.675.019 1.791 1.715.091 1.289-.3 1.666-1.589 1.588-1.851-.113-1.856-.022-1.857 1.868 0 1.269-.007 2.538 0 3.807.014 2.173.703 2.936 2.854 2.878 1.09-.03 1.205.296.942 1.241-.649 2.354-.942 2.573-3.384 2.138-2.645-.472-4.115-2.157-4.132-4.835-.025-4.012.012-8.026-.026-12.038-.006-.733.233-1.126.917-1.349.925-.298 1.729-.91 2.831-1.126z"/></symbol><symbol id="icon-partners3" viewBox="0 0 158 32"><path fill="var(--color1, #fff)" d="M6.388 9.849c0 4.773 0 9.547.007 14.32.009.833.3 1.639.826 2.286 1.16 1.501 2.291 3.021 3.518 4.657H.527c.329-.84.983-1.453 1.495-2.149 3.259-4.434 2.663-2.813 2.678-8.116.019-4.379.016-8.76.033-13.139a3.27 3.27 0 00-.714-2.091c-.87-1.13-1.73-2.274-2.599-3.406.248-.354.561-.202.817-.204 2.658-.013 5.316.021 7.975-.027.754-.013 1.119.211 1.435.918 2.389 5.334 4.828 10.646 7.261 15.963.149.317.195.698.595.94l4.564-11.38a1326.53 1326.53 0 002.291-5.691c.149-.36.202-.744.757-.744 3.006.019 6.011.009 9.312.009-.994 1.114-1.785 2.054-2.642 2.942a2.162 2.162 0 00-.629 1.636c.018 6.823.018 13.645 0 20.467 0 .757.256 1.27.782 1.775.751.72 1.424 1.52 2.121 2.277H22.82c.699-.757 1.455-1.599 2.24-2.413.306-.317.595-.605.595-1.09 0-6.099 0-12.198-.18-18.344l-9.019 22.463L6.585 9.833l-.196.016zm138.319 21.386h-8.589c-.674 0-.506-.469-.503-.824.029-2.975.07-5.958.105-8.935.02-1.794.087-3.595-.414-5.346-.325-1.129-.893-2.059-2.185-2.24-1.328-.186-2.368.357-3.23 1.339-.322.367-.286.793-.286 1.22 0 3.735.031 7.469-.023 11.203-.012.916.243 1.577.947 2.135.493.39.918.863 1.593 1.508-2.253 0-4.209.025-6.163-.012-1.029-.019-2.399.464-2.99-.207-.507-.576-.168-1.913-.169-2.913 0-4.416-.04-8.833.023-13.249.016-1.129-.229-2.011-1.092-2.75-.478-.408-.869-.918-1.445-1.54h8.818c.473 0 .509.251.506.613-.012.961 0 1.922.082 2.951 1.477-2.551 3.57-3.966 6.545-3.894 3.061.076 4.872 1.761 5.826 4.702.297-.528.493-.904.713-1.264a7.155 7.155 0 017.704-3.272c2.417.531 3.682 2.215 4.367 4.443.556 1.81.556 3.682.533 5.55-.03 2.405-.033 4.811-.119 7.213-.027.787.137 1.379.772 1.87.563.433 1.069.942 1.598 1.418l-.11.25h-5.189c-1.041 0-2.083-.019-3.124.009-.51.013-.772-.063-.76-.684.064-3.087.079-6.173.113-9.26.018-1.651.055-3.307-.35-4.924-.298-1.16-.809-2.197-2.134-2.437-1.424-.257-2.606.263-3.57 1.311a.846.846 0 00-.234.783c.635 3.244.307 6.52.149 9.767-.112 2.263.297 4.065 2.437 5.235l-.151.235zM79.834 1.393c.016 3.406.041 6.814.046 10.221.009 5.206.033 10.413-.023 15.608-.012 1.062.241 1.862 1.074 2.508.521.39.948.891 1.253 1.465h-2.617c-1.866 0-3.733-.037-5.599.019-.744.021-.931-.217-.881-.909.045-.781.021-1.565-.073-2.341-1.055 1.702-2.411 2.947-4.37 3.401-3.241.753-6.581-.619-8.128-3.637-2.213-4.323-2.294-8.791 0-13.114 1.626-3.075 4.39-4.433 7.848-4.314 2.022.07 3.509 1.105 4.744 3.091V8.516a6.495 6.495 0 010-.86c.298-2.129-.129-3.966-2.062-5.215-.106-.068-.161-.213-.345-.469l7.474-.791c.508.451 1.105.156 1.659.211zm-6.732 19.018c0-1.898-.024-3.796.013-5.694.013-.619-.231-1.001-.705-1.339-1.675-1.178-3.845-.693-5.007 1.175-1.226 1.972-1.339 4.199-1.331 6.428.007 1.941.149 3.881 1.166 5.611 1.147 1.944 3.435 2.352 5.162.965.473-.381.732-.803.717-1.458-.043-1.892-.015-3.79-.015-5.688zm30.078 10.987c-1.852-.149-3.124-1.162-3.989-2.725-.911-1.644-1.177-3.454-1.19-5.3-.009-2.869-.019-5.742.074-8.61.039-1.129-.169-2.033-1.107-2.718-.457-.333-.88-.713-1.319-1.071l.171-.347h2.504c1.866 0 3.733.034 5.6-.018.72-.019.893.204.893.903-.013 4.054.012 8.108.049 12.162.009 1.081.172 2.151.682 3.124.568 1.087 1.522 1.488 2.706 1.19 1.422-.366 2.3-1.285 2.302-2.445 0-3.804-.041-7.607.028-11.409.019-1.096-.724-1.581-1.312-2.213-.33-.355-.798-.586-1.204-.873l.244-.421h2.082c1.933 0 3.881.068 5.815-.028 1.041-.054 1.207.326 1.2 1.257-.043 5.095.012 10.191-.046 15.284-.013 1.135.212 2.01 1.151 2.691.446.326.814.769 1.427 1.363h-6.038c-.149 0-.287.009-.43 0-.955-.064-2.224.412-2.775-.201-.472-.522-.149-1.766-.167-2.691v-1.02c-1.267 2.309-2.841 3.885-5.376 4.132-.651-.425-1.314-.409-1.975-.015zM50.597 10.681c3.283.665 5.528 3.075 6.008 6.469.069.497.111.998.123 1.499.036 1.501.028 1.501-1.441 1.501-3.301 0-6.603.036-9.904-.024-.915-.016-1.133.298-.985 1.105.071.388.089.785.162 1.172.434 2.28 1.428 4.172 3.807 4.898 2.448.744 4.681.25 6.599-1.479.39-.351.73-.754 1.116-1.159.297.446.077.796-.048 1.145-1.267 3.546-4.097 5.593-7.917 5.726-6.566.229-10.74-3.792-10.764-10.359-.013-3.359.757-6.41 3.464-8.671a8.004 8.004 0 014.158-1.87c.308.372.533.345.665-.135l.632-.071a3.46 3.46 0 002.826 0l.634.071c.18.562.504.472.864.18zm-3.326 8.367h2.469c.329 0 .666.036.655-.461-.049-2.033.052-4.097-.788-6.016-.781-1.785-2.794-1.965-3.949-.393-.327.47-.571.994-.72 1.547a14.82 14.82 0 00-.552 3.702c-.083 1.999-.201 1.577 1.488 1.62.47.016.934 0 1.398 0zm47.897 12.144c-3.099 0-5.95-.007-8.805 0-.61 0-.458-.415-.46-.744-.006-2.441-.006-4.882 0-7.323 0-2.8-.046-5.601.022-8.399.026-1.055-.207-1.894-1.041-2.554-.496-.394-.974-.811-1.46-1.218l.205-.338h6.721c2.335 0 2.335 0 2.335 2.316 0 4.773.04 9.548-.028 14.32-.016 1.151.258 2.002 1.181 2.678.419.32.764.724 1.33 1.261zM89.271.768c2.176-.021 3.674 1.4 3.705 3.514.014.491-.069.981-.247 1.439a3.723 3.723 0 01-1.983 2.066 3.693 3.693 0 01-2.862.037 3.71 3.71 0 01-2.32-3.447C85.536 2.223 87.009.791 89.271.768z"/><path fill="var(--color1, #fff)" d="M49.101 10.437a3.46 3.46 0 01-2.826 0 6.3 6.3 0 012.826 0zm54.079 20.961c.662-.394 1.32-.411 1.975.015a3.218 3.218 0 01-1.975-.015zM79.835 1.393c-.553-.055-1.15.24-1.652-.211.457-.071.912-.164 1.371-.21.297-.03.345.174.281.421zm-29.239 9.288c-.36.298-.68.382-.861-.18.299-.042.604.021.861.18zm-4.955-.18c-.132.48-.357.507-.665.135.093-.073.201-.123.316-.147s.235-.02.349.012z"/></symbol><symbol id="icon-partners4" viewBox="0 0 139 32"><path fill="var(--color1, #fff)" d="M75.514.371c1.702 0 3.376-.057 5.036.02 1.11.05 1.786.827 1.909 1.935.037.332.055.666.055 1.001v16.744c0 .604.041.647.648.647h1.36v4.279c-.094.008-.192.025-.29.025h-4.013a3.78 3.78 0 01-.62-.044c-.928-.156-1.564-.64-1.752-1.67-.117.106-.198.176-.273.251-1.21 1.206-2.689 1.792-4.374 1.865-2.401.105-4.476-.641-6.089-2.469-1.209-1.37-1.855-3.012-2.127-4.8-.323-2.095-.225-4.17.541-6.164 1.033-2.681 2.86-4.533 5.737-5.134 1.918-.398 3.786-.224 5.518.787.255.148.486.334.781.538V5.173c0-.419-.082-.5-.509-.504h-1.538V.371zm2.139 15.78a6.392 6.392 0 00-.503-2.751c-.622-1.396-1.636-2.266-3.223-2.318-1.566-.05-2.742.653-3.41 2.034-.967 2.003-.94 4.064.042 6.061.626 1.276 1.722 1.931 3.151 1.935 1.385 0 2.466-.6 3.181-1.797.595-.989.757-2.089.762-3.164zm-50.04-4.712V7.117c.088-.015.176-.026.265-.03 1.349 0 2.7-.021 4.049.015.435.02.864.112 1.27.273.596.225.892.733 1.017 1.385.06-.041.118-.085.174-.133 1.59-1.576 3.543-2.109 5.706-1.91 3.418.317 5.566 2.285 6.627 5.442.937 2.8.904 5.642-.265 8.384-1.109 2.599-3.04 4.281-5.879 4.771-2.105.362-4.062.008-5.757-1.385-.05-.041-.107-.076-.211-.148v7.997h-4.93V12.069c0-.607-.021-.628-.618-.63h-1.446zm14.73 4.289a5.868 5.868 0 00-.559-2.412c-.632-1.325-1.629-2.158-3.146-2.229-1.494-.072-2.697.514-3.382 1.841-1.074 2.077-1.08 4.231.017 6.301 1.385 2.615 4.814 2.379 6.221.179.649-1.009.848-2.126.85-3.679zM7.089 23.76v8.016H2.185V12.064c0-.595-.026-.62-.626-.622H.129V7.115c.075-.015.151-.024.227-.028h4.085c.265.004.528.037.786.099.824.199 1.16.546 1.519 1.531.028-.009.066-.011.085-.03 1.21-1.26 2.718-1.882 4.435-1.988 2.447-.159 4.582.561 6.249 2.417 1.193 1.325 1.845 2.916 2.133 4.651.382 2.307.276 4.583-.663 6.753-1.134 2.604-3.048 4.303-5.904 4.794-2.09.359-4.04 0-5.731-1.37-.062-.048-.13-.09-.26-.183zm-.075-7.687a6.352 6.352 0 00.684 3.035c1.417 2.745 4.891 2.508 6.299.305 1.15-1.793 1.146-4.92-.037-6.688-1.581-2.362-4.97-2.179-6.293.342-.494.941-.645 1.96-.653 3.007v-.001z"/><path fill="var(--color1, #fff)" d="M52.752 17.15c.168 1.783 1.625 3.38 3.407 3.783 1.878.424 3.556-.095 5.111-1.131.362-.24.689-.53 1.053-.815l1.102 1.833c.29.484.567.977.872 1.451.132.208.113.331-.07.494a10.057 10.057 0 01-4.522 2.346c-3.268.74-6.313.265-8.945-1.927-1.871-1.559-2.844-3.627-3.089-6.028-.229-2.253.133-4.4 1.312-6.352 1.479-2.431 3.69-3.733 6.494-4.065 1.539-.183 3.048-.045 4.472.584 2.451 1.083 3.801 3.048 4.374 5.6.295 1.308.256 2.632.132 3.957-.028.308-.221.265-.414.265l-11.289.004zm6.704-3.702c-.204-1.955-1.775-3.076-3.696-2.679-1.423.293-2.606 1.418-2.811 2.679h6.507zm77.076 5.518c.718 1.206 1.418 2.386 2.13 3.578a8.033 8.033 0 01-2.022 1.498c-3.38 1.787-6.818 1.975-10.218.145-2.65-1.425-4.097-3.757-4.49-6.718-.334-2.527.074-4.929 1.53-7.069 1.491-2.192 3.621-3.352 6.23-3.655 1.65-.192 3.254-.021 4.755.716 2.261 1.111 3.522 2.999 4.079 5.405.31 1.343.265 2.7.142 4.061-.021.217-.14.228-.302.228H126.95c.094.736.372 1.435.811 2.033 1.141 1.548 2.727 2.054 4.57 1.846 1.524-.174 2.828-.863 3.976-1.871.055-.053.118-.105.225-.195zm-9.372-5.518h6.508c-.191-1.826-1.591-2.916-3.38-2.72-1.335.147-2.729 1.05-3.128 2.72zm-22.999-2.009V7.087c.382 0 .746-.007 1.112 0 .817.017 1.638 0 2.45.072.981.083 1.625.663 1.969 1.567.362.946.692 1.905 1.03 2.859.785 2.209 1.569 4.423 2.351 6.643.085.236.151.478.231.733.038-.031.078-.045.087-.07.804-2.315 1.602-4.639 2.409-6.949a289.7 289.7 0 011.118-3.121c.398-1.084 1.193-1.657 2.322-1.711 1.012-.049 2.026-.011 3.067-.011v4.342h-.586c-.53 0-.634.069-.819.561-.764 2.026-1.526 4.051-2.287 6.075-.836 2.219-1.677 4.437-2.502 6.661a.37.37 0 01-.421.291 300.83 300.83 0 00-4.844 0c-.306 0-.438-.093-.542-.372a2981.3 2981.3 0 00-4.228-11.251c-.183-.485-.379-.965-.545-1.458-.126-.371-.353-.546-.748-.516-.196.021-.392.008-.625.008zM90.612 25.001h-4.929V11.938c-.009-.444-.065-.502-.502-.504h-1.548V7.086h4.193a5.05 5.05 0 01.893.078c.981.184 1.591.84 1.71 1.826.033.265.05.542.08.875C92 7.669 93.942 6.522 96.643 6.949v4.908c-.438-.025-.859-.069-1.281-.07-2.196-.009-4.002 1.41-4.438 3.569a16.347 16.347 0 00-.3 2.877c-.044 2.11-.014 4.221-.014 6.331l.002.436zm-62.08-4.283v4.253c-.037.02-.056.04-.076.04-1.59 0-3.181.033-4.771-.015-1.279-.038-2.02-.857-2.113-2.197-.015-.219-.012-.437-.012-.663V12.063c0-.592-.041-.632-.62-.633h-1.435V7.087h4.376c.312-.002.623.031.928.098 1.054.249 1.636 1.051 1.659 2.293.019 1.05.007 2.099.007 3.149v7.474c0 .545.07.614.619.614l1.438.004zM97.163 7.15c1.59 0 3.141-.065 4.689.024 1.023.058 1.643.795 1.784 1.817.042.32.065.642.065.965v10.1c0 .62.042.663.672.663h1.39v4.274a2.13 2.13 0 01-.265.032h-4.255a3.377 3.377 0 01-.585-.046c-1.151-.209-1.77-.903-1.855-2.073-.018-.265-.023-.53-.023-.795v-9.997c0-.635-.032-.663-.663-.663h-.964l.009-4.301zm6.174-2.184H99V.327h4.335l.001 4.639zm-81.563-.013V.339h4.333v4.614h-4.333z"/></symbol><symbol id="icon-result-icon1" viewBox="0 0 28 32"><path d="M13.924 3.548l5.207 3.007 2.64-1.52L13.924.502.817 8.075l2.627 1.52 10.48-6.047zm10.475 3.007l-10.473 6.047-5.207-3.007-2.633 1.52 7.84 4.527 13.113-7.567-2.64-1.52zM2.925 16.728l-2.633-1.52v9.053l13.107 7.573v-3.04L2.926 22.741v-6.013zm-2.633-4.56l10.473 6.047v6.013l2.633 1.527v-9.06L.291 9.128v3.04zm22.005 3.04v-3.04l-7.847 4.527v15.14l2.633-1.52v-12.1l5.213-3.007zm2.628-4.56v12.093l-5.207 3.013v3.04l7.847-4.533V9.128l-2.64 1.52z"/></symbol><symbol id="icon-result-icon2" viewBox="0 0 32 32"><path d="M14.929 15.961a1.223 1.223 0 002.092.865 1.229 1.229 0 00.264-1.336 1.225 1.225 0 00-2.356.472zm1.223 3.83c-.242 0-.479.072-.681.206s-.359.326-.451.55a1.226 1.226 0 101.131-.757zm3.76-5.056a1.226 1.226 0 10.001 2.454 1.226 1.226 0 00-.001-2.455zm-3.76-2.671a1.221 1.221 0 001.133-.754 1.226 1.226 0 10-1.133.755zm-2.56 3.755a1.226 1.226 0 10-2.454.003 1.226 1.226 0 002.455-.004z"/><path d="M18.941 17.63a2.356 2.356 0 010-3.32 1.228 1.228 0 00.263-1.334 1.223 1.223 0 00-2.262 0 1.217 1.217 0 00.263 1.334 2.344 2.344 0 01.514 2.57 2.36 2.36 0 01-.514.764 1.227 1.227 0 00.868 2.09 1.227 1.227 0 001.202-1.462 1.223 1.223 0 00-.334-.628v-.015zm-3.528.715a1.243 1.243 0 00-.352-.861 2.356 2.356 0 010-3.32 1.228 1.228 0 00.263-1.334 1.223 1.223 0 00-2.262 0 1.217 1.217 0 00.263 1.334 2.341 2.341 0 01.693 1.666 2.346 2.346 0 01-.693 1.666 1.223 1.223 0 00-.071 1.642 1.22 1.22 0 001.067.437 1.233 1.233 0 00.958-.642c.095-.178.144-.375.145-.576l-.01-.012z"/></symbol><symbol id="icon-result-icon3" viewBox="0 0 28 32"><path d="M.74 9.186a.236.236 0 000-.472.236.236 0 000 .472zm5.222-.04a.236.236 0 100-.472.236.236 0 000 .472zM3.35 10.685a.236.236 0 000-.472.236.236 0 000 .472zM.74 12.229a.236.236 0 000-.472.236.236 0 000 .472zM13.793 7.81a.488.488 0 100-.976.488.488 0 000 .976zm-2.612 1.544a.488.488 0 100-.976.488.488 0 000 .976zm-2.609 1.544a.488.488 0 100-.976.488.488 0 000 .976zm-2.61 1.544a.488.488 0 100-.976.488.488 0 000 .976zM3.35 13.98a.488.488 0 100-.976.488.488 0 000 .976zM.74 15.271a.236.236 0 000-.472.236.236 0 000 .472zm13.053-3.929a.977.977 0 100-1.954.977.977 0 000 1.954zm-2.61 1.543a.977.977 0 100-1.954.977.977 0 000 1.954zm-2.612 1.544a.976.976 0 10.001-1.953.976.976 0 00-.001 1.953zm-2.609 1.539a.977.977 0 100-1.954.977.977 0 000 1.954zM3.35 17.023a.488.488 0 100-.976.488.488 0 000 .976zM.74 18.314a.236.236 0 000-.472.236.236 0 000 .472zm13.053-3.93a.977.977 0 100-1.954.977.977 0 000 1.954zm-2.61 1.544a.977.977 0 100-1.954.977.977 0 000 1.954zm-2.612 1.538a.976.976 0 10.001-1.953.976.976 0 00-.001 1.953zM5.962 19.01a.977.977 0 100-1.954.977.977 0 000 1.954zM3.35 20.066a.488.488 0 100-.976.488.488 0 000 .976zM.74 21.357a.236.236 0 000-.472.236.236 0 000 .472zm13.053-4.418a.488.488 0 100-.976.488.488 0 000 .976zm-2.612 1.538a.488.488 0 100-.976.488.488 0 000 .976zm-2.609 1.544a.488.488 0 100-.976.488.488 0 000 .976zm-2.61 1.544a.488.488 0 100-.976.488.488 0 000 .976zM3.35 22.856a.236.236 0 000-.472.236.236 0 000 .472zM.74 24.4a.236.236 0 000-.472.236.236 0 000 .472zm13.053-4.677a.236.236 0 000-.472.236.236 0 000 .472zm-2.61 1.544a.236.236 0 000-.472.236.236 0 000 .472zm-2.612 1.544a.236.236 0 000-.472.236.236 0 000 .472zm-2.609 1.544a.236.236 0 000-.472.236.236 0 000 .472zM3.35 25.899a.236.236 0 000-.472.236.236 0 000 .472zm10.443-3.133a.236.236 0 000-.472.236.236 0 000 .472zm-2.61 1.544a.236.236 0 000-.472.236.236 0 000 .472zm-2.612 1.544a.236.236 0 000-.472.236.236 0 000 .472zm-2.609 1.544a.236.236 0 000-.472.236.236 0 000 .472zm7.831-1.589a.236.236 0 000-.472.236.236 0 000 .472zm-2.61 1.544a.236.236 0 000-.472.236.236 0 000 .472zm-2.612 1.544a.236.236 0 000-.472.236.236 0 000 .472zm5.222-.045a.236.236 0 000-.472.236.236 0 000 .472zm-2.61 1.543a.236.236 0 000-.472.236.236 0 000 .472zm2.61 1.5a.236.236 0 000-.472.236.236 0 000 .472zm13.02-22.709a.236.236 0 000-.472.236.236 0 000 .472zm-5.229-.04a.236.236 0 100-.472.236.236 0 000 .472zm2.617 1.539a.236.236 0 000-.472.236.236 0 000 .472zm2.612 1.544a.236.236 0 000-.472.236.236 0 000 .472z"/><path d="M13.754 7.81a.488.488 0 100-.976.488.488 0 000 .976zm2.609 1.544a.488.488 0 100-.976.488.488 0 000 .976zm2.612 1.544a.488.488 0 100-.976.488.488 0 000 .976zm2.61 1.544a.488.488 0 100-.976.488.488 0 000 .976zm2.616 1.538a.488.488 0 100-.976.488.488 0 000 .976zm2.612 1.291a.236.236 0 000-.472.236.236 0 000 .472zm-13.06-3.929a.976.976 0 10.001-1.953.976.976 0 00-.001 1.953zm2.612 1.543a.976.976 0 10.001-1.953.976.976 0 00-.001 1.953zm2.61 1.544a.976.976 0 10.001-1.953.976.976 0 00-.001 1.953zm2.609 1.539a.976.976 0 10.001-1.953.976.976 0 00-.001 1.953zm2.617 1.055a.488.488 0 100-.976.488.488 0 000 .976zm2.612 1.291a.236.236 0 000-.472.236.236 0 000 .472zm-13.06-3.93a.976.976 0 10.001-1.953.976.976 0 00-.001 1.953zm2.612 1.544a.976.976 0 10.001-1.953.976.976 0 00-.001 1.953zm2.61 1.538a.976.976 0 10.001-1.953.976.976 0 00-.001 1.953zm2.609 1.544a.976.976 0 10.001-1.953.976.976 0 00-.001 1.953zm2.617 1.056a.488.488 0 100-.976.488.488 0 000 .976zm2.612 1.291a.236.236 0 000-.472.236.236 0 000 .472zm-13.059-4.418a.488.488 0 100-.976.488.488 0 000 .976zm2.609 1.538a.488.488 0 100-.976.488.488 0 000 .976zm2.612 1.544a.488.488 0 100-.976.488.488 0 000 .976zm2.61 1.544a.488.488 0 100-.976.488.488 0 000 .976zm2.616 1.291a.236.236 0 000-.472.236.236 0 000 .472zm2.612 1.544a.236.236 0 000-.472.236.236 0 000 .472zm-13.06-4.677a.236.236 0 000-.472.236.236 0 000 .472zm2.612 1.544a.236.236 0 000-.472.236.236 0 000 .472zm2.61 1.544a.236.236 0 000-.472.236.236 0 000 .472zm2.609 1.544a.236.236 0 000-.472.236.236 0 000 .472zm2.617 1.544a.236.236 0 000-.472.236.236 0 000 .472zm-10.448-3.133a.236.236 0 000-.472.236.236 0 000 .472zm2.612 1.544a.236.236 0 000-.472.236.236 0 000 .472zm2.61 1.544a.236.236 0 000-.472.236.236 0 000 .472zm2.609 1.544a.236.236 0 000-.472.236.236 0 000 .472zm-7.831-1.589a.236.236 0 000-.472.236.236 0 000 .472zm2.612 1.544a.236.236 0 000-.472.236.236 0 000 .472zm2.61 1.544a.236.236 0 000-.472.236.236 0 000 .472zm-5.222-.045a.236.236 0 000-.472.236.236 0 000 .472zm2.612 1.543a.236.236 0 000-.472.236.236 0 000 .472zm-2.612 1.5a.236.236 0 000-.472.236.236 0 000 .472zM13.484.894a.236.236 0 000-.472.236.236 0 000 .472zm-2.61 1.544a.236.236 0 000-.472.236.236 0 000 .472zM8.262 3.981a.236.236 0 000-.472.236.236 0 000 .472zm-2.61 1.544a.236.236 0 000-.472.236.236 0 000 .472zM3.043 7.069a.236.236 0 000-.472.236.236 0 000 .472zm10.441-3.132a.236.236 0 000-.472.236.236 0 000 .472zm-2.61 1.544a.236.236 0 000-.472.236.236 0 000 .472zM8.262 7.024a.236.236 0 000-.472.236.236 0 000 .472z"/><path d="M13.444.894a.236.236 0 000-.472.236.236 0 000 .472zm2.612 1.544a.236.236 0 000-.472.236.236 0 000 .472zm2.61 1.543a.236.236 0 000-.472.236.236 0 000 .472zm2.611 1.544a.236.236 0 000-.472.236.236 0 000 .472zm2.614 1.544a.236.236 0 000-.472.236.236 0 000 .472zM13.444 3.937a.236.236 0 000-.472.236.236 0 000 .472zm2.612 1.544a.236.236 0 000-.472.236.236 0 000 .472zm2.61 1.543a.236.236 0 000-.472.236.236 0 000 .472z"/></symbol><symbol id="icon-result-icon4" viewBox="0 0 34 32"><path d="M5.259 11.543c.285-.008.568.054.824.181l2.449 1.416a1.951 1.951 0 01.824 1.422v2.821a1.959 1.959 0 01-.824 1.422l-2.449 1.416a1.739 1.739 0 01-.824.175 1.692 1.692 0 01-.818-.175l-2.454-1.416a1.951 1.951 0 01-.824-1.422v-2.821a1.962 1.962 0 01.824-1.422l2.454-1.416c.253-.128.535-.19.818-.181zm0-1.129a2.817 2.817 0 00-1.382.333L1.423 12.18a3.085 3.085 0 00-1.388 2.398v2.821a3.08 3.08 0 001.388 2.398l2.454 1.416c.425.225.901.338 1.382.327.483.01.961-.102 1.388-.327l2.449-1.416a3.085 3.085 0 001.388-2.398v-2.821a3.08 3.08 0 00-1.388-2.398l-2.449-1.416a2.857 2.857 0 00-1.388-.333v-.017zm11.506 1.129a1.72 1.72 0 01.818.181l2.454 1.416c.231.164.423.376.565.621s.228.518.253.8v2.821a1.982 1.982 0 01-.818 1.422l-2.454 1.416a1.715 1.715 0 01-.818.175c-.285.01-.568-.05-.824-.175l-2.454-1.416a1.967 1.967 0 01-.818-1.422v-2.821a1.965 1.965 0 01.818-1.421l2.454-1.416c.256-.127.539-.189.824-.181zm0-1.129a2.857 2.857 0 00-1.388.333l-2.454 1.433a3.078 3.078 0 00-1.383 2.398v2.821a3.068 3.068 0 001.383 2.398l2.454 1.416a2.84 2.84 0 001.388.327c.481.011.957-.102 1.382-.327l2.454-1.416a3.078 3.078 0 001.383-2.398v-2.821a3.07 3.07 0 00-1.383-2.398l-2.454-1.416a2.823 2.823 0 00-1.382-.333v-.017zm11.498 1.129c.285-.008.568.054.824.181l2.449 1.416a1.951 1.951 0 01.824 1.422v2.821a1.959 1.959 0 01-.824 1.422l-2.449 1.416a1.739 1.739 0 01-.824.175 1.692 1.692 0 01-.818-.175l-2.454-1.416a1.951 1.951 0 01-.824-1.422v-2.821a1.962 1.962 0 01.824-1.422l2.454-1.416c.253-.128.535-.19.818-.181zm0-1.129a2.817 2.817 0 00-1.382.333l-2.454 1.433a3.085 3.085 0 00-1.388 2.398v2.821a3.08 3.08 0 001.388 2.398l2.454 1.416c.425.225.901.338 1.382.327.483.01.961-.102 1.388-.327l2.449-1.416a3.085 3.085 0 001.388-2.398v-2.821A3.068 3.068 0 0032.1 12.18l-2.449-1.416a2.857 2.857 0 00-1.388-.333v-.017zM11.009 21.592c.287-.01.572.052.829.181l2.454 1.416a1.975 1.975 0 01.819 1.421v2.821a1.979 1.979 0 01-.818 1.421l-2.454 1.428a2.018 2.018 0 01-1.642 0l-2.454-1.416a1.976 1.976 0 01-.818-1.422v-2.821a1.965 1.965 0 01.818-1.421l2.455-1.416a1.72 1.72 0 01.818-.181l-.006-.011zm.006-1.117a2.817 2.817 0 00-1.382.327l-2.454 1.416a3.081 3.081 0 00-1.382 2.404v2.821a3.073 3.073 0 001.382 2.398l2.454 1.416c.425.225.901.338 1.382.327.483.01.961-.102 1.388-.327l2.455-1.416a3.07 3.07 0 001.382-2.398v-2.821a3.084 3.084 0 00-1.382-2.404l-2.455-1.428a2.84 2.84 0 00-1.388-.327v.011zm11.5 1.117c.284-.009.565.053.818.181l2.454 1.416a1.962 1.962 0 01.824 1.422v2.821a1.98 1.98 0 01-.824 1.422l-2.454 1.416a1.766 1.766 0 01-.818.175 1.82 1.82 0 01-.824-.175l-2.449-1.416a1.981 1.981 0 01-.824-1.422v-2.821a1.962 1.962 0 01.824-1.422l2.449-1.416c.256-.127.539-.189.824-.181zm0-1.128a2.851 2.851 0 00-1.388.327l-2.449 1.416a3.097 3.097 0 00-1.389 2.404v2.821a3.08 3.08 0 001.388 2.398l2.449 1.416a2.84 2.84 0 001.388.327c.481.011.957-.102 1.382-.327l2.454-1.416a3.084 3.084 0 001.388-2.398v-2.821a3.097 3.097 0 00-1.389-2.404l-2.454-1.416a2.817 2.817 0 00-1.382-.327zM11.009 1.494a1.72 1.72 0 01.824.181l2.454 1.416c.231.164.423.376.565.621s.228.518.253.8v2.821a1.968 1.968 0 01-.819 1.422l-2.449 1.428a2.018 2.018 0 01-1.642 0l-2.46-1.388a1.986 1.986 0 01-.819-1.422V4.552a1.965 1.965 0 01.818-1.421l2.455-1.416a1.72 1.72 0 01.818-.181v-.04zm0-1.089a2.817 2.817 0 00-1.382.333L7.172 2.154a3.078 3.078 0 00-1.383 2.398v2.821a3.068 3.068 0 001.383 2.398l2.455 1.416c.425.225.901.338 1.382.327.483.01.961-.102 1.388-.327l2.454-1.416a3.078 3.078 0 001.383-2.398V4.552a3.068 3.068 0 00-1.383-2.398L12.402.698a2.857 2.857 0 00-1.388-.333l-.006.04zm11.506 1.089c.284-.009.565.053.818.181l2.454 1.416a1.951 1.951 0 01.824 1.422v2.821a1.959 1.959 0 01-.824 1.422l-2.454 1.416a1.692 1.692 0 01-.818.175c-.285.01-.567-.05-.824-.175l-2.449-1.377a1.951 1.951 0 01-.824-1.422V4.552a1.962 1.962 0 01.824-1.422l2.449-1.416c.256-.127.539-.189.824-.181v-.039zm0-1.09a2.857 2.857 0 00-1.388.333l-2.449 1.416a3.085 3.085 0 00-1.388 2.398v2.821a3.077 3.077 0 001.388 2.398l2.449 1.416a2.84 2.84 0 001.388.327c.481.011.957-.102 1.382-.327l2.454-1.416a3.085 3.085 0 001.388-2.398V4.551a3.077 3.077 0 00-1.388-2.398L23.897.737a2.823 2.823 0 00-1.382-.333z"/></symbol><symbol id="icon-result-icon5" viewBox="0 0 46 32"><path d="M24.383 17.439l-6.877 11.934-6.877-11.934h13.754zm1.842-1.066H8.779l8.727 15.112 8.719-15.112zM36.34 2.596l6.877 11.934H29.463L36.34 2.596zm0-2.133l-8.727 15.112h17.454L36.34.463zM.418.463l7.317 13.366L15.731.798.418.462zm17.089 1.171l7.675 13.292H9.817l7.69-13.292zm9.652 16.193l7.683 13.657H19.111l7.809-13.657h.239zm1.663-.828l7.519 13.448 7.623-13.448H28.823z"/></symbol></defs></svg>