<svg width="222" height="63" fill="none" xmlns="http://www.w3.org/2000/svg"><path d="M163.612 62.803c-.639-.316-1.317-.576-1.912-.963-1.917-1.257-2.905-3.029-2.903-5.337V6.311c0-3.023 1.824-5.335 4.817-6.12.082-.021.143-.12.21-.183h52.153c.674.3 1.374.55 2.017.905 1.631.903 2.381 2.472 3.007 4.12V57.99c-.373.258-.366.708-.523 1.07-.867 2.017-2.514 3.08-4.501 3.743h-52.365zm28.695-34.347c0-1.087-.044-1.925.012-2.759.046-.653-.171-.823-.814-.812-2.337.039-4.674.039-7.013 0-.628 0-.821.152-.819.808.023 7.881.023 15.763 0 23.645 0 .67.157.9.863.886 2.231-.044 4.466-.059 6.703 0 .873.025 1.101-.222 1.093-1.09a784.694 784.694 0 01-.013-13.287c.015-2.564 1.812-4.633 4.135-4.863 2.723-.273 4.415.98 4.974 3.755a9.1 9.1 0 01.113 1.768c0 4.256.021 8.51-.01 12.764 0 .716.167.965.921.949 2.303-.048 4.607-.048 6.912 0 .75.014.928-.229.924-.947-.031-4.464-.019-8.927-.013-13.39a19.435 19.435 0 00-.4-3.938c-1.453-7.07-10.208-10.185-15.669-5.59-.668.566-1.158 1.284-1.899 2.1zM179.53 37.69c0-3.98-.012-7.959.015-11.924 0-.655-.132-.898-.838-.883-2.304.048-4.608.06-6.912 0-.837-.026-.951.284-.948 1.013.025 7.775.025 15.55 0 23.325 0 .758.161 1.032.976 1.011 2.266-.056 4.534-.05 6.8 0 .736.015.935-.193.926-.926-.046-3.877-.019-7.745-.019-11.616zm-4.425-16.337c.278 0 .557.02.837 0 2.17-.165 3.794-1.694 4.141-3.89a4.087 4.087 0 00-2.542-4.354 5.915 5.915 0 00-5.237.315 3.767 3.767 0 00-1.763 2.117c-1.064 2.974 1.16 5.831 4.555 5.819l.009-.007z" fill="#00679E"/><path d="M142.497 26.14c0-4.305.027-8.345-.021-12.386-.011-.867.209-1.12 1.085-1.093 2.232.067 4.467.06 6.702 0 .8-.02.972.222.968.995-.025 9.312-.025 18.625 0 27.938 0 2.579-.04 5.161.209 7.733.065.65-.037.92-.789.901a117.365 117.365 0 00-6.074 0c-.69.015-.891-.21-.912-.876-.031-.96-.188-1.916-.31-3.04-.71.762-1.16 1.501-1.82 2.067-4.528 3.891-12.223 2.988-16.066-1.904-4.189-5.335-3.903-14.438.628-19.48 3.251-3.625 9.061-4.881 13.537-2.931a8.3 8.3 0 012.863 2.075zm0 10.566c0-.628-.051-1.257.01-1.885.21-2.11-1.324-4.327-3.351-5.027a5.656 5.656 0 00-6.283 1.833c-2.041 2.666-2.095 7.724-.091 10.439 1.351 1.84 3.842 2.61 6.179 1.906 2.13-.64 3.425-2.37 3.529-4.765.028-.828-.002-1.665-.002-2.501h.009zM96.042 23.695c-1.854 2.006-3.544 3.84-5.237 5.67-1.397 1.508-2.773 3.037-4.21 4.505-.504.515-.443.838-.048 1.378a2161.08 2161.08 0 0110.324 14.067c.18.245.438.448.486.896-2.823 0-5.634-.117-8.428.044-1.648.095-2.535-.454-3.34-1.885-1.73-3.051-3.68-5.977-5.595-9.046-.694.859-1.324 1.663-1.986 2.442-.289.34-.222.719-.222 1.092 0 2.163-.031 4.325.013 6.492.014.688-.174.886-.867.872a217.275 217.275 0 00-7.01 0c-.577 0-.776-.126-.773-.742.018-12.03.018-24.06 0-36.09 0-.628.236-.725.785-.718 2.304.027 4.608.054 6.912 0 .837-.025.95.257.948.997-.027 6.832-.016 13.666-.016 20.5.383.14.398-.209.515-.378 2.268-3.13 4.537-6.261 6.776-9.413a1.467 1.467 0 011.367-.691c3.102.029 6.206.008 9.606.008zM47.9 28.345c.03-.136.078-.267.143-.39 2.526-3.615 6.924-4.277 10.774-3.198 3.655 1.022 6.193 4.27 6.56 8.447.434 4.939.103 9.892.18 14.84.036 2.165 0 2.167-2.157 2.167-1.885 0-3.77-.035-5.655.017-.738.021-.934-.193-.928-.928.035-4.252.017-8.506.017-12.76a8.467 8.467 0 00-.21-2.176c-.611-2.335-2.036-3.464-4.34-3.405-2.195.048-4.08 1.566-4.499 3.657a8.484 8.484 0 00-.148 1.66c-.013 4.324-.028 8.647.012 12.97 0 .773-.167 1.007-.972.986a137.64 137.64 0 00-6.8 0c-.738.017-.922-.21-.92-.926.04-7.25.042-14.502.05-21.753 0-.698 0-1.397-.042-2.095-.029-.469.15-.588.597-.584 2.476.017 4.954.021 7.43 0 .498 0 .67.132.649.641-.04.888-.01 1.778-.01 2.666l.27.164z" fill="#fff"/><path d="M102.741 39.605c.21 2.138 1.446 3.376 3.249 4.16 2.388 1.047 4.897.925 7.406.728a20.48 20.48 0 004.311-.764c.571-.172.731.019.827.502.279 1.397.568 2.793.865 4.19.092.418.023.703-.469.856-5.446 1.697-10.933 2.304-16.404.346-5.05-1.804-7.59-5.63-8.033-10.906-.253-3.05.235-5.98 1.75-8.67 2.804-4.982 7.265-6.989 12.794-6.882 4.267.084 7.8 1.66 10.067 5.467 1.217 2.044 1.721 4.304 1.885 6.66.083 1.156-.088 2.291-.113 3.437-.017.746-.357.892-1.048.89-5.301-.027-10.602-.014-15.903-.014h-1.184zm-.048-5.687h9.809c.368 0 .448-.138.469-.484.126-2.08-1.588-4.342-3.636-4.763-3.372-.687-6.271 1.573-6.642 5.247zM.267 31.407c0-5.896.023-11.792-.025-17.686 0-.907.262-1.08 1.104-1.047 2.195.06 4.398.065 6.593 0 .86-.025 1.025.255 1.023 1.047-.023 9.216 0 18.419-.038 27.626 0 1.096.306 1.303 1.328 1.288 4.327-.058 8.654 0 12.986-.046.837 0 1.047.243 1.026 1.048-.059 1.916-.04 3.837 0 5.753 0 .61-.122.838-.802.838-7.468-.025-14.938-.025-22.411 0-.807 0-.794-.356-.794-.932.012-5.965.012-11.93 0-17.893l.01.004zm35.387 6.225c0 3.868-.02 7.735.016 11.6 0 .736-.104 1.025-.942 1.002-2.333-.069-4.67-.042-7.004-.01-.597 0-.773-.174-.77-.767.016-7.942.016-15.885 0-23.827 0-.586.152-.77.751-.762 2.369.033 4.74.04 7.109 0 .678-.013.865.167.858.854-.033 3.967-.018 7.938-.018 11.91zm-4.202-16.239c-3.6 0-5.827-2.809-4.818-5.798.42-1.235 1.295-2.031 2.474-2.513 2.371-.974 5.148-.21 6.378 1.544 1.698 2.421.358 6.266-3.31 6.73-.293.035-.609.033-.724.037z" fill="#fff"/><path d="M192.308 28.456c.736-.817 1.226-1.535 1.885-2.095 5.461-4.595 14.216-1.48 15.669 5.59a19.44 19.44 0 01.4 3.938c0 4.464-.018 8.927.013 13.39 0 .719-.174.962-.924.947a167.652 167.652 0 00-6.912 0c-.754.017-.927-.233-.921-.949.031-4.254.019-8.508.01-12.764a9.098 9.098 0 00-.113-1.767c-.559-2.776-2.243-4.028-4.974-3.756-2.323.23-4.12 2.304-4.135 4.864-.029 4.43-.033 8.86.013 13.287 0 .867-.21 1.114-1.094 1.09a129.99 129.99 0 00-6.702 0c-.706.014-.865-.21-.863-.887.021-7.882.021-15.764 0-23.645 0-.655.182-.819.819-.808 2.338.038 4.675.038 7.012 0 .643 0 .861.16.815.813-.035.827.002 1.665.002 2.752zM179.53 37.69c0 3.871-.019 7.75.016 11.61 0 .733-.19.94-.925.926a150.145 150.145 0 00-6.801 0c-.815.02-.978-.254-.976-1.012.025-7.774.025-15.55 0-23.324 0-.729.107-1.047.949-1.014 2.304.065 4.607.053 6.911 0 .715-.014.851.229.838.884-.033 3.99-.012 7.955-.012 11.93zm-4.433-16.33c-3.395 0-5.63-2.845-4.556-5.815.3-.903.93-1.66 1.764-2.117a5.913 5.913 0 015.236-.315 4.088 4.088 0 012.543 4.355c-.348 2.195-1.971 3.724-4.141 3.89-.289.014-.568.002-.846.002z" fill="#FDFDFD"/></svg>