<svg width="202" height="41" fill="none" xmlns="http://www.w3.org/2000/svg"><path d="M8.185 12.62c0 6.116 0 12.232.01 18.348a4.732 4.732 0 001.057 2.929c1.487 1.923 2.935 3.87 4.508 5.967H.676c.421-1.077 1.26-1.862 1.915-2.754 4.176-5.681 3.412-3.604 3.43-10.398.026-5.611.022-11.224.043-16.835a4.193 4.193 0 00-.915-2.68C4.034 5.75 2.932 4.283 1.819 2.833c.319-.454.719-.26 1.047-.261 3.405-.017 6.811.026 10.217-.035.966-.017 1.433.271 1.84 1.176 3.06 6.835 6.186 13.64 9.302 20.452.19.406.25.894.762 1.205l5.848-14.58a1567.72 1567.72 0 002.934-7.292c.191-.461.26-.953.97-.953 3.852.025 7.702.012 11.931.012-1.273 1.427-2.287 2.632-3.384 3.77a2.782 2.782 0 00-.807 2.096c.023 8.742.023 17.483 0 26.223 0 .97.328 1.627 1.003 2.274.962.922 1.824 1.947 2.718 2.917H29.237c.896-.97 1.864-2.048 2.87-3.09.393-.407.763-.776.763-1.398 0-7.814 0-15.628-.23-23.503l-11.556 28.78L8.437 12.6l-.252.02zm177.221 27.4h-11.005c-.863 0-.648-.6-.644-1.055.037-3.812.09-7.634.134-11.449.026-2.298.112-4.607-.53-6.85-.416-1.446-1.144-2.637-2.8-2.87-1.702-.238-3.034.457-4.138 1.715-.413.471-.367 1.016-.367 1.563 0 4.786.04 9.57-.029 14.353-.015 1.174.311 2.02 1.214 2.735.631.5 1.176 1.106 2.041 1.933-2.887 0-5.393.032-7.896-.015-1.319-.025-3.074.594-3.831-.265-.65-.738-.215-2.451-.217-3.732 0-5.659-.051-11.317.029-16.976.021-1.446-.294-2.577-1.399-3.524-.612-.522-1.113-1.176-1.851-1.972h11.298c.606 0 .652.322.648.785-.015 1.231 0 2.462.105 3.781 1.893-3.268 4.574-5.081 8.386-4.99 3.922.098 6.242 2.257 7.465 6.025.381-.677.631-1.159.913-1.62a9.161 9.161 0 019.871-4.193c3.097.68 4.717 2.838 5.595 5.693.713 2.32.713 4.717.683 7.11-.038 3.083-.042 6.164-.153 9.242-.034 1.009.176 1.767.989 2.396.721.555 1.369 1.206 2.047 1.816l-.141.32h-6.649c-1.334 0-2.669-.024-4.003.012-.653.017-.989-.08-.974-.877.082-3.954.101-7.91.145-11.864.023-2.115.071-4.236-.449-6.308-.382-1.487-1.037-2.815-2.734-3.122-1.825-.33-3.339.337-4.574 1.679a1.071 1.071 0 00-.299 1.003c.814 4.156.393 8.353.191 12.514-.143 2.898.381 5.208 3.122 6.706l-.193.301zM102.287 1.785c.021 4.364.053 8.73.059 13.095.011 6.67.042 13.341-.029 19.998-.015 1.361.309 2.386 1.376 3.214a5.653 5.653 0 011.605 1.877h-3.353c-2.391 0-4.783-.048-7.173.025-.953.026-1.193-.279-1.129-1.165a16.9 16.9 0 00-.093-3c-1.351 2.18-3.09 3.776-5.6 4.357-4.152.965-8.431-.793-10.413-4.66-2.836-5.538-2.939-11.264 0-16.802 2.083-3.94 5.624-5.68 10.055-5.527 2.59.09 4.496 1.416 6.078 3.96v-6.245a8.507 8.507 0 010-1.102c.381-2.727-.166-5.08-2.641-6.682-.136-.087-.206-.272-.443-.6l9.576-1.014c.651.577 1.416.2 2.125.27zM93.662 26.15c0-2.432-.03-4.864.018-7.296.017-.792-.296-1.282-.904-1.715-2.146-1.51-4.926-.888-6.415 1.506-1.57 2.527-1.715 5.38-1.706 8.235.01 2.487.19 4.973 1.495 7.19 1.469 2.49 4.4 3.012 6.613 1.236.606-.488.938-1.03.919-1.868-.056-2.424-.02-4.856-.02-7.288zM132.2 40.228c-2.373-.19-4.002-1.488-5.111-3.491-1.167-2.106-1.508-4.426-1.525-6.791-.011-3.677-.025-7.357.095-11.031.05-1.447-.217-2.606-1.418-3.482-.585-.427-1.128-.913-1.69-1.373l.219-.444h3.208c2.391 0 4.783.044 7.175-.022.923-.025 1.144.26 1.144 1.156-.017 5.194.015 10.39.063 15.583.011 1.385.221 2.756.874 4.002.728 1.393 1.95 1.906 3.467 1.525 1.822-.469 2.947-1.647 2.949-3.133 0-4.874-.052-9.747.036-14.618.025-1.405-.928-2.026-1.681-2.836-.423-.456-1.022-.751-1.542-1.12l.313-.539h2.668c2.477 0 4.972.088 7.45-.036 1.334-.068 1.547.418 1.538 1.61-.055 6.528.015 13.058-.059 19.584-.017 1.454.272 2.575 1.475 3.447.572.418 1.043.986 1.828 1.746h-7.736c-.191 0-.368.012-.551 0-1.224-.082-2.849.528-3.556-.257-.605-.67-.191-2.262-.214-3.448v-1.307c-1.624 2.958-3.64 4.978-6.888 5.294-.834-.545-1.683-.524-2.531-.019zM64.828 13.685c4.206.852 7.082 3.94 7.697 8.289.09.636.142 1.278.159 1.92.046 1.924.036 1.924-1.847 1.924-4.23 0-8.46.045-12.69-.03-1.172-.022-1.452.38-1.261 1.415.091.498.114 1.007.208 1.502.556 2.922 1.83 5.346 4.877 6.276 3.137.953 5.998.32 8.454-1.894.5-.45.936-.967 1.43-1.485.38.572.099 1.02-.061 1.468-1.624 4.543-5.25 7.166-10.143 7.335-8.413.294-13.76-4.858-13.791-13.272-.018-4.304.97-8.213 4.438-11.11a10.248 10.248 0 015.327-2.395c.395.476.683.442.852-.174l.81-.091a4.432 4.432 0 003.621 0l.812.091c.231.72.646.604 1.108.23zm-4.262 10.72h3.164c.421 0 .854.046.839-.59-.063-2.606.066-5.25-1.01-7.708-1.001-2.287-3.58-2.517-5.06-.503a6.364 6.364 0 00-.923 1.982 18.952 18.952 0 00-.707 4.744c-.107 2.562-.258 2.02 1.906 2.076.602.02 1.197 0 1.791 0zm61.368 15.56c-3.97 0-7.624-.01-11.281 0-.782 0-.587-.532-.589-.953-.008-3.127-.008-6.254 0-9.382 0-3.587-.059-7.176.028-10.761.033-1.351-.265-2.426-1.334-3.272-.636-.505-1.248-1.04-1.871-1.561l.263-.433h8.611c2.992 0 2.992 0 2.992 2.967 0 6.116.051 12.234-.036 18.348-.021 1.476.331 2.566 1.513 3.431.537.41.979.928 1.704 1.616zM114.379.984c2.788-.027 4.707 1.794 4.747 4.502a4.74 4.74 0 01-2.857 4.49 4.743 4.743 0 01-3.668.048 4.754 4.754 0 01-2.972-4.416c-.036-2.76 1.851-4.595 4.75-4.624z" fill="#fff"/><path d="M62.91 13.372a4.434 4.434 0 01-3.62 0 8.056 8.056 0 013.62 0zm69.289 26.856c.848-.505 1.691-.526 2.531.02a4.13 4.13 0 01-2.531-.02zm-29.91-38.443c-.709-.071-1.473.306-2.117-.271.585-.092 1.168-.21 1.757-.269.381-.038.442.223.36.54zm-37.463 11.9c-.461.381-.87.49-1.103-.23.383-.055.773.027 1.103.23zm-6.349-.231c-.17.616-.457.65-.852.174a.965.965 0 01.852-.174z" fill="#fff"/></svg>