<svg width="226" height="52" fill="none" xmlns="http://www.w3.org/2000/svg"><path d="M122.71.603c2.766 0 5.486-.092 8.184.033 1.803.081 2.903 1.344 3.102 3.144.06.54.09 1.083.09 1.626v27.21c0 .982.067 1.05 1.053 1.05h2.21v6.955c-.153.013-.312.04-.472.04h-6.521a6.265 6.265 0 01-1.008-.07c-1.508-.255-2.541-1.04-2.847-2.714-.19.172-.321.286-.444.407-1.966 1.96-4.37 2.912-7.107 3.03-3.902.17-7.273-1.042-9.894-4.012-1.964-2.227-3.015-4.895-3.457-7.8-.525-3.406-.366-6.776.879-10.017 1.678-4.357 4.648-7.366 9.323-8.344 3.117-.646 6.153-.364 8.966 1.28.414.24.79.542 1.269.874V8.406c0-.68-.134-.812-.827-.818h-2.499V.603zm3.476 25.642a10.39 10.39 0 00-.818-4.471c-1.01-2.268-2.658-3.683-5.238-3.767-2.545-.082-4.456 1.062-5.541 3.306-1.572 3.254-1.527 6.603.069 9.849 1.018 2.074 2.799 3.138 5.121 3.144 2.251 0 4.008-.975 5.169-2.92.967-1.607 1.23-3.394 1.238-5.141zm-81.315-7.656v-7.023c.143-.025.286-.042.43-.05 2.193 0 4.388-.034 6.58.024a6.4 6.4 0 012.063.443c.97.367 1.45 1.191 1.652 2.251.098-.067.192-.139.283-.215 2.584-2.561 5.756-3.427 9.271-3.104 5.554.515 9.046 3.713 10.768 8.843 1.523 4.55 1.47 9.168-.43 13.624-1.803 4.224-4.94 6.957-9.554 7.754-3.42.588-6.601.012-9.355-2.251-.082-.067-.175-.123-.343-.241v12.995h-8.012V19.612c0-.987-.034-1.021-1.003-1.023h-2.35zm23.936 6.97a9.524 9.524 0 00-.909-3.92c-1.027-2.154-2.647-3.507-5.113-3.623-2.427-.116-4.382.836-5.496 2.991-1.744 3.375-1.755 6.875.028 10.239 2.25 4.25 7.822 3.866 10.11.29 1.055-1.638 1.378-3.454 1.38-5.978zM11.52 38.61v13.025H3.55V19.603c0-.967-.043-1.008-1.016-1.01H.21v-7.032c.122-.023.245-.038.368-.045h6.638c.43.006.859.06 1.277.162 1.34.323 1.884.887 2.468 2.487.045-.015.108-.017.138-.05 1.966-2.048 4.417-3.058 7.206-3.23 3.976-.258 7.445.911 10.155 3.928 1.938 2.154 2.998 4.738 3.465 7.558.62 3.75.448 7.447-1.077 10.973-1.843 4.231-4.953 6.992-9.595 7.79-3.396.583-6.564 0-9.312-2.227-.101-.078-.211-.147-.422-.298zm-.123-12.492a10.31 10.31 0 001.111 4.932c2.303 4.46 7.948 4.075 10.237.495 1.87-2.914 1.863-7.994-.06-10.867-2.57-3.838-8.077-3.54-10.226.555-.803 1.53-1.049 3.186-1.062 4.887v-.002z" fill="#fff"/><path d="M85.722 27.869c.274 2.897 2.64 5.492 5.538 6.147 3.051.689 5.778-.155 8.304-1.837.588-.39 1.12-.862 1.712-1.325l1.79 2.979c.472.786.922 1.587 1.417 2.358.215.338.183.538-.114.803a16.329 16.329 0 01-7.348 3.812c-5.311 1.202-10.258.43-14.536-3.131-3.04-2.533-4.621-5.895-5.02-9.795-.372-3.662.216-7.15 2.132-10.323 2.404-3.95 5.996-6.067 10.553-6.605 2.5-.297 4.954-.073 7.267.95 3.982 1.76 6.177 4.953 7.107 9.099.48 2.126.416 4.277.215 6.43-.045.5-.359.432-.672.432H85.722v.006zm10.894-6.015c-.332-3.177-2.884-4.999-6.007-4.353-2.313.476-4.234 2.305-4.568 4.353h10.575zm125.248 8.966c1.167 1.96 2.304 3.876 3.461 5.814-.961.979-2.069 1.8-3.285 2.434-5.492 2.903-11.08 3.209-16.605.235-4.307-2.316-6.657-6.106-7.296-10.917-.543-4.107.12-8.01 2.487-11.488 2.423-3.562 5.884-5.447 10.123-5.94 2.681-.312 5.287-.034 7.727 1.163 3.674 1.805 5.724 4.874 6.629 8.783.504 2.181.431 4.387.23 6.599-.034.353-.228.37-.491.37h-18.551a7.097 7.097 0 001.318 3.304c1.854 2.515 4.432 3.338 7.426 3 2.476-.282 4.595-1.402 6.461-3.041.09-.086.191-.17.366-.317zm-15.229-8.966h10.575c-.311-2.968-2.585-4.738-5.492-4.42-2.169.24-4.435 1.706-5.083 4.42zm-37.373-3.265v-7.073c.62 0 1.212-.01 1.807 0 1.328.028 2.662 0 3.982.116 1.594.136 2.64 1.077 3.2 2.546.588 1.538 1.124 3.095 1.674 4.645 1.276 3.59 2.55 7.188 3.82 10.795.138.383.246.777.375 1.19.062-.049.127-.073.142-.114 1.307-3.762 2.604-7.537 3.915-11.291a482.61 482.61 0 011.816-5.072c.646-1.762 1.938-2.692 3.773-2.78 1.644-.08 3.293-.018 4.984-.018v7.056h-.952c-.862 0-1.03.112-1.331.91-1.241 3.293-2.48 6.584-3.717 9.873-1.359 3.605-2.725 7.21-4.066 10.825a.607.607 0 01-.683.473 503.816 503.816 0 00-7.872 0c-.497 0-.711-.15-.881-.605a4827.81 4827.81 0 00-6.87-18.282c-.297-.789-.616-1.568-.885-2.37-.205-.603-.573-.887-1.215-.837-.318.034-.637.013-1.016.013zm-22.018 22.038h-8.01V19.401c-.015-.722-.105-.817-.816-.819h-2.516v-7.066h6.815c.486 0 .972.042 1.451.127 1.594.3 2.585 1.365 2.778 2.968.054.43.082.88.13 1.421 2.423-3.568 5.578-5.431 9.967-4.738v7.975c-.711-.04-1.396-.112-2.081-.114-3.568-.015-6.504 2.292-7.212 5.8a26.599 26.599 0 00-.487 4.676c-.071 3.428-.022 6.859-.022 10.288l.003.708zm-100.88-6.961v6.912c-.06.032-.09.064-.123.064-2.584 0-5.169.054-7.753-.023-2.078-.063-3.282-1.394-3.433-3.571-.024-.356-.02-.71-.02-1.077V19.603c0-.963-.066-1.027-1.007-1.03h-2.333v-7.057h7.112a6.871 6.871 0 011.507.16c1.712.404 2.658 1.707 2.697 3.725.03 1.706.01 3.412.01 5.117v12.145c0 .885.115.997 1.006.997l2.337.007zM157.89 11.62c2.584 0 5.104-.106 7.62.038 1.662.095 2.67 1.293 2.899 2.953.069.52.105 1.043.105 1.568v16.413c0 1.008.069 1.077 1.092 1.077h2.259v6.946a3.593 3.593 0 01-.43.051h-6.914a5.393 5.393 0 01-.95-.075c-1.871-.34-2.877-1.467-3.015-3.369-.03-.43-.038-.861-.038-1.292V19.685c0-1.032-.052-1.077-1.077-1.077h-1.566l.015-6.989zm10.032-3.55h-7.047V.532h7.045l.002 7.538zM35.383 8.049V.552h7.04v7.497h-7.04z" fill="#fff"/></svg>