<svg width="187" height="54" fill="none" xmlns="http://www.w3.org/2000/svg"><path d="M155.826 44.234c-2.199.114-4.453-.491-6.502-1.746-.995-.607-1.797-.61-2.562.27-1.658 1.91-4.094 3.157-4.047 6.37.03 1.986-2.197 3.11-4.554 2.952a4.039 4.039 0 01-3.806-3.48c-.369-2.473.646-4.706 2.989-4.909 3.089-.266 4.654-2.25 6.516-4.14.772-.781.883-1.413.371-2.351-2.309-4.279-2.205-8.607-.104-12.926.404-.83.261-1.344-.491-1.923-4.82-3.713-9.617-7.455-14.392-11.226-.784-.615-1.602-.64-2.54-.46-3.48.66-6.317-1.347-6.728-4.7-.334-2.736 2.116-5.606 4.983-5.841 3.067-.251 5.707 2.12 5.798 5.428.031 1.212.529 1.915 1.391 2.577 4.662 3.583 9.322 7.168 13.943 10.79.98.768 1.766 1.114 2.918.24.806-.617 1.807-1.177 2.788-1.325 2.029-.31 2.273-1.49 2.222-3.217-.057-1.872-.064-3.485-1.692-4.98-1.806-1.66-1.35-4.846.466-6.535a4.835 4.835 0 016.612-.02c1.991 1.871 2.432 4.895.436 6.655-2.215 1.943-1.505 4.24-1.544 6.48-.026 1.414 1.431 1.303 2.327 1.638 4.619 1.726 7.65 4.899 8.772 9.716 2.033 8.714-4.392 16.696-13.57 16.663zm.311-20.435c-3.791.016-6.994 3.258-6.969 7.054.025 3.639 3.116 6.654 6.849 6.677 3.976.025 7.039-2.984 7.03-6.905-.01-3.754-3.135-6.84-6.91-6.826z" fill="#FB7555"/><path d="M.273 26.468c-.002-5.323.03-10.64-.027-15.972-.012-1.236.295-1.651 1.61-1.669 4.98-.065 4.98-.12 4.978 4.932 0 2.766.044 5.532-.018 8.302-.028 1.184.23 1.738 1.59 1.703 3.457-.086 6.917-.081 10.376 0 1.325.03 1.618-.487 1.59-1.697-.06-3.735.042-7.469-.043-11.201-.035-1.472.28-2.067 1.926-2.04 4.736.077 4.737 0 4.737 4.769 0 9.61-.042 19.222.036 28.832.012 1.63-.42 2.109-2.062 2.088-4.607-.062-4.607.012-4.605-4.503 0-2.765-.069-5.533.032-8.302.05-1.392-.447-1.732-1.767-1.7-3.388.087-6.778.087-10.17 0-1.262-.032-1.677.33-1.649 1.615.076 3.663-.037 7.33.06 10.992.039 1.46-.411 1.882-1.867 1.878-4.724-.017-4.724.04-4.724-4.752 0-4.424 0-8.849-.003-13.275zm63.743-6.173c6.414-3.563 11.934-3.058 16.267 1.337 4.169 4.24 5.015 10.827 2.063 16.09-2.681 4.784-8.745 7.612-14.131 6.59-5.446-1.036-9.624-5.337-10.193-11.094-.756-7.642-.176-15.327-.305-22.992-.016-.922.381-1.226 1.236-1.205 1.175.03 2.355.071 3.524 0 1.17-.07 1.58.341 1.555 1.53-.065 3.167-.016 6.336-.016 9.744zm.26 10.79c-.073 3.81 3.086 7.102 6.862 7.157 3.69.055 6.89-3.093 6.956-6.83a6.96 6.96 0 00-6.84-7.125c-3.705-.051-6.913 3.074-6.984 6.797h.006zm53.978 10.532c0 2.975.011 5.637 0 8.303 0 2.044-.903 2.923-3.003 2.992-.353.01-.706-.047-1.035.013-1.766.31-2.333-.281-2.296-2.171.143-6.702 0-13.41.109-20.113.106-6.457 4.052-11.448 9.942-12.862 5.476-1.314 12.012 1.712 14.781 6.833 2.866 5.308 1.749 11.9-2.706 16.158-4.345 4.15-11.397 4.432-14.856 1.443a9.362 9.362 0 00-.936-.596zm.223-10.169c-.373 2.22 3.089 6.163 6.479 6.283 3.784.135 7.223-2.826 7.398-6.597a7.006 7.006 0 00-6.486-7.283c-4.399-.295-7.904 3.603-7.391 7.604v-.007zM97.755 8.827c3.488.05 6.369 1.182 8.857 3.386.883.776 1.137 1.43.176 2.378-1.024 1.021-1.713 2.593-2.913 3.167-1.335.638-2.174-1.236-3.368-1.79-3.219-1.522-6.24-.596-6.9 2.28-.353 1.56.147 2.708 1.496 3.513 1.26.753 2.68 1.094 4.045 1.58a36.477 36.477 0 014.026 1.62c3.441 1.716 4.54 4.77 4.741 8.38.278 4.938-1.59 8.612-6.359 10.27-5.048 1.753-9.703 1.072-13.858-2.691-1.657-1.5-1.632-2.397 0-3.63.382-.3.72-.65 1.007-1.042 1.168-1.55 2.173-1.943 3.56-.07 1.316 1.767 4.416 2.386 6.394 1.56 1.424-.591 2.459-1.607 2.584-3.216.133-1.687-.706-2.975-2.186-3.657-2.193-1.01-4.51-1.748-6.699-2.766-6.098-2.826-7.795-10.245-3.515-15.47 2.317-2.825 5.555-3.705 8.912-3.802zm-66.91 17.748c0-2.49.039-4.98-.02-7.467-.024-1.06.315-1.413 1.414-1.48 4.806-.281 4.804-.318 4.804 4.523 0 3.32-.023 6.639 0 9.958.034 3.663 2.185 6.128 5.32 6.16 3.1.033 5.3-2.474 5.31-6.1.015-4.285.045-8.574-.019-12.86-.019-1.236.299-1.664 1.606-1.687 4.74-.08 4.743-.13 4.73 4.593-.01 3.734.066 7.47-.074 11.2-.234 6.297-5.445 11.206-11.61 11.105-6.428-.111-11.37-5.073-11.443-11.516-.025-2.142 0-4.285 0-6.43h-.018zm148.981-14.879c0 1.824.086 3.533-.027 5.235-.095 1.414.442 1.898 1.781 1.707a7.15 7.15 0 011.035 0c2.973.021 2.826.032 3.022 2.893.154 2.175-.507 2.812-2.681 2.68-3.123-.19-3.132-.037-3.134 3.153 0 2.141-.012 4.284 0 6.425.023 3.667 1.186 4.954 4.816 4.856 1.84-.052 2.033.5 1.589 2.095-1.095 3.972-1.589 4.341-5.71 3.607-4.464-.797-6.944-3.64-6.973-8.16-.042-6.77.02-13.543-.044-20.314-.01-1.236.394-1.9 1.548-2.277 1.561-.503 2.918-1.535 4.778-1.9z" fill="#FCFCFC"/></svg>