<svg>
    <defs>
        <symbol id="icon-Portgroup-logo-1" viewBox="0 0 192 47">
            <path
                d="M174.321 47.002l-1.527-0.424-0.019-0.25 3.187-0.79-0.030-0.21-4.483-0.559 2.926-1.826-3.83-0.557 1.964-2.069-4.106-0.291-0.015-0.26 1.349-0.657c-1.776-0.463-3.381-1.409-5.218-0.456l1.056 0.589-1.734 0.838 2.686 0.4-3.072 1.262v-0.971l-2.637-0.358v-0.21l1.266-0.715-2.658-0.594-0.032-0.301 3.261-0.493c-0.517-0.158-0.921-0.219-1.267-0.402-0.458-0.238-0.873-0.564-1.309-0.853 0.309-0.247 0.619-0.492 0.924-0.743 0.048-0.039 0.070-0.11 0.241-0.388h-4.136l-0.013-0.3 1.612-0.738-2.211-0.696-0.037-0.249 2.351-0.449c-0.519-0.195-0.911-0.267-1.206-0.478-0.209-0.149-0.288-0.484-0.492-0.862l-1.376-0.374v-1.852l-2.434-0.388-0.109-0.297 1.617-0.63-2.852-2.236 2.738-0.58-0.005-0.093h-4.363c0.545-1.035 1.994-1.371 4.83-1.146l-0.734 0.548c1.158 0.383 2.458-0.263 3.804 0.531l-1.973 0.607c0.386 0.447 0.725 0.986 1.2 1.346 0.451 0.347 1.040 0.515 1.8 0.87l-1.977 0.495-0.068 0.236 2.618 0.56c-0.191 0.591-0.381 1.173-0.577 1.78l2.228 0.11c-0.218 0.438-0.342 0.698-0.506 1.033l2.13 0.739-0.006 0.24-2.438 0.151-0.076 0.164c0.239 0.097 0.483 0.186 0.716 0.296s0.463 0.241 0.86 0.45l-1.213 0.686 0.049 0.187 3.725-1.096-0.775-0.399v-0.238l3.081-0.445-0.885-0.722 1.943-1.052-2.063-0.358-0.063-0.237 3.659-1.307-2.215-0.352-0.046-0.234c0.497-0.219 0.999-0.438 1.49-0.676 0.287-0.138 0.721-0.254 0.804-0.483 0.526-1.455 1.752-1.716 3.041-1.999l-3.323-0.463c1.821-1.205 3.824-0.953 5.85-0.811l-1.452 0.457 0.035 0.173 3.173 0.789-0.048 0.213c-0.836 0.197-1.68 0.364-2.5 0.61-0.273 0.081-0.636 0.329-0.698 0.566-0.248 0.939-0.858 1.281-1.745 1.36-0.218 0.019-0.422 0.253-0.664 0.409l2.765 0.405 0.045 0.181-3.775 0.973-0.014 0.251 2.25 0.347 0.046 0.152-2.443 0.917-0.18 0.422 0.914 0.505-1.297 0.344-0.188 1.136 4.327 0.73v0.174l-1.653 0.689c0.481 1.169 1.567 1.219 2.465 1.753l-2.107 0.438 0.913 0.329-0.427 0.877c0.633 0.078 1.613 0.364 1.708 0.183 0.61-1.17 2.072-0.491 2.823-1.466 0.262-0.34 0.772-0.689 1.031-1.132 0.474-0.811 1.071-1.323 2.060-1.326 0.293 0 0.587-0.209 1.030-0.381l-3.502-0.905-0.028-0.244 3.134-0.468-0.957-0.749 3.798-1.578-3.347-0.632 0.017-0.306 4.363-0.525c0-0.065 0.007-0.13 0.012-0.196l-3.163-0.714-0.043-0.291 3.49-0.588-1.495-0.447 0.020-0.342 3.72-0.739c-0.421-0.396-1.499-0.172-1.060-1.27l-1.717-0.518c2.334-1.096 4.748-0.714 7.125-0.773 0.007 0.081 0.016 0.162 0.024 0.243l-2.68 0.298-0.069 0.182 1.171 0.593c-0.089 0.308-0.168 0.58-0.264 0.908l1.637 0.657-0.031 0.29-4.010 0.318c0 0.083 0 0.168 0 0.251l2.117 0.447 0.006 0.263-3.817 0.478 3.381 1.020c0 0.083 0 0.167 0 0.25l-4.62 0.476 3.899 1.035-5.268 1.403 2.501 0.593-0.036 0.21-2.646 0.383-0.069 0.219 2.509 1.032 0.062 0.314c-1.943-0.294-3.21 0.834-4.557 1.972l1.165 0.455c0 0.082 0.008 0.165 0.012 0.248l-3.631 0.64 3.734 0.897-0.027 0.185-5.293 1.63 3.529 0.943-0.016 0.219-4.932 0.998c-0.016 0.094-0.034 0.19-0.050 0.284l3.305 0.646 0.043 0.288-4.831 0.778 1.067 0.657h-0.973z">
            </path>
            <path
                d="M175.281 5.648c-1.896 2.739-3.719 5.359-5.5 7.998-0.154 0.228-0.163 0.735-0.013 0.961 1.5 2.259 3.045 4.492 4.587 6.719 0.315 0.458 0.67 0.889 1.060 1.403h-3.963l-8.183-11.883c-0.515 0.698-1.046 1.386-1.543 2.099-1.883 2.701-3.902 5.323-5.573 8.15-0.872 1.487-1.871 1.899-3.395 1.703-0.461-0.059-0.937-0.009-1.645-0.009l12.136-17.641c1.445 2.121 2.788 4.097 4.197 6.168l7.799-11.318 15.797 22.89c-1.347 0-2.518 0.126-3.638-0.060-0.471-0.078-0.894-0.775-1.233-1.263-1.515-2.177-2.99-4.383-4.482-6.574-0.938-1.378-1.869-2.762-2.836-4.12z">
            </path>
            <path
                d="M0 8.586h7.626c1.66 0 2.904 0.397 3.731 1.191s1.241 1.923 1.24 3.387c0 1.507-0.45 2.684-1.351 3.53s-2.277 1.271-4.127 1.274h-2.509v5.534h-4.61v-14.916zM4.608 14.941h1.123c0.885 0 1.506-0.154 1.864-0.462 0.173-0.144 0.311-0.326 0.404-0.531s0.138-0.429 0.133-0.655c0.005-0.219-0.034-0.438-0.114-0.642s-0.199-0.391-0.352-0.548c-0.312-0.327-0.896-0.49-1.753-0.49h-1.309l0.003 3.327z">
            </path>
            <path
                d="M14.422 16.053c0-2.434 0.675-4.33 2.025-5.686s3.23-2.035 5.64-2.035c2.472 0 4.376 0.666 5.712 1.999s2.004 3.2 2.006 5.6c0 1.743-0.291 3.172-0.873 4.288-0.57 1.101-1.453 2.007-2.537 2.603-1.104 0.621-2.479 0.931-4.126 0.931-1.672 0-3.058-0.268-4.158-0.803s-1.988-1.383-2.667-2.544c-0.683-1.159-1.024-2.611-1.023-4.354zM19.009 16.074c0 1.505 0.278 2.587 0.835 3.245s1.315 0.987 2.273 0.986c0.986 0 1.75-0.322 2.291-0.966s0.811-1.801 0.809-3.469c0-1.404-0.282-2.43-0.845-3.078s-1.327-0.971-2.29-0.971c-0.925 0-1.668 0.329-2.228 0.986s-0.842 1.746-0.844 3.266z">
            </path>
            <path
                d="M32.336 23.5v-14.914h7.646c1.418 0 2.501 0.122 3.25 0.366 0.739 0.236 1.378 0.714 1.814 1.359 0.459 0.662 0.689 1.465 0.689 2.41 0 0.827-0.176 1.541-0.527 2.142-0.353 0.603-0.852 1.105-1.451 1.462-0.391 0.237-0.928 0.434-1.611 0.59 0.546 0.183 0.944 0.366 1.194 0.548 0.274 0.232 0.52 0.495 0.734 0.784 0.243 0.288 0.458 0.598 0.642 0.927l2.222 4.321h-5.184l-2.452-4.558c-0.311-0.59-0.588-0.973-0.831-1.149-0.329-0.23-0.722-0.351-1.123-0.346h-0.406v6.053l-4.607 0.004zM36.943 14.625h1.935c0.209 0 0.614-0.068 1.215-0.203 0.298-0.057 0.563-0.224 0.745-0.468 0.191-0.247 0.293-0.553 0.288-0.866 0-0.481-0.152-0.851-0.456-1.109s-0.874-0.386-1.711-0.386h-2.016v3.030z">
            </path>
            <path d="M47.18 8.586h13.946v3.685h-4.679v11.229h-4.588v-11.229h-4.679v-3.685z"></path>
            <path
                d="M77.585 18.098v-3.103h7.090v6.355c-1.357 0.929-2.557 1.561-3.599 1.896s-2.279 0.503-3.708 0.504c-1.763 0-3.199-0.302-4.309-0.905-1.117-0.61-2.019-1.552-2.583-2.696-0.611-1.193-0.916-2.563-0.916-4.11 0-1.628 0.334-3.044 1.002-4.247 0.667-1.201 1.695-2.16 2.937-2.739 1.006-0.481 2.359-0.721 4.061-0.722 1.64 0 2.867 0.149 3.681 0.448 0.784 0.278 1.482 0.756 2.025 1.388 0.537 0.627 0.94 1.422 1.211 2.385l-4.426 0.794c-0.154-0.524-0.48-0.98-0.926-1.293-0.436-0.298-0.992-0.447-1.667-0.447-1.006 0-1.807 0.351-2.405 1.053s-0.898 1.814-0.901 3.335c0 1.614 0.302 2.767 0.906 3.458s1.447 1.036 2.527 1.034c0.498 0.004 0.993-0.070 1.468-0.219 0.56-0.195 1.097-0.452 1.6-0.767v-1.403h-3.068z">
            </path>
            <path
                d="M87.457 23.5v-14.914h7.651c1.418 0 2.501 0.122 3.25 0.366 0.739 0.236 1.377 0.715 1.812 1.359 0.46 0.662 0.69 1.465 0.69 2.41 0 0.827-0.176 1.541-0.527 2.142-0.354 0.603-0.855 1.106-1.455 1.462-0.392 0.237-0.929 0.434-1.611 0.59 0.546 0.183 0.946 0.366 1.2 0.548 0.274 0.232 0.52 0.495 0.734 0.784 0.243 0.288 0.458 0.598 0.642 0.927l2.222 4.321h-5.19l-2.452-4.558c-0.311-0.59-0.588-0.973-0.831-1.149-0.329-0.23-0.722-0.351-1.123-0.346h-0.406v6.053l-4.607 0.004zM92.064 14.625h1.935c0.209 0 0.614-0.068 1.215-0.203 0.298-0.057 0.563-0.224 0.744-0.468 0.192-0.247 0.294-0.552 0.289-0.866 0-0.481-0.152-0.851-0.456-1.109s-0.874-0.386-1.711-0.386h-2.016v3.030z">
            </path>
            <path
                d="M102.598 16.053c0-2.434 0.675-4.33 2.025-5.686s3.23-2.035 5.64-2.035c2.472 0 4.376 0.666 5.712 1.999s2.004 3.2 2.005 5.6c0 1.743-0.291 3.172-0.873 4.288-0.569 1.1-1.45 2.006-2.531 2.603-1.104 0.621-2.48 0.931-4.127 0.931-1.673 0-3.058-0.268-4.157-0.803s-1.991-1.383-2.676-2.544c-0.679-1.159-1.018-2.611-1.018-4.354zM107.185 16.074c0 1.505 0.279 2.587 0.836 3.245s1.314 0.987 2.273 0.986c0.986 0 1.749-0.322 2.29-0.966s0.811-1.801 0.809-3.469c0-1.404-0.281-2.43-0.845-3.078-0.563-0.648-1.327-0.971-2.29-0.971-0.925 0-1.668 0.329-2.229 0.986-0.56 0.657-0.842 1.746-0.844 3.266z">
            </path>
            <path
                d="M130.114 8.586h4.581v8.885c0.004 0.849-0.134 1.693-0.411 2.496-0.268 0.774-0.708 1.476-1.287 2.053-0.515 0.541-1.143 0.962-1.837 1.235-0.892 0.332-1.962 0.499-3.21 0.499-0.791-0.004-1.58-0.055-2.365-0.152-0.854-0.101-1.568-0.303-2.142-0.605-0.602-0.324-1.136-0.761-1.575-1.286-0.444-0.497-0.779-1.082-0.982-1.718-0.283-0.95-0.425-1.79-0.425-2.52v-8.887h4.581v9.094c0 0.813 0.225 1.448 0.674 1.905s1.072 0.686 1.868 0.687c0.79 0 1.408-0.225 1.854-0.676s0.672-1.089 0.675-1.916l0.001-9.094z">
            </path>
            <path
                d="M137.707 8.586h7.625c1.662 0 2.906 0.397 3.732 1.191 0.827 0.794 1.241 1.923 1.241 3.387 0 1.507-0.451 2.684-1.353 3.53s-2.277 1.271-4.126 1.274h-2.509v5.534h-4.607l-0.003-14.916zM142.314 14.941h1.125c0.885 0 1.506-0.154 1.863-0.462 0.172-0.144 0.31-0.326 0.403-0.531s0.139-0.429 0.133-0.655c0.005-0.219-0.034-0.438-0.114-0.642s-0.199-0.391-0.352-0.548c-0.31-0.325-0.894-0.488-1.751-0.489h-1.309l0.002 3.326z">
            </path>
        </symbol>
    </defs>
</svg>