<svg>
<defs>
<symbol id="icon-portgroup-logo-1" viewBox="0 0 128 32">
<path d="M116.214 31.513l-1.018-0.283-0.013-0.167 2.125-0.527-0.020-0.14-2.989-0.373 1.951-1.218-2.553-0.371 1.309-1.379-2.737-0.194-0.010-0.173 0.899-0.438c-1.184-0.309-2.254-0.939-3.479-0.304l0.704 0.393-1.156 0.559 1.791 0.267-2.048 0.841v-0.647l-1.758-0.239v-0.14l0.844-0.477-1.772-0.396-0.021-0.201 2.174-0.329c-0.345-0.105-0.614-0.146-0.845-0.268-0.305-0.159-0.582-0.376-0.873-0.569 0.206-0.164 0.413-0.328 0.616-0.495 0.032-0.026 0.047-0.073 0.161-0.259h-2.757l-0.009-0.2 1.075-0.492-1.474-0.464-0.025-0.166 1.567-0.299c-0.346-0.13-0.607-0.178-0.804-0.318-0.139-0.099-0.192-0.323-0.328-0.575l-0.917-0.249v-1.234l-1.623-0.259-0.073-0.198 1.078-0.42-1.901-1.491 1.825-0.386-0.003-0.062h-2.909c0.363-0.69 1.329-0.914 3.22-0.764l-0.489 0.365c0.772 0.256 1.639-0.175 2.536 0.354l-1.315 0.405c0.257 0.298 0.483 0.657 0.8 0.897 0.301 0.232 0.693 0.343 1.2 0.58l-1.318 0.33-0.045 0.157 1.745 0.373c-0.127 0.394-0.254 0.782-0.385 1.187l1.485 0.073c-0.145 0.292-0.228 0.465-0.337 0.689l1.42 0.492-0.004 0.16-1.625 0.101-0.051 0.11c0.159 0.065 0.322 0.124 0.477 0.197s0.309 0.161 0.573 0.3l-0.809 0.457 0.033 0.125 2.483-0.73-0.517-0.266v-0.158l2.054-0.297-0.59-0.481 1.295-0.701-1.375-0.239-0.042-0.158 2.439-0.871-1.477-0.234-0.031-0.156c0.331-0.146 0.666-0.292 0.993-0.451 0.191-0.092 0.481-0.169 0.536-0.322 0.351-0.97 1.168-1.144 2.027-1.332l-2.215-0.309c1.214-0.803 2.549-0.635 3.9-0.54l-0.968 0.305 0.023 0.115 2.115 0.526-0.032 0.142c-0.557 0.131-1.12 0.242-1.667 0.407-0.182 0.054-0.424 0.219-0.465 0.378-0.165 0.626-0.572 0.854-1.163 0.906-0.145 0.012-0.281 0.169-0.443 0.272l1.843 0.27 0.030 0.121-2.517 0.649-0.009 0.167 1.5 0.232 0.031 0.102-1.629 0.611-0.12 0.281 0.609 0.337-0.865 0.229-0.125 0.757 2.885 0.486v0.116l-1.102 0.459c0.321 0.779 1.045 0.813 1.643 1.169l-1.405 0.292 0.609 0.219-0.285 0.584c0.422 0.052 1.075 0.242 1.139 0.122 0.407-0.78 1.381-0.327 1.882-0.977 0.175-0.226 0.515-0.459 0.687-0.755 0.316-0.541 0.714-0.882 1.373-0.884 0.195 0 0.391-0.14 0.687-0.254l-2.335-0.603-0.019-0.163 2.089-0.312-0.638-0.5 2.532-1.052-2.231-0.421 0.011-0.204 2.909-0.35c0-0.043 0.005-0.087 0.008-0.131l-2.109-0.476-0.029-0.194 2.327-0.392-0.997-0.298 0.013-0.228 2.48-0.492c-0.281-0.264-0.999-0.115-0.707-0.847l-1.145-0.346c1.556-0.73 3.165-0.476 4.75-0.516 0.005 0.054 0.011 0.108 0.016 0.162l-1.787 0.199-0.046 0.121 0.781 0.395c-0.059 0.205-0.112 0.386-0.176 0.605l1.091 0.438-0.021 0.194-2.673 0.212c0 0.055 0 0.112 0 0.167l1.411 0.298 0.004 0.175-2.545 0.318 2.254 0.68c0 0.056 0 0.111 0 0.167l-3.080 0.317 2.599 0.69-3.512 0.936 1.667 0.395-0.024 0.14-1.764 0.256-0.046 0.146 1.673 0.688 0.041 0.21c-1.295-0.196-2.14 0.556-3.038 1.315l0.777 0.303c0 0.055 0.005 0.11 0.008 0.165l-2.421 0.427 2.489 0.598-0.018 0.123-3.529 1.087 2.353 0.629-0.011 0.146-3.288 0.665c-0.011 0.063-0.023 0.126-0.033 0.189l2.203 0.431 0.029 0.192-3.221 0.519 0.711 0.438h-0.649z"></path>
<path d="M116.854 3.943c-1.264 1.826-2.479 3.572-3.667 5.332-0.103 0.152-0.109 0.49-0.009 0.641 1 1.506 2.030 2.995 3.058 4.48 0.21 0.305 0.447 0.592 0.707 0.936h-2.642l-5.455-7.922c-0.343 0.465-0.697 0.924-1.029 1.4-1.255 1.8-2.601 3.548-3.715 5.434-0.581 0.991-1.247 1.266-2.263 1.135-0.307-0.039-0.625-0.006-1.097-0.006l8.091-11.76c0.963 1.414 1.859 2.731 2.798 4.112l5.199-7.545 10.531 15.26c-0.898 0-1.679 0.084-2.425-0.040-0.314-0.052-0.596-0.516-0.822-0.842-1.010-1.451-1.993-2.922-2.988-4.382-0.625-0.919-1.246-1.841-1.891-2.746z"></path>
<path d="M0 5.902h5.084c1.107 0 1.936 0.265 2.487 0.794s0.827 1.282 0.827 2.258c0 1.005-0.3 1.789-0.901 2.353s-1.518 0.847-2.751 0.849h-1.672v3.689h-3.074v-9.944zM3.072 10.139h0.749c0.59 0 1.004-0.103 1.243-0.308 0.115-0.096 0.207-0.217 0.269-0.354s0.092-0.286 0.089-0.436c0.003-0.146-0.023-0.292-0.076-0.428s-0.133-0.26-0.234-0.365c-0.208-0.218-0.597-0.326-1.168-0.326h-0.873l0.002 2.218z"></path>
<path d="M9.615 10.88c0-1.623 0.45-2.887 1.35-3.791s2.154-1.356 3.76-1.356c1.648 0 2.917 0.444 3.808 1.333s1.336 2.133 1.337 3.733c0 1.162-0.194 2.115-0.582 2.859-0.38 0.734-0.969 1.338-1.691 1.735-0.736 0.414-1.653 0.621-2.751 0.621-1.115 0-2.039-0.178-2.772-0.535s-1.326-0.922-1.778-1.696c-0.455-0.773-0.683-1.74-0.682-2.903zM12.673 10.894c0 1.004 0.186 1.725 0.557 2.163s0.876 0.658 1.515 0.657c0.657 0 1.166-0.215 1.527-0.644s0.541-1.2 0.54-2.312c0-0.936-0.188-1.62-0.564-2.052s-0.885-0.648-1.527-0.647c-0.617 0-1.112 0.219-1.486 0.657s-0.561 1.164-0.563 2.177z"></path>
<path d="M21.557 15.845v-9.942h5.097c0.945 0 1.668 0.081 2.167 0.244 0.493 0.157 0.919 0.476 1.209 0.906 0.306 0.441 0.459 0.977 0.46 1.607 0 0.551-0.117 1.027-0.351 1.428-0.235 0.402-0.568 0.737-0.967 0.974-0.261 0.158-0.619 0.29-1.074 0.394 0.364 0.122 0.629 0.244 0.796 0.365 0.183 0.155 0.347 0.33 0.489 0.523 0.162 0.192 0.305 0.399 0.428 0.618l1.481 2.881h-3.456l-1.635-3.039c-0.207-0.393-0.392-0.648-0.554-0.766-0.22-0.153-0.481-0.234-0.749-0.231h-0.271v4.036l-3.071 0.003zM24.629 9.928h1.29c0.14 0 0.41-0.045 0.81-0.135 0.198-0.038 0.376-0.149 0.497-0.312 0.127-0.165 0.195-0.368 0.192-0.577 0-0.321-0.101-0.567-0.304-0.739s-0.583-0.258-1.141-0.257h-1.344v2.020z"></path>
<path d="M31.453 5.902h9.297v2.456h-3.119v7.486h-3.058v-7.486h-3.119v-2.456z"></path>
<path d="M51.723 12.244v-2.069h4.726v4.236c-0.905 0.619-1.704 1.041-2.4 1.264s-1.519 0.336-2.472 0.336c-1.175 0-2.133-0.201-2.873-0.603-0.745-0.407-1.346-1.034-1.722-1.798-0.407-0.795-0.611-1.708-0.611-2.74 0-1.085 0.223-2.029 0.668-2.831 0.445-0.801 1.13-1.44 1.958-1.826 0.67-0.32 1.573-0.481 2.707-0.481 1.094 0 1.912 0.1 2.454 0.299 0.523 0.185 0.988 0.504 1.35 0.925 0.358 0.418 0.627 0.948 0.807 1.59l-2.951 0.53c-0.103-0.349-0.32-0.653-0.617-0.862-0.291-0.199-0.661-0.298-1.111-0.298-0.67 0-1.205 0.234-1.603 0.702s-0.599 1.209-0.601 2.223c0 1.076 0.201 1.845 0.604 2.305s0.964 0.69 1.685 0.689c0.332 0.002 0.662-0.047 0.979-0.146 0.373-0.13 0.731-0.301 1.067-0.511v-0.936h-2.045z"></path>
<path d="M58.305 15.845v-9.942h5.101c0.945 0 1.668 0.081 2.167 0.244 0.492 0.157 0.918 0.476 1.208 0.906 0.307 0.441 0.46 0.977 0.46 1.607 0 0.551-0.117 1.027-0.351 1.428-0.236 0.402-0.57 0.737-0.97 0.974-0.261 0.158-0.619 0.29-1.074 0.394 0.364 0.122 0.631 0.244 0.8 0.365 0.183 0.155 0.347 0.33 0.489 0.523 0.162 0.192 0.305 0.399 0.428 0.618l1.481 2.881h-3.46l-1.635-3.039c-0.207-0.393-0.392-0.648-0.554-0.766-0.22-0.153-0.481-0.234-0.749-0.231h-0.271v4.036l-3.071 0.003zM61.376 9.928h1.29c0.14 0 0.41-0.045 0.81-0.135 0.198-0.038 0.375-0.149 0.496-0.312 0.128-0.165 0.196-0.368 0.193-0.577 0-0.321-0.101-0.567-0.304-0.739s-0.583-0.258-1.141-0.257h-1.344v2.020z"></path>
<path d="M68.399 10.88c0-1.623 0.45-2.887 1.35-3.791s2.153-1.356 3.76-1.356c1.648 0 2.917 0.444 3.808 1.333s1.336 2.133 1.337 3.733c0 1.162-0.194 2.115-0.582 2.859-0.379 0.733-0.967 1.337-1.687 1.735-0.736 0.414-1.653 0.621-2.751 0.621-1.115 0-2.039-0.178-2.771-0.535s-1.327-0.922-1.784-1.696c-0.453-0.773-0.679-1.74-0.679-2.903zM71.457 10.894c0 1.004 0.186 1.725 0.557 2.163s0.876 0.658 1.515 0.657c0.657 0 1.166-0.215 1.527-0.644s0.541-1.2 0.539-2.312c0-0.936-0.187-1.62-0.563-2.052s-0.885-0.648-1.527-0.647c-0.617 0-1.112 0.219-1.486 0.657s-0.561 1.164-0.563 2.177z"></path>
<path d="M86.743 5.902h3.054v5.924c0.003 0.566-0.089 1.129-0.274 1.664-0.179 0.516-0.472 0.984-0.858 1.369-0.343 0.361-0.762 0.642-1.225 0.823-0.595 0.222-1.308 0.332-2.14 0.332-0.527-0.003-1.053-0.037-1.577-0.102-0.569-0.068-1.045-0.202-1.428-0.403-0.401-0.216-0.757-0.507-1.050-0.858-0.296-0.331-0.519-0.721-0.655-1.145-0.189-0.633-0.283-1.193-0.283-1.68v-5.924h3.054v6.062c0 0.542 0.15 0.965 0.449 1.27s0.715 0.457 1.245 0.458c0.527 0 0.939-0.15 1.236-0.451s0.448-0.726 0.45-1.278l0.001-6.062z"></path>
<path d="M91.805 5.902h5.083c1.108 0 1.937 0.265 2.488 0.794s0.827 1.282 0.827 2.258c0 1.005-0.301 1.789-0.902 2.353s-1.518 0.847-2.751 0.849h-1.673v3.689h-3.071l-0.002-9.944zM94.876 10.139h0.75c0.59 0 1.004-0.103 1.242-0.308 0.115-0.096 0.207-0.217 0.269-0.354s0.093-0.286 0.089-0.436c0.003-0.146-0.023-0.292-0.076-0.428s-0.133-0.26-0.235-0.365c-0.207-0.217-0.596-0.325-1.167-0.326h-0.873l0.001 2.218z"></path>
</symbol>
</defs>
</svg>