<svg>
    <defs>
        <symbol id="icon-Portgroup-logo-1" viewBox="0 0 192 47">
            <path
                d="M174.321 47.002l-1.527-0.424-0.019-0.25 3.187-0.79-0.030-0.21-4.483-0.559 2.926-1.826-3.83-0.557 1.964-2.069-4.106-0.291-0.015-0.26 1.349-0.657c-1.776-0.463-3.381-1.409-5.218-0.456l1.056 0.589-1.734 0.838 2.686 0.4-3.072 1.262v-0.971l-2.637-0.358v-0.21l1.266-0.715-2.658-0.594-0.032-0.301 3.261-0.493c-0.517-0.158-0.921-0.219-1.267-0.402-0.458-0.238-0.873-0.564-1.309-0.853 0.309-0.247 0.619-0.492 0.924-0.743 0.048-0.039 0.070-0.11 0.241-0.388h-4.136l-0.013-0.3 1.612-0.738-2.211-0.696-0.037-0.249 2.351-0.449c-0.519-0.195-0.911-0.267-1.206-0.478-0.209-0.149-0.288-0.484-0.492-0.862l-1.376-0.374v-1.852l-2.434-0.388-0.109-0.297 1.617-0.63-2.852-2.236 2.738-0.58-0.005-0.093h-4.363c0.545-1.035 1.994-1.371 4.83-1.146l-0.734 0.548c1.158 0.383 2.458-0.263 3.804 0.531l-1.973 0.607c0.386 0.447 0.725 0.986 1.2 1.346 0.451 0.347 1.040 0.515 1.8 0.87l-1.977 0.495-0.068 0.236 2.618 0.56c-0.191 0.591-0.381 1.173-0.577 1.78l2.228 0.11c-0.218 0.438-0.342 0.698-0.506 1.033l2.13 0.739-0.006 0.24-2.438 0.151-0.076 0.164c0.239 0.097 0.483 0.186 0.716 0.296s0.463 0.241 0.86 0.45l-1.213 0.686 0.049 0.187 3.725-1.096-0.775-0.399v-0.238l3.081-0.445-0.885-0.722 1.943-1.052-2.063-0.358-0.063-0.237 3.659-1.307-2.215-0.352-0.046-0.234c0.497-0.219 0.999-0.438 1.49-0.676 0.287-0.138 0.721-0.254 0.804-0.483 0.526-1.455 1.752-1.716 3.041-1.999l-3.323-0.463c1.821-1.205 3.824-0.953 5.85-0.811l-1.452 0.457 0.035 0.173 3.173 0.789-0.048 0.213c-0.836 0.197-1.68 0.364-2.5 0.61-0.273 0.081-0.636 0.329-0.698 0.566-0.248 0.939-0.858 1.281-1.745 1.36-0.218 0.019-0.422 0.253-0.664 0.409l2.765 0.405 0.045 0.181-3.775 0.973-0.014 0.251 2.25 0.347 0.046 0.152-2.443 0.917-0.18 0.422 0.914 0.505-1.297 0.344-0.188 1.136 4.327 0.73v0.174l-1.653 0.689c0.481 1.169 1.567 1.219 2.465 1.753l-2.107 0.438 0.913 0.329-0.427 0.877c0.633 0.078 1.613 0.364 1.708 0.183 0.61-1.17 2.072-0.491 2.823-1.466 0.262-0.34 0.772-0.689 1.031-1.132 0.474-0.811 1.071-1.323 2.060-1.326 0.293 0 0.587-0.209 1.030-0.381l-3.502-0.905-0.028-0.244 3.134-0.468-0.957-0.749 3.798-1.578-3.347-0.632 0.017-0.306 4.363-0.525c0-0.065 0.007-0.13 0.012-0.196l-3.163-0.714-0.043-0.291 3.49-0.588-1.495-0.447 0.020-0.342 3.72-0.739c-0.421-0.396-1.499-0.172-1.060-1.27l-1.717-0.518c2.334-1.096 4.748-0.714 7.125-0.773 0.007 0.081 0.016 0.162 0.024 0.243l-2.68 0.298-0.069 0.182 1.171 0.593c-0.089 0.308-0.168 0.58-0.264 0.908l1.637 0.657-0.031 0.29-4.010 0.318c0 0.083 0 0.168 0 0.251l2.117 0.447 0.006 0.263-3.817 0.478 3.381 1.020c0 0.083 0 0.167 0 0.25l-4.62 0.476 3.899 1.035-5.268 1.403 2.501 0.593-0.036 0.21-2.646 0.383-0.069 0.219 2.509 1.032 0.062 0.314c-1.943-0.294-3.21 0.834-4.557 1.972l1.165 0.455c0 0.082 0.008 0.165 0.012 0.248l-3.631 0.64 3.734 0.897-0.027 0.185-5.293 1.63 3.529 0.943-0.016 0.219-4.932 0.998c-0.016 0.094-0.034 0.19-0.050 0.284l3.305 0.646 0.043 0.288-4.831 0.778 1.067 0.657h-0.973z">
            </path>
            <path
                d="M175.281 5.648c-1.896 2.739-3.719 5.359-5.5 7.998-0.154 0.228-0.163 0.735-0.013 0.961 1.5 2.259 3.045 4.492 4.587 6.719 0.315 0.458 0.67 0.889 1.060 1.403h-3.963l-8.183-11.883c-0.515 0.698-1.046 1.386-1.543 2.099-1.883 2.701-3.902 5.323-5.573 8.15-0.872 1.487-1.871 1.899-3.395 1.703-0.461-0.059-0.937-0.009-1.645-0.009l12.136-17.641c1.445 2.121 2.788 4.097 4.197 6.168l7.799-11.318 15.797 22.89c-1.347 0-2.518 0.126-3.638-0.060-0.471-0.078-0.894-0.775-1.233-1.263-1.515-2.177-2.99-4.383-4.482-6.574-0.938-1.378-1.869-2.762-2.836-4.12z">
            </path>
            <path
                d="M0 8.586h7.626c1.66 0 2.904 0.397 3.731 1.191s1.241 1.923 1.24 3.387c0 1.507-0.45 2.684-1.351 3.53s-2.277 1.271-4.127 1.274h-2.509v5.534h-4.61v-14.916zM4.608 14.941h1.123c0.885 0 1.506-0.154 1.864-0.462 0.173-0.144 0.311-0.326 0.404-0.531s0.138-0.429 0.133-0.655c0.005-0.219-0.034-0.438-0.114-0.642s-0.199-0.391-0.352-0.548c-0.312-0.327-0.896-0.49-1.753-0.49h-1.309l0.003 3.327z">
            </path>
            <path
                d="M14.422 16.053c0-2.434 0.675-4.33 2.025-5.686s3.23-2.035 5.64-2.035c2.472 0 4.376 0.666 5.712 1.999s2.004 3.2 2.006 5.6c0 1.743-0.291 3.172-0.873 4.288-0.57 1.101-1.453 2.007-2.537 2.603-1.104 0.621-2.479 0.931-4.126 0.931-1.672 0-3.058-0.268-4.158-0.803s-1.988-1.383-2.667-2.544c-0.683-1.159-1.024-2.611-1.023-4.354zM19.009 16.074c0 1.505 0.278 2.587 0.835 3.245s1.315 0.987 2.273 0.986c0.986 0 1.75-0.322 2.291-0.966s0.811-1.801 0.809-3.469c0-1.404-0.282-2.43-0.845-3.078s-1.327-0.971-2.29-0.971c-0.925 0-1.668 0.329-2.228 0.986s-0.842 1.746-0.844 3.266z">
            </path>
            <path
                d="M32.336 23.5v-14.914h7.646c1.418 0 2.501 0.122 3.25 0.366 0.739 0.236 1.378 0.714 1.814 1.359 0.459 0.662 0.689 1.465 0.689 2.41 0 0.827-0.176 1.541-0.527 2.142-0.353 0.603-0.852 1.105-1.451 1.462-0.391 0.237-0.928 0.434-1.611 0.59 0.546 0.183 0.944 0.366 1.194 0.548 0.274 0.232 0.52 0.495 0.734 0.784 0.243 0.288 0.458 0.598 0.642 0.927l2.222 4.321h-5.184l-2.452-4.558c-0.311-0.59-0.588-0.973-0.831-1.149-0.329-0.23-0.722-0.351-1.123-0.346h-0.406v6.053l-4.607 0.004zM36.943 14.625h1.935c0.209 0 0.614-0.068 1.215-0.203 0.298-0.057 0.563-0.224 0.745-0.468 0.191-0.247 0.293-0.553 0.288-0.866 0-0.481-0.152-0.851-0.456-1.109s-0.874-0.386-1.711-0.386h-2.016v3.030z">
            </path>
            <path d="M47.18 8.586h13.946v3.685h-4.679v11.229h-4.588v-11.229h-4.679v-3.685z"></path>
            <path
                d="M77.585 18.098v-3.103h7.090v6.355c-1.357 0.929-2.557 1.561-3.599 1.896s-2.279 0.503-3.708 0.504c-1.763 0-3.199-0.302-4.309-0.905-1.117-0.61-2.019-1.552-2.583-2.696-0.611-1.193-0.916-2.563-0.916-4.11 0-1.628 0.334-3.044 1.002-4.247 0.667-1.201 1.695-2.16 2.937-2.739 1.006-0.481 2.359-0.721 4.061-0.722 1.64 0 2.867 0.149 3.681 0.448 0.784 0.278 1.482 0.756 2.025 1.388 0.537 0.627 0.94 1.422 1.211 2.385l-4.426 0.794c-0.154-0.524-0.48-0.98-0.926-1.293-0.436-0.298-0.992-0.447-1.667-0.447-1.006 0-1.807 0.351-2.405 1.053s-0.898 1.814-0.901 3.335c0 1.614 0.302 2.767 0.906 3.458s1.447 1.036 2.527 1.034c0.498 0.004 0.993-0.070 1.468-0.219 0.56-0.195 1.097-0.452 1.6-0.767v-1.403h-3.068z">
            </path>
            <path
                d="M87.457 23.5v-14.914h7.651c1.418 0 2.501 0.122 3.25 0.366 0.739 0.236 1.377 0.715 1.812 1.359 0.46 0.662 0.69 1.465 0.69 2.41 0 0.827-0.176 1.541-0.527 2.142-0.354 0.603-0.855 1.106-1.455 1.462-0.392 0.237-0.929 0.434-1.611 0.59 0.546 0.183 0.946 0.366 1.2 0.548 0.274 0.232 0.52 0.495 0.734 0.784 0.243 0.288 0.458 0.598 0.642 0.927l2.222 4.321h-5.19l-2.452-4.558c-0.311-0.59-0.588-0.973-0.831-1.149-0.329-0.23-0.722-0.351-1.123-0.346h-0.406v6.053l-4.607 0.004zM92.064 14.625h1.935c0.209 0 0.614-0.068 1.215-0.203 0.298-0.057 0.563-0.224 0.744-0.468 0.192-0.247 0.294-0.552 0.289-0.866 0-0.481-0.152-0.851-0.456-1.109s-0.874-0.386-1.711-0.386h-2.016v3.030z">
            </path>
            <path
                d="M102.598 16.053c0-2.434 0.675-4.33 2.025-5.686s3.23-2.035 5.64-2.035c2.472 0 4.376 0.666 5.712 1.999s2.004 3.2 2.005 5.6c0 1.743-0.291 3.172-0.873 4.288-0.569 1.1-1.45 2.006-2.531 2.603-1.104 0.621-2.48 0.931-4.127 0.931-1.673 0-3.058-0.268-4.157-0.803s-1.991-1.383-2.676-2.544c-0.679-1.159-1.018-2.611-1.018-4.354zM107.185 16.074c0 1.505 0.279 2.587 0.836 3.245s1.314 0.987 2.273 0.986c0.986 0 1.749-0.322 2.29-0.966s0.811-1.801 0.809-3.469c0-1.404-0.281-2.43-0.845-3.078-0.563-0.648-1.327-0.971-2.29-0.971-0.925 0-1.668 0.329-2.229 0.986-0.56 0.657-0.842 1.746-0.844 3.266z">
            </path>
            <path
                d="M130.114 8.586h4.581v8.885c0.004 0.849-0.134 1.693-0.411 2.496-0.268 0.774-0.708 1.476-1.287 2.053-0.515 0.541-1.143 0.962-1.837 1.235-0.892 0.332-1.962 0.499-3.21 0.499-0.791-0.004-1.58-0.055-2.365-0.152-0.854-0.101-1.568-0.303-2.142-0.605-0.602-0.324-1.136-0.761-1.575-1.286-0.444-0.497-0.779-1.082-0.982-1.718-0.283-0.95-0.425-1.79-0.425-2.52v-8.887h4.581v9.094c0 0.813 0.225 1.448 0.674 1.905s1.072 0.686 1.868 0.687c0.79 0 1.408-0.225 1.854-0.676s0.672-1.089 0.675-1.916l0.001-9.094z">
            </path>
            <path
                d="M137.707 8.586h7.625c1.662 0 2.906 0.397 3.732 1.191 0.827 0.794 1.241 1.923 1.241 3.387 0 1.507-0.451 2.684-1.353 3.53s-2.277 1.271-4.126 1.274h-2.509v5.534h-4.607l-0.003-14.916zM142.314 14.941h1.125c0.885 0 1.506-0.154 1.863-0.462 0.172-0.144 0.31-0.326 0.403-0.531s0.139-0.429 0.133-0.655c0.005-0.219-0.034-0.438-0.114-0.642s-0.199-0.391-0.352-0.548c-0.31-0.325-0.894-0.488-1.751-0.489h-1.309l0.002 3.326z">
            </path>
        </symbol>
            <symbol id="icon-arrow-21" viewBox="0 0 132 32">
            <path fill="#fff" style="fill: var(--color1, #fff)" d="M128.166 16.677c0.694-0.694 0.694-1.82 0-2.514l-11.314-11.314c-0.694-0.694-1.82-0.694-2.514 0s-0.694 1.82 0 2.514l10.057 10.057-10.057 10.057c-0.694 0.694-0.694 1.82 0 2.514s1.82 0.694 2.514 0l11.314-11.314zM1.653 17.198l125.256 0v-3.556l-125.256-0v3.556z"></path>
        </symbol>
        <symbol id="icon-partners1" viewBox="0 0 113 32">
<path fill="#00679e" style="fill: var(--color4, #00679e)" d="M83.105 31.9c-0.325-0.161-0.669-0.293-0.971-0.489-0.974-0.638-1.476-1.538-1.475-2.711v-25.495c0-1.535 0.926-2.71 2.447-3.109 0.042-0.011 0.073-0.061 0.107-0.093h26.49c0.342 0.152 0.698 0.279 1.025 0.46 0.828 0.459 1.209 1.255 1.527 2.093v26.899c-0.189 0.131-0.186 0.36-0.266 0.544-0.44 1.024-1.277 1.564-2.286 1.901h-26.598zM97.68 14.454c0-0.552-0.022-0.978 0.006-1.401 0.023-0.332-0.087-0.418-0.413-0.413-1.187 0.020-2.374 0.020-3.562 0-0.319 0-0.417 0.078-0.416 0.411 0.012 4.003 0.012 8.006 0 12.010 0 0.34 0.080 0.457 0.438 0.45 1.133-0.022 2.268-0.030 3.405 0 0.443 0.013 0.559-0.113 0.555-0.553-0.023-2.249-0.021-4.499-0.007-6.749 0.008-1.302 0.92-2.353 2.1-2.47 1.383-0.138 2.243 0.498 2.526 1.908 0.048 0.297 0.068 0.598 0.057 0.898 0 2.162 0.011 4.323-0.005 6.483 0 0.364 0.085 0.49 0.468 0.482 1.17-0.024 2.34-0.024 3.511 0 0.381 0.007 0.471-0.116 0.469-0.481-0.016-2.267-0.010-4.534-0.007-6.801 0.001-0.672-0.068-1.342-0.203-2-0.738-3.592-5.185-5.174-7.959-2.839-0.339 0.287-0.588 0.652-0.965 1.067zM91.19 19.144c0-2.021-0.006-4.043 0.008-6.057 0-0.333-0.067-0.456-0.426-0.449-1.17 0.024-2.341 0.031-3.511 0-0.425-0.013-0.483 0.145-0.482 0.515 0.013 3.949 0.013 7.898 0 11.847 0 0.385 0.082 0.524 0.496 0.514 1.151-0.029 2.303-0.026 3.454 0 0.374 0.007 0.475-0.098 0.47-0.47-0.023-1.969-0.010-3.934-0.010-5.9zM88.942 10.846c0.141 0 0.283 0.010 0.425 0 1.102-0.084 1.927-0.861 2.103-1.976 0.063-0.46-0.030-0.928-0.264-1.329s-0.596-0.712-1.027-0.883c-0.426-0.18-0.887-0.259-1.349-0.231s-0.91 0.161-1.311 0.391c-0.424 0.233-0.744 0.617-0.895 1.076-0.54 1.511 0.589 2.962 2.314 2.955l0.005-0.003z"></path>
<path fill="#fff" style="fill: var(--color1, #fff)" d="M72.379 13.277c0-2.186 0.014-4.238-0.011-6.291-0.006-0.44 0.106-0.569 0.551-0.555 1.134 0.034 2.269 0.031 3.404 0 0.406-0.011 0.494 0.113 0.492 0.505-0.013 4.73-0.013 9.46 0 14.191 0 1.31-0.020 2.621 0.106 3.928 0.033 0.33-0.019 0.467-0.401 0.457-1.028-0.029-2.057-0.024-3.085 0-0.35 0.007-0.453-0.106-0.463-0.445-0.016-0.488-0.096-0.973-0.157-1.545-0.361 0.387-0.589 0.763-0.924 1.050-2.3 1.977-6.209 1.518-8.16-0.967-2.128-2.71-1.982-7.333 0.319-9.894 1.651-1.842 4.602-2.48 6.876-1.489 0.555 0.243 1.051 0.602 1.454 1.054zM72.379 18.644c0-0.319-0.026-0.638 0.005-0.957 0.107-1.071-0.672-2.198-1.702-2.553-0.563-0.195-1.172-0.21-1.744-0.043s-1.077 0.507-1.447 0.974c-1.037 1.354-1.064 3.924-0.046 5.302 0.686 0.935 1.951 1.326 3.139 0.968 1.082-0.324 1.74-1.203 1.793-2.42 0.014-0.42-0.001-0.846-0.001-1.27h0.005z"></path>
<path fill="#fff" style="fill: var(--color1, #fff)" d="M48.783 12.036c-0.942 1.019-1.8 1.95-2.66 2.88-0.71 0.766-1.409 1.543-2.138 2.288-0.256 0.262-0.226 0.426-0.024 0.7 1.758 2.375 3.505 4.756 5.244 7.145 0.091 0.124 0.222 0.228 0.247 0.455-1.434 0-2.862-0.060-4.281 0.022-0.837 0.048-1.287-0.231-1.697-0.957-0.879-1.55-1.869-3.036-2.842-4.595-0.352 0.436-0.672 0.845-1.008 1.24-0.147 0.172-0.113 0.365-0.113 0.554 0 1.099-0.016 2.197 0.006 3.298 0.007 0.349-0.088 0.45-0.44 0.443-1.186-0.021-2.375-0.017-3.561 0-0.293 0-0.394-0.064-0.393-0.377 0.009-6.111 0.009-12.221 0-18.332 0-0.319 0.12-0.368 0.399-0.365 1.17 0.014 2.341 0.028 3.511 0 0.426-0.013 0.483 0.131 0.482 0.506-0.014 3.47-0.008 6.942-0.008 10.413 0.195 0.071 0.202-0.106 0.262-0.193 1.152-1.589 2.304-3.18 3.442-4.781 0.072-0.117 0.175-0.212 0.298-0.274s0.26-0.089 0.397-0.078c1.576 0.015 3.152 0.004 4.879 0.004z"></path>
<path fill="#fff" style="fill: var(--color1, #fff)" d="M24.33 14.397c0.015-0.069 0.039-0.135 0.072-0.198 1.283-1.836 3.517-2.172 5.473-1.624 1.856 0.519 3.146 2.169 3.332 4.291 0.22 2.509 0.052 5.025 0.091 7.537 0.018 1.1 0 1.101-1.096 1.101-0.957 0-1.915-0.018-2.872 0.009-0.375 0.011-0.474-0.098-0.471-0.471 0.018-2.16 0.009-4.32 0.009-6.481 0.012-0.372-0.023-0.743-0.106-1.105-0.311-1.186-1.034-1.76-2.204-1.73-1.115 0.024-2.072 0.796-2.285 1.857-0.053 0.278-0.078 0.561-0.076 0.844-0.006 2.196-0.014 4.392 0.006 6.587 0 0.393-0.085 0.512-0.494 0.501-1.15-0.031-2.303-0.027-3.454 0-0.374 0.008-0.468-0.106-0.467-0.47 0.020-3.683 0.021-7.366 0.026-11.049 0-0.354 0-0.71-0.021-1.064-0.015-0.238 0.076-0.299 0.303-0.297 1.258 0.009 2.516 0.011 3.773 0 0.253 0 0.34 0.067 0.33 0.326-0.020 0.451-0.005 0.903-0.005 1.354l0.137 0.083z"></path>
<path fill="#fff" style="fill: var(--color1, #fff)" d="M52.186 20.117c0.107 1.086 0.734 1.715 1.65 2.113 1.213 0.532 2.487 0.47 3.762 0.37 0.742-0.051 1.476-0.181 2.19-0.388 0.29-0.087 0.371 0.010 0.42 0.255 0.142 0.709 0.288 1.418 0.439 2.128 0.047 0.213 0.012 0.358-0.238 0.435-2.766 0.862-5.553 1.17-8.332 0.176-2.565-0.916-3.856-2.86-4.080-5.54-0.129-1.549 0.119-3.037 0.888-4.403 1.425-2.531 3.691-3.55 6.499-3.496 2.167 0.043 3.962 0.844 5.113 2.777 0.618 1.038 0.874 2.186 0.957 3.383 0.042 0.587-0.045 1.164-0.057 1.746-0.009 0.379-0.181 0.453-0.532 0.452-2.693-0.014-5.385-0.007-8.078-0.007h-0.601zM52.162 17.228c1.664 0 3.323 0 4.982 0 0.187 0 0.228-0.070 0.238-0.246 0.064-1.056-0.807-2.205-1.847-2.419-1.713-0.349-3.185 0.799-3.374 2.665z"></path>
<path fill="#fff" style="fill: var(--color1, #fff)" d="M0.136 15.953c0-2.995 0.012-5.99-0.013-8.983 0-0.461 0.133-0.549 0.561-0.532 1.115 0.031 2.234 0.033 3.349 0 0.436-0.013 0.52 0.13 0.519 0.532-0.012 4.681 0 9.356-0.019 14.032 0 0.556 0.155 0.662 0.675 0.654 2.198-0.030 4.396 0 6.596-0.023 0.426 0 0.532 0.123 0.521 0.532-0.030 0.973-0.020 1.949 0 2.922 0 0.31-0.062 0.426-0.407 0.426-3.793-0.013-7.588-0.013-11.383 0-0.41 0-0.403-0.181-0.403-0.473 0.006-3.030 0.006-6.059 0-9.089l0.005 0.002z"></path>
<path fill="#fff" style="fill: var(--color1, #fff)" d="M18.11 19.114c0 1.965-0.010 3.929 0.008 5.893 0 0.373-0.053 0.52-0.479 0.509-1.185-0.035-2.372-0.021-3.558-0.005-0.303 0-0.393-0.088-0.392-0.389 0.009-4.034 0.009-8.068 0-12.103 0-0.298 0.078-0.392 0.382-0.387 1.203 0.017 2.408 0.020 3.611 0 0.345-0.006 0.439 0.085 0.436 0.434-0.017 2.015-0.010 4.032-0.010 6.049z"></path>
<path fill="#fff" style="fill: var(--color1, #fff)" d="M15.976 10.866c-1.829 0-2.96-1.427-2.447-2.945 0.213-0.628 0.657-1.032 1.256-1.277 1.204-0.495 2.615-0.106 3.24 0.784 0.863 1.23 0.182 3.183-1.681 3.418-0.149 0.018-0.31 0.017-0.368 0.019z"></path>
<path fill="#fdfdfd" style="fill: var(--color5, #fdfdfd)" d="M97.68 14.454c0.374-0.415 0.623-0.78 0.957-1.064 2.774-2.334 7.221-0.752 7.959 2.839 0.136 0.658 0.204 1.328 0.203 2 0 2.267-0.009 4.534 0.007 6.801 0 0.365-0.088 0.488-0.469 0.481-1.169-0.024-2.339-0.024-3.511 0-0.383 0.009-0.471-0.118-0.468-0.482 0.016-2.161 0.010-4.321 0.005-6.483 0.010-0.3-0.009-0.601-0.057-0.898-0.284-1.41-1.139-2.046-2.526-1.908-1.18 0.117-2.093 1.17-2.1 2.47-0.015 2.25-0.017 4.5 0.007 6.749 0 0.44-0.107 0.566-0.556 0.553-1.133-0.033-2.268-0.026-3.404 0-0.359 0.007-0.439-0.106-0.438-0.45 0.011-4.004 0.011-8.007 0-12.010 0-0.333 0.092-0.416 0.416-0.411 1.188 0.019 2.375 0.019 3.562 0 0.327 0 0.437 0.081 0.414 0.413-0.018 0.42 0.001 0.846 0.001 1.398z"></path>
<path fill="#fdfdfd" style="fill: var(--color5, #fdfdfd)" d="M91.19 19.144c0 1.966-0.010 3.936 0.008 5.897 0 0.372-0.097 0.478-0.47 0.47-1.151-0.024-2.303-0.028-3.454 0-0.414 0.011-0.497-0.129-0.496-0.514 0.013-3.949 0.013-7.898 0-11.847 0-0.37 0.054-0.532 0.482-0.515 1.17 0.033 2.34 0.027 3.51 0 0.363-0.007 0.432 0.116 0.426 0.449-0.017 2.027-0.006 4.041-0.006 6.060z"></path>
<path fill="#fdfdfd" style="fill: var(--color5, #fdfdfd)" d="M88.938 10.849c-1.724 0-2.86-1.445-2.314-2.953 0.152-0.459 0.472-0.843 0.896-1.076 0.401-0.229 0.85-0.363 1.311-0.391s0.923 0.051 1.349 0.231c0.432 0.171 0.793 0.482 1.028 0.883s0.327 0.869 0.264 1.329c-0.177 1.115-1.001 1.892-2.103 1.976-0.147 0.007-0.288 0.001-0.43 0.001z"></path>
</symbol>
    <symbol id="icon-partners2" viewBox="0 0 111 32">
<path fill="#fb7555" style="fill: var(--color2, #fb7555)" d="M92.341 26.212c-1.303 0.068-2.639-0.291-3.853-1.034-0.59-0.36-1.065-0.362-1.518 0.16-0.983 1.132-2.426 1.871-2.398 3.775 0.018 1.177-1.302 1.842-2.699 1.749-0.557-0.027-1.087-0.248-1.499-0.624s-0.68-0.885-0.756-1.438c-0.219-1.465 0.383-2.789 1.771-2.909 1.831-0.158 2.758-1.334 3.861-2.454 0.457-0.463 0.523-0.837 0.22-1.393-1.368-2.535-1.307-5.1-0.062-7.659 0.239-0.492 0.155-0.797-0.291-1.14-2.856-2.2-5.699-4.418-8.529-6.652-0.465-0.364-0.949-0.379-1.505-0.273-2.062 0.391-3.743-0.798-3.987-2.784-0.198-1.621 1.254-3.322 2.953-3.462 1.817-0.149 3.382 1.256 3.436 3.217 0.018 0.718 0.313 1.135 0.824 1.527 2.763 2.123 5.524 4.248 8.263 6.394 0.581 0.455 1.047 0.661 1.729 0.142 0.478-0.365 1.071-0.697 1.652-0.785 1.202-0.183 1.347-0.883 1.317-1.906-0.034-1.11-0.038-2.065-1.003-2.951-1.070-0.984-0.8-2.872 0.276-3.873 0.53-0.499 1.229-0.778 1.957-0.78s1.429 0.273 1.961 0.769c1.18 1.109 1.441 2.901 0.258 3.943-1.313 1.152-0.892 2.512-0.915 3.841-0.015 0.837 0.848 0.771 1.379 0.97 2.737 1.023 4.533 2.903 5.198 5.757 1.205 5.164-2.603 9.894-8.041 9.874zM92.526 14.103c-2.247 0.009-4.145 1.93-4.13 4.18 0.015 2.156 1.847 3.943 4.059 3.957 2.356 0.015 4.171-1.768 4.166-4.092-0.006-2.224-1.858-4.053-4.095-4.045z"></path>
<path fill="#fcfcfc" style="fill: var(--color3, #fcfcfc)" d="M0.162 15.685c-0.001-3.155 0.018-6.306-0.016-9.465-0.007-0.733 0.175-0.979 0.954-0.989 2.951-0.039 2.951-0.071 2.95 2.923 0 1.639 0.026 3.279-0.010 4.92-0.017 0.701 0.136 1.030 0.942 1.009 2.049-0.051 4.099-0.048 6.149 0 0.785 0.018 0.959-0.289 0.942-1.006-0.036-2.213 0.025-4.426-0.025-6.638-0.021-0.872 0.165-1.225 1.141-1.209 2.806 0.046 2.807 0 2.807 2.826 0 5.696-0.025 11.391 0.021 17.086 0.007 0.966-0.248 1.25-1.222 1.237-2.73-0.037-2.73 0.007-2.729-2.668 0-1.638-0.041-3.279 0.019-4.92 0.029-0.825-0.265-1.026-1.047-1.007-2.008 0.052-4.016 0.052-6.026 0-0.748-0.019-0.994 0.196-0.978 0.957 0.045 2.171-0.022 4.344 0.036 6.514 0.023 0.865-0.244 1.115-1.106 1.113-2.799-0.010-2.799 0.024-2.799-2.816 0-2.622-0.001-5.244-0.002-7.867z"></path>
<path fill="#fcfcfc" style="fill: var(--color3, #fcfcfc)" d="M37.935 12.027c3.801-2.111 7.072-1.812 9.64 0.792 2.47 2.512 2.972 6.416 1.223 9.535-1.589 2.835-5.183 4.511-8.374 3.904-3.227-0.613-5.703-3.162-6.040-6.574-0.448-4.528-0.105-9.083-0.181-13.625-0.009-0.546 0.226-0.726 0.733-0.714 0.696 0.018 1.395 0.042 2.088 0s0.936 0.202 0.921 0.907c-0.039 1.877-0.009 3.755-0.009 5.774zM38.089 18.42c-0.043 2.258 1.829 4.209 4.067 4.242 2.187 0.032 4.082-1.833 4.122-4.048 0.013-0.544-0.082-1.085-0.279-1.592s-0.493-0.97-0.869-1.362c-0.377-0.392-0.828-0.706-1.326-0.924s-1.035-0.334-1.579-0.343c-2.195-0.030-4.096 1.821-4.138 4.028h0.003z"></path>
<path fill="#fcfcfc" style="fill: var(--color3, #fcfcfc)" d="M70.076 24.662c0 1.763 0.007 3.34 0 4.92 0 1.211-0.535 1.732-1.78 1.773-0.209 0.006-0.418-0.028-0.613 0.007-1.047 0.184-1.383-0.166-1.361-1.286 0.085-3.971 0-7.946 0.065-11.919 0.063-3.826 2.401-6.784 5.892-7.622 3.245-0.779 7.118 1.014 8.759 4.049 1.698 3.146 1.036 7.052-1.604 9.575-2.575 2.46-6.754 2.626-8.804 0.855-0.178-0.128-0.363-0.246-0.555-0.353zM70.209 18.636c-0.221 1.316 1.831 3.652 3.839 3.723 2.242 0.080 4.28-1.675 4.384-3.91 0.046-1.078-0.33-2.131-1.047-2.937s-1.721-1.3-2.796-1.379c-2.607-0.175-4.684 2.135-4.38 4.506v-0.004z"></path>
<path fill="#fcfcfc" style="fill: var(--color3, #fcfcfc)" d="M57.929 5.231c2.067 0.029 3.774 0.7 5.249 2.007 0.523 0.46 0.674 0.847 0.104 1.409-0.607 0.605-1.015 1.537-1.726 1.877-0.791 0.378-1.288-0.733-1.996-1.061-1.907-0.901-3.697-0.353-4.089 1.351-0.209 0.924 0.087 1.605 0.887 2.082 0.746 0.446 1.588 0.648 2.397 0.936 0.813 0.273 1.61 0.594 2.386 0.961 2.039 1.016 2.69 2.826 2.809 4.966 0.165 2.926-0.942 5.103-3.768 6.085-2.992 1.039-5.75 0.635-8.212-1.594-0.982-0.889-0.967-1.421 0-2.151 0.226-0.178 0.427-0.385 0.597-0.618 0.692-0.918 1.288-1.151 2.109-0.041 0.78 1.047 2.617 1.413 3.789 0.924 0.844-0.351 1.457-0.953 1.531-1.906 0.079-1-0.418-1.763-1.296-2.167-1.299-0.599-2.672-1.036-3.969-1.639-3.614-1.675-4.62-6.071-2.083-9.168 1.373-1.674 3.292-2.195 5.281-2.253z"></path>
<path fill="#fcfcfc" style="fill: var(--color3, #fcfcfc)" d="M18.278 15.748c0-1.475 0.023-2.951-0.012-4.425-0.015-0.628 0.186-0.837 0.837-0.877 2.848-0.166 2.847-0.188 2.847 2.681 0 1.967-0.014 3.934 0 5.901 0.020 2.171 1.295 3.631 3.153 3.65 1.836 0.020 3.14-1.465 3.147-3.615 0.008-2.54 0.026-5.081-0.012-7.621-0.012-0.733 0.177-0.986 0.952-1 2.809-0.047 2.811-0.077 2.803 2.722-0.006 2.213 0.039 4.427-0.044 6.637-0.139 3.732-3.227 6.641-6.881 6.581-3.809-0.066-6.737-3.006-6.781-6.824-0.015-1.27 0-2.54 0-3.81h-0.011z"></path>
<path fill="#fcfcfc" style="fill: var(--color3, #fcfcfc)" d="M106.564 6.931c0 1.081 0.051 2.094-0.016 3.103-0.056 0.837 0.262 1.124 1.055 1.011 0.204-0.015 0.409-0.015 0.613 0 1.762 0.013 1.675 0.019 1.791 1.715 0.091 1.289-0.3 1.666-1.589 1.588-1.851-0.113-1.856-0.022-1.857 1.868 0 1.269-0.007 2.538 0 3.807 0.014 2.173 0.703 2.936 2.854 2.878 1.090-0.030 1.205 0.296 0.942 1.241-0.649 2.354-0.942 2.573-3.384 2.138-2.645-0.472-4.115-2.157-4.132-4.835-0.025-4.012 0.012-8.026-0.026-12.038-0.006-0.733 0.233-1.126 0.917-1.349 0.925-0.298 1.729-0.91 2.831-1.126z"></path>
</symbol>
    <symbol id="icon-partners3" viewBox="0 0 158 32">
<path fill="#fff" style="fill: var(--color1, #fff)" d="M6.388 9.849c0 4.773 0 9.547 0.007 14.32 0.009 0.833 0.3 1.639 0.826 2.286 1.16 1.501 2.291 3.021 3.518 4.657h-10.212c0.329-0.84 0.983-1.453 1.495-2.149 3.259-4.434 2.663-2.813 2.678-8.116 0.019-4.379 0.016-8.76 0.033-13.139 0.012-0.759-0.241-1.498-0.714-2.091-0.87-1.13-1.73-2.274-2.599-3.406 0.248-0.354 0.561-0.202 0.817-0.204 2.658-0.013 5.316 0.021 7.975-0.027 0.754-0.013 1.119 0.211 1.435 0.918 2.389 5.334 4.828 10.646 7.261 15.963 0.149 0.317 0.195 0.698 0.595 0.94l4.564-11.38c0.769-1.898 1.533-3.795 2.291-5.691 0.149-0.36 0.202-0.744 0.757-0.744 3.006 0.019 6.011 0.009 9.312 0.009-0.994 1.114-1.785 2.054-2.642 2.942-0.213 0.214-0.379 0.47-0.487 0.752s-0.157 0.583-0.142 0.884c0.018 6.823 0.018 13.645 0 20.467 0 0.757 0.256 1.27 0.782 1.775 0.751 0.72 1.424 1.52 2.121 2.277h-13.239c0.699-0.757 1.455-1.599 2.24-2.413 0.306-0.317 0.595-0.605 0.595-1.090 0-6.099 0-12.198-0.18-18.344l-9.019 22.463-9.871-21.875-0.196 0.016z"></path>
<path fill="#fff" style="fill: var(--color1, #fff)" d="M144.707 31.235c-2.864 0-5.726 0-8.589 0-0.674 0-0.506-0.469-0.503-0.824 0.029-2.975 0.070-5.958 0.105-8.935 0.020-1.794 0.087-3.595-0.414-5.346-0.325-1.129-0.893-2.059-2.185-2.24-1.328-0.186-2.368 0.357-3.23 1.339-0.322 0.367-0.286 0.793-0.286 1.22 0 3.735 0.031 7.469-0.023 11.203-0.012 0.916 0.243 1.577 0.947 2.135 0.493 0.39 0.918 0.863 1.593 1.508-2.253 0-4.209 0.025-6.163-0.012-1.029-0.019-2.399 0.464-2.99-0.207-0.507-0.576-0.168-1.913-0.169-2.913 0-4.416-0.040-8.833 0.023-13.249 0.016-1.129-0.229-2.011-1.092-2.75-0.478-0.408-0.869-0.918-1.445-1.54 3.088 0 5.95 0 8.818 0 0.473 0 0.509 0.251 0.506 0.613-0.012 0.961 0 1.922 0.082 2.951 1.477-2.551 3.57-3.966 6.545-3.894 3.061 0.076 4.872 1.761 5.826 4.702 0.297-0.528 0.493-0.904 0.713-1.264 0.777-1.286 1.94-2.294 3.323-2.881s2.916-0.724 4.381-0.391c2.417 0.531 3.682 2.215 4.367 4.443 0.556 1.81 0.556 3.682 0.533 5.55-0.030 2.405-0.033 4.811-0.119 7.213-0.027 0.787 0.137 1.379 0.772 1.87 0.563 0.433 1.069 0.942 1.598 1.418-0.037 0.083-0.074 0.167-0.11 0.25h-5.189c-1.041 0-2.083-0.019-3.124 0.009-0.51 0.013-0.772-0.063-0.76-0.684 0.064-3.087 0.079-6.173 0.113-9.26 0.018-1.651 0.055-3.307-0.35-4.924-0.298-1.16-0.809-2.197-2.134-2.437-1.424-0.257-2.606 0.263-3.57 1.311-0.102 0.1-0.178 0.224-0.219 0.361s-0.046 0.282-0.015 0.422c0.635 3.244 0.307 6.52 0.149 9.767-0.112 2.263 0.297 4.065 2.437 5.235l-0.151 0.235z"></path>
<path fill="#fff" style="fill: var(--color1, #fff)" d="M79.834 1.393c0.016 3.406 0.041 6.814 0.046 10.221 0.009 5.206 0.033 10.413-0.023 15.608-0.012 1.062 0.241 1.862 1.074 2.508 0.521 0.39 0.948 0.891 1.253 1.465h-2.617c-1.866 0-3.733-0.037-5.599 0.019-0.744 0.021-0.931-0.217-0.881-0.909 0.045-0.781 0.021-1.565-0.073-2.341-1.055 1.702-2.411 2.947-4.37 3.401-3.241 0.753-6.581-0.619-8.128-3.637-2.213-4.323-2.294-8.791 0-13.114 1.626-3.075 4.39-4.433 7.848-4.314 2.022 0.070 3.509 1.105 4.744 3.091v-4.875c-0.019-0.286-0.019-0.574 0-0.86 0.298-2.129-0.129-3.966-2.062-5.215-0.106-0.068-0.161-0.213-0.345-0.469l7.474-0.791c0.508 0.451 1.105 0.156 1.659 0.211zM73.102 20.411c0-1.898-0.024-3.796 0.013-5.694 0.013-0.619-0.231-1.001-0.705-1.339-1.675-1.178-3.845-0.693-5.007 1.175-1.226 1.972-1.339 4.199-1.331 6.428 0.007 1.941 0.149 3.881 1.166 5.611 1.147 1.944 3.435 2.352 5.162 0.965 0.473-0.381 0.732-0.803 0.717-1.458-0.043-1.892-0.015-3.79-0.015-5.688z"></path>
<path fill="#fff" style="fill: var(--color1, #fff)" d="M103.18 31.398c-1.852-0.149-3.124-1.162-3.989-2.725-0.911-1.644-1.177-3.454-1.19-5.3-0.009-2.869-0.019-5.742 0.074-8.61 0.039-1.129-0.169-2.033-1.107-2.718-0.457-0.333-0.88-0.713-1.319-1.071 0.058-0.116 0.115-0.232 0.171-0.347h2.504c1.866 0 3.733 0.034 5.6-0.018 0.72-0.019 0.893 0.204 0.893 0.903-0.013 4.054 0.012 8.108 0.049 12.162 0.009 1.081 0.172 2.151 0.682 3.124 0.568 1.087 1.522 1.488 2.706 1.19 1.422-0.366 2.3-1.285 2.302-2.445 0-3.804-0.041-7.607 0.028-11.409 0.019-1.096-0.724-1.581-1.312-2.213-0.33-0.355-0.798-0.586-1.204-0.873l0.244-0.421h2.082c1.933 0 3.881 0.068 5.815-0.028 1.041-0.054 1.207 0.326 1.2 1.257-0.043 5.095 0.012 10.191-0.046 15.284-0.013 1.135 0.212 2.010 1.151 2.691 0.446 0.326 0.814 0.769 1.427 1.363h-6.038c-0.149 0-0.287 0.009-0.43 0-0.955-0.064-2.224 0.412-2.775-0.201-0.472-0.522-0.149-1.766-0.167-2.691 0-0.25 0-0.501 0-1.020-1.267 2.309-2.841 3.885-5.376 4.132-0.651-0.425-1.314-0.409-1.975-0.015z"></path>
<path fill="#fff" style="fill: var(--color1, #fff)" d="M50.597 10.681c3.283 0.665 5.528 3.075 6.008 6.469 0.069 0.497 0.111 0.998 0.123 1.499 0.036 1.501 0.028 1.501-1.441 1.501-3.301 0-6.603 0.036-9.904-0.024-0.915-0.016-1.133 0.298-0.985 1.105 0.071 0.388 0.089 0.785 0.162 1.172 0.434 2.28 1.428 4.172 3.807 4.898 2.448 0.744 4.681 0.25 6.599-1.479 0.39-0.351 0.73-0.754 1.116-1.159 0.297 0.446 0.077 0.796-0.048 1.145-1.267 3.546-4.097 5.593-7.917 5.726-6.566 0.229-10.74-3.792-10.764-10.359-0.013-3.359 0.757-6.41 3.464-8.671 1.175-1.013 2.62-1.663 4.158-1.87 0.308 0.372 0.533 0.345 0.665-0.135l0.632-0.071c0.445 0.199 0.926 0.302 1.413 0.302s0.968-0.103 1.413-0.302l0.634 0.071c0.18 0.562 0.504 0.472 0.864 0.18zM47.271 19.048c0.823 0 1.645 0 2.469 0 0.329 0 0.666 0.036 0.655-0.461-0.049-2.033 0.052-4.097-0.788-6.016-0.781-1.785-2.794-1.965-3.949-0.393-0.327 0.47-0.571 0.994-0.72 1.547-0.34 1.206-0.525 2.45-0.552 3.702-0.083 1.999-0.201 1.577 1.488 1.62 0.47 0.016 0.934 0 1.398 0z"></path>
<path fill="#fff" style="fill: var(--color1, #fff)" d="M95.168 31.192c-3.099 0-5.95-0.007-8.805 0-0.61 0-0.458-0.415-0.46-0.744-0.006-2.441-0.006-4.882 0-7.323 0-2.8-0.046-5.601 0.022-8.399 0.026-1.055-0.207-1.894-1.041-2.554-0.496-0.394-0.974-0.811-1.46-1.218l0.205-0.338h6.721c2.335 0 2.335 0 2.335 2.316 0 4.773 0.040 9.548-0.028 14.32-0.016 1.151 0.258 2.002 1.181 2.678 0.419 0.32 0.764 0.724 1.33 1.261z"></path>
<path fill="#fff" style="fill: var(--color1, #fff)" d="M89.271 0.768c2.176-0.021 3.674 1.4 3.705 3.514 0.014 0.491-0.069 0.981-0.247 1.439s-0.443 0.877-0.784 1.232c-0.34 0.355-0.748 0.638-1.199 0.834s-0.936 0.3-1.427 0.306-0.98-0.085-1.435-0.269c-0.456-0.184-0.87-0.457-1.22-0.803s-0.627-0.758-0.816-1.212c-0.188-0.454-0.285-0.941-0.284-1.432-0.028-2.154 1.445-3.586 3.707-3.609z"></path>
<path fill="#fff" style="fill: var(--color1, #fff)" d="M49.101 10.437c-0.445 0.199-0.926 0.302-1.413 0.302s-0.969-0.103-1.413-0.302c0.93-0.214 1.896-0.214 2.826 0z"></path>
<path fill="#fff" style="fill: var(--color1, #fff)" d="M103.18 31.398c0.662-0.394 1.32-0.411 1.975 0.015-0.644 0.202-1.335 0.197-1.975-0.015z"></path>
<path fill="#fff" style="fill: var(--color1, #fff)" d="M79.835 1.393c-0.553-0.055-1.15 0.24-1.652-0.211 0.457-0.071 0.912-0.164 1.371-0.21 0.297-0.030 0.345 0.174 0.281 0.421z"></path>
<path fill="#fff" style="fill: var(--color1, #fff)" d="M50.596 10.681c-0.36 0.298-0.68 0.382-0.861-0.18 0.299-0.042 0.604 0.021 0.861 0.18z"></path>
<path fill="#fff" style="fill: var(--color1, #fff)" d="M45.641 10.501c-0.132 0.48-0.357 0.507-0.665 0.135 0.093-0.073 0.201-0.123 0.316-0.147s0.235-0.020 0.349 0.012z"></path>
</symbol>
    <symbol id="icon-partners4" viewBox="0 0 139 32">
<path fill="#fff" style="fill: var(--color1, #fff)" d="M75.514 0.371c1.702 0 3.376-0.057 5.036 0.020 1.11 0.050 1.786 0.827 1.909 1.935 0.037 0.332 0.055 0.666 0.055 1.001 0 5.581 0 11.163 0 16.744 0 0.604 0.041 0.647 0.648 0.647 0.447 0 0.894 0 1.36 0v4.279c-0.094 0.008-0.192 0.025-0.29 0.025-1.338 0-2.676 0-4.013 0-0.208 0.002-0.415-0.012-0.62-0.044-0.928-0.156-1.564-0.64-1.752-1.67-0.117 0.106-0.198 0.176-0.273 0.251-1.21 1.206-2.689 1.792-4.374 1.865-2.401 0.105-4.476-0.641-6.089-2.469-1.209-1.37-1.855-3.012-2.127-4.8-0.323-2.095-0.225-4.17 0.541-6.164 1.033-2.681 2.86-4.533 5.737-5.134 1.918-0.398 3.786-0.224 5.518 0.787 0.255 0.148 0.486 0.334 0.781 0.538v-1.278c0-0.577 0-1.153 0-1.731 0-0.419-0.082-0.5-0.509-0.504-0.506 0-1.013 0-1.538 0v-4.298zM77.653 16.151c0.038-0.943-0.135-1.883-0.503-2.751-0.622-1.396-1.636-2.266-3.223-2.318-1.566-0.050-2.742 0.653-3.41 2.034-0.967 2.003-0.94 4.064 0.042 6.061 0.626 1.276 1.722 1.931 3.151 1.935 1.385 0 2.466-0.6 3.181-1.797 0.595-0.989 0.757-2.089 0.762-3.164z"></path>
<path fill="#fff" style="fill: var(--color1, #fff)" d="M27.613 11.439v-4.322c0.088-0.015 0.176-0.026 0.265-0.030 1.349 0 2.7-0.021 4.049 0.015 0.435 0.020 0.864 0.112 1.27 0.273 0.596 0.225 0.892 0.733 1.017 1.385 0.060-0.041 0.118-0.085 0.174-0.133 1.59-1.576 3.543-2.109 5.706-1.91 3.418 0.317 5.566 2.285 6.627 5.442 0.937 2.8 0.904 5.642-0.265 8.384-1.109 2.599-3.040 4.281-5.879 4.771-2.105 0.362-4.062 0.008-5.757-1.385-0.050-0.041-0.107-0.076-0.211-0.148v7.997h-4.93v-19.709c0-0.607-0.021-0.628-0.618-0.63h-1.446zM42.343 15.728c-0.013-0.835-0.203-1.657-0.559-2.412-0.632-1.325-1.629-2.158-3.146-2.229-1.494-0.072-2.697 0.514-3.382 1.841-1.074 2.077-1.080 4.231 0.017 6.301 1.385 2.615 4.814 2.379 6.221 0.179 0.649-1.009 0.848-2.126 0.85-3.679z"></path>
<path fill="#fff" style="fill: var(--color1, #fff)" d="M7.089 23.76v8.016h-4.904v-0.435c0-6.426 0-12.852 0-19.277 0-0.595-0.026-0.62-0.626-0.622h-1.43v-4.327c0.075-0.015 0.151-0.024 0.227-0.028 1.361 0 2.724 0 4.085 0 0.265 0.004 0.528 0.037 0.786 0.099 0.824 0.199 1.16 0.546 1.519 1.531 0.028-0.009 0.066-0.011 0.085-0.030 1.21-1.26 2.718-1.882 4.435-1.988 2.447-0.159 4.582 0.561 6.249 2.417 1.193 1.325 1.845 2.916 2.133 4.651 0.382 2.307 0.276 4.583-0.663 6.753-1.134 2.604-3.048 4.303-5.904 4.794-2.090 0.359-4.040 0-5.731-1.37-0.062-0.048-0.13-0.090-0.26-0.183zM7.014 16.073c-0.027 1.053 0.208 2.096 0.684 3.035 1.417 2.745 4.891 2.508 6.299 0.305 1.15-1.793 1.146-4.92-0.037-6.688-1.581-2.362-4.97-2.179-6.293 0.342-0.494 0.941-0.645 1.96-0.653 3.007v-0.001z"></path>
<path fill="#fff" style="fill: var(--color1, #fff)" d="M52.752 17.15c0.168 1.783 1.625 3.38 3.407 3.783 1.878 0.424 3.556-0.095 5.111-1.131 0.362-0.24 0.689-0.53 1.053-0.815 0.368 0.611 0.735 1.222 1.102 1.833 0.29 0.484 0.567 0.977 0.872 1.451 0.132 0.208 0.113 0.331-0.070 0.494-1.281 1.157-2.838 1.965-4.522 2.346-3.268 0.74-6.313 0.265-8.945-1.927-1.871-1.559-2.844-3.627-3.089-6.028-0.229-2.253 0.133-4.4 1.312-6.352 1.479-2.431 3.69-3.733 6.494-4.065 1.539-0.183 3.048-0.045 4.472 0.584 2.451 1.083 3.801 3.048 4.374 5.6 0.295 1.308 0.256 2.632 0.132 3.957-0.028 0.308-0.221 0.265-0.414 0.265l-11.289 0.004zM59.456 13.448c-0.204-1.955-1.775-3.076-3.696-2.679-1.423 0.293-2.606 1.418-2.811 2.679h6.507z"></path>
<path fill="#fff" style="fill: var(--color1, #fff)" d="M136.532 18.966c0.718 1.206 1.418 2.386 2.13 3.578-0.591 0.602-1.273 1.108-2.022 1.498-3.38 1.787-6.818 1.975-10.218 0.145-2.65-1.425-4.097-3.757-4.49-6.718-0.334-2.527 0.074-4.929 1.53-7.069 1.491-2.192 3.621-3.352 6.23-3.655 1.65-0.192 3.254-0.021 4.755 0.716 2.261 1.111 3.522 2.999 4.079 5.405 0.31 1.343 0.265 2.7 0.142 4.061-0.021 0.217-0.14 0.228-0.302 0.228-0.473 0-0.946 0-1.419 0h-9.997c0.094 0.736 0.372 1.435 0.811 2.033 1.141 1.548 2.727 2.054 4.57 1.846 1.524-0.174 2.828-0.863 3.976-1.871 0.055-0.053 0.118-0.105 0.225-0.195zM127.16 13.448h6.508c-0.191-1.826-1.591-2.916-3.38-2.72-1.335 0.147-2.729 1.050-3.128 2.72z"></path>
<path fill="#fff" style="fill: var(--color1, #fff)" d="M104.161 11.439v-4.352c0.382 0 0.746-0.007 1.112 0 0.817 0.017 1.638 0 2.45 0.072 0.981 0.083 1.625 0.663 1.969 1.567 0.362 0.946 0.692 1.905 1.030 2.859 0.785 2.209 1.569 4.423 2.351 6.643 0.085 0.236 0.151 0.478 0.231 0.733 0.038-0.031 0.078-0.045 0.087-0.070 0.804-2.315 1.602-4.639 2.409-6.949 0.365-1.043 0.741-2.082 1.118-3.121 0.398-1.084 1.193-1.657 2.322-1.711 1.012-0.049 2.026-0.011 3.067-0.011v4.342h-0.586c-0.53 0-0.634 0.069-0.819 0.561-0.764 2.026-1.526 4.051-2.287 6.075-0.836 2.219-1.677 4.437-2.502 6.661-0.020 0.093-0.074 0.175-0.153 0.229s-0.174 0.076-0.268 0.062c-1.614-0.011-3.228-0.015-4.844 0-0.306 0-0.438-0.093-0.542-0.372-1.402-3.753-2.811-7.504-4.228-11.251-0.183-0.485-0.379-0.965-0.545-1.458-0.126-0.371-0.353-0.546-0.748-0.516-0.196 0.021-0.392 0.008-0.625 0.008z"></path>
<path fill="#fff" style="fill: var(--color1, #fff)" d="M90.612 25.001h-4.929v-0.398c0-4.141 0-8.282 0-12.422 0-0.081 0-0.162 0-0.243-0.009-0.444-0.065-0.502-0.502-0.504-0.506 0-1.014 0-1.548 0v-4.348h0.49c1.235 0 2.47 0 3.703 0 0.299-0.001 0.598 0.026 0.893 0.078 0.981 0.184 1.591 0.84 1.71 1.826 0.033 0.265 0.050 0.542 0.080 0.875 1.491-2.196 3.433-3.343 6.134-2.916v4.908c-0.438-0.025-0.859-0.069-1.281-0.070-2.196-0.009-4.002 1.41-4.438 3.569-0.185 0.948-0.285 1.911-0.3 2.877-0.044 2.11-0.014 4.221-0.014 6.331l0.002 0.436z"></path>
<path fill="#fff" style="fill: var(--color1, #fff)" d="M28.532 20.718v4.253c-0.037 0.020-0.056 0.040-0.076 0.040-1.59 0-3.181 0.033-4.771-0.015-1.279-0.038-2.020-0.857-2.113-2.197-0.015-0.219-0.012-0.437-0.012-0.663v-10.073c0-0.592-0.041-0.632-0.62-0.633h-1.435v-4.343h0.327c1.349 0 2.7 0 4.049 0 0.312-0.002 0.623 0.031 0.928 0.098 1.054 0.249 1.636 1.051 1.659 2.293 0.019 1.050 0.007 2.099 0.007 3.149 0 2.492 0 4.983 0 7.474 0 0.545 0.070 0.614 0.619 0.614l1.438 0.004z"></path>
<path fill="#fff" style="fill: var(--color1, #fff)" d="M97.163 7.15c1.59 0 3.141-0.065 4.689 0.024 1.023 0.058 1.643 0.795 1.784 1.817 0.042 0.32 0.065 0.642 0.065 0.965 0 3.366 0 6.733 0 10.1 0 0.62 0.042 0.663 0.672 0.663h1.39v4.274c-0.087 0.016-0.176 0.027-0.265 0.032-1.418 0-2.836 0-4.255 0-0.196 0.002-0.391-0.014-0.585-0.046-1.151-0.209-1.77-0.903-1.855-2.073-0.018-0.265-0.023-0.53-0.023-0.795 0-3.334 0-6.666 0-9.997 0-0.635-0.032-0.663-0.663-0.663h-0.964l0.009-4.301z"></path>
<path fill="#fff" style="fill: var(--color1, #fff)" d="M103.337 4.966h-4.337v-4.639h4.335l0.001 4.639z"></path>
<path fill="#fff" style="fill: var(--color1, #fff)" d="M21.774 4.953v-4.614h4.333v4.614h-4.333z"></path>
</symbol>
    <symbol id="icon-result-icon1" viewBox="0 0 28 32">
<path d="M13.924 3.548l5.207 3.007 2.64-1.52-7.847-4.533-13.107 7.573 2.627 1.52 10.48-6.047z"></path>
<path d="M24.399 6.555l-10.473 6.047-5.207-3.007-2.633 1.52 7.84 4.527 13.113-7.567-2.64-1.52z"></path>
<path d="M2.925 16.728l-2.633-1.52v9.053l13.107 7.573v-3.040l-10.473-6.053v-6.013z"></path>
<path d="M0.292 12.168l10.473 6.047v6.013l2.633 1.527v-9.060l-13.107-7.567v3.040z"></path>
<path d="M22.297 15.208v-3.040l-7.847 4.527v15.14l2.633-1.52v-12.1l5.213-3.007z"></path>
<path d="M24.925 10.648v12.093l-5.207 3.013v3.040l7.847-4.533v-15.133l-2.64 1.52z"></path>
</symbol>
    <symbol id="icon-result-icon2" viewBox="0 0 32 32">
<path d="M14.929 15.961c0 0.242 0.072 0.48 0.207 0.681s0.326 0.359 0.55 0.451c0.224 0.093 0.471 0.117 0.708 0.069s0.456-0.164 0.627-0.336c0.171-0.172 0.288-0.39 0.335-0.628s0.022-0.484-0.071-0.708c-0.093-0.224-0.251-0.415-0.452-0.549s-0.439-0.206-0.681-0.205c-0.325 0.001-0.636 0.13-0.865 0.36s-0.358 0.541-0.358 0.866z"></path>
<path d="M16.152 19.791c-0.242 0-0.479 0.072-0.681 0.206s-0.359 0.326-0.451 0.55c-0.093 0.224-0.117 0.47-0.070 0.708s0.164 0.456 0.335 0.627c0.171 0.171 0.39 0.288 0.627 0.335s0.484 0.023 0.708-0.070c0.224-0.093 0.415-0.25 0.55-0.451s0.206-0.438 0.206-0.681c0-0.325-0.129-0.637-0.359-0.866s-0.541-0.359-0.866-0.359z"></path>
<path d="M19.912 14.735c-0.242 0-0.479 0.072-0.681 0.207s-0.359 0.326-0.451 0.55c-0.093 0.224-0.117 0.47-0.070 0.708s0.164 0.456 0.335 0.627c0.171 0.171 0.39 0.288 0.627 0.335s0.484 0.023 0.708-0.070c0.224-0.093 0.415-0.25 0.55-0.451s0.207-0.438 0.207-0.681c0-0.325-0.129-0.637-0.359-0.867s-0.542-0.359-0.866-0.359z"></path>
<path d="M16.152 12.064c0.242 0.001 0.48-0.071 0.681-0.205s0.359-0.326 0.452-0.549c0.093-0.224 0.118-0.47 0.071-0.708s-0.163-0.456-0.335-0.628c-0.171-0.172-0.39-0.289-0.627-0.336s-0.484-0.023-0.708 0.069c-0.224 0.093-0.416 0.25-0.55 0.451s-0.207 0.439-0.207 0.681c0 0.325 0.129 0.636 0.358 0.866s0.54 0.359 0.865 0.36z"></path>
<path d="M13.592 15.819c0-0.242-0.072-0.479-0.207-0.681s-0.326-0.359-0.55-0.451c-0.224-0.093-0.47-0.117-0.708-0.070s-0.456 0.164-0.627 0.335c-0.171 0.171-0.288 0.39-0.335 0.627s-0.023 0.484 0.070 0.708c0.093 0.224 0.25 0.415 0.451 0.55s0.438 0.207 0.681 0.207c0.325 0 0.637-0.129 0.867-0.359s0.359-0.542 0.359-0.867z"></path>
<path d="M18.941 17.63c-0.438-0.441-0.684-1.038-0.684-1.66s0.246-1.218 0.684-1.66c0.171-0.172 0.287-0.39 0.334-0.627s0.022-0.484-0.071-0.707c-0.093-0.224-0.25-0.415-0.451-0.549s-0.438-0.206-0.68-0.206c-0.242 0-0.479 0.072-0.68 0.206s-0.358 0.326-0.451 0.549c-0.093 0.224-0.117 0.47-0.071 0.707s0.163 0.456 0.334 0.627c0.22 0.218 0.395 0.478 0.514 0.764s0.181 0.593 0.181 0.903c0 0.31-0.061 0.617-0.181 0.903s-0.294 0.546-0.514 0.764c-0.171 0.172-0.287 0.39-0.334 0.628s-0.022 0.484 0.071 0.707c0.093 0.224 0.25 0.415 0.451 0.549s0.438 0.206 0.68 0.206c0.242 0 0.479-0.072 0.68-0.206s0.358-0.326 0.451-0.549c0.093-0.224 0.117-0.47 0.071-0.707s-0.163-0.456-0.334-0.628v-0.015z"></path>
<path d="M15.413 18.345c-0.001-0.322-0.128-0.63-0.352-0.861-0.438-0.441-0.684-1.038-0.684-1.66s0.246-1.218 0.684-1.66c0.171-0.172 0.287-0.39 0.334-0.627s0.022-0.484-0.071-0.707c-0.093-0.224-0.25-0.415-0.451-0.549s-0.438-0.206-0.68-0.206c-0.242 0-0.479 0.072-0.68 0.206s-0.358 0.326-0.451 0.549c-0.093 0.224-0.117 0.47-0.071 0.707s0.163 0.456 0.334 0.627c0.22 0.218 0.394 0.478 0.513 0.764s0.18 0.593 0.18 0.902c0 0.31-0.061 0.616-0.18 0.902s-0.294 0.545-0.513 0.764c-0.141 0.143-0.245 0.319-0.302 0.512s-0.066 0.397-0.026 0.594c0.040 0.197 0.129 0.381 0.257 0.536s0.293 0.276 0.479 0.352c0.186 0.076 0.388 0.106 0.588 0.085s0.392-0.089 0.559-0.201c0.167-0.112 0.304-0.263 0.399-0.441s0.144-0.375 0.145-0.576l-0.010-0.012z"></path>
</symbol>
    <symbol id="icon-result-icon3" viewBox="0 0 28 32">
<path d="M0.74 9.186c0.13 0 0.236-0.106 0.236-0.236s-0.106-0.236-0.236-0.236c-0.13 0-0.236 0.106-0.236 0.236s0.106 0.236 0.236 0.236z"></path>
<path d="M5.962 9.146c0.13 0 0.236-0.105 0.236-0.236s-0.106-0.236-0.236-0.236c-0.13 0-0.236 0.106-0.236 0.236s0.106 0.236 0.236 0.236z"></path>
<path d="M3.35 10.685c0.13 0 0.236-0.106 0.236-0.236s-0.106-0.236-0.236-0.236c-0.13 0-0.236 0.106-0.236 0.236s0.106 0.236 0.236 0.236z"></path>
<path d="M0.74 12.229c0.13 0 0.236-0.106 0.236-0.236s-0.106-0.236-0.236-0.236c-0.13 0-0.236 0.106-0.236 0.236s0.106 0.236 0.236 0.236z"></path>
<path d="M13.793 7.81c0.27 0 0.488-0.219 0.488-0.488s-0.219-0.488-0.488-0.488c-0.27 0-0.488 0.219-0.488 0.488s0.219 0.488 0.488 0.488z"></path>
<path d="M11.181 9.354c0.27 0 0.488-0.219 0.488-0.488s-0.219-0.488-0.488-0.488c-0.27 0-0.488 0.219-0.488 0.488s0.219 0.488 0.488 0.488z"></path>
<path d="M8.572 10.898c0.27 0 0.488-0.219 0.488-0.488s-0.219-0.488-0.488-0.488-0.488 0.219-0.488 0.488c0 0.27 0.219 0.488 0.488 0.488z"></path>
<path d="M5.962 12.442c0.27 0 0.488-0.219 0.488-0.488s-0.219-0.488-0.488-0.488-0.488 0.219-0.488 0.488c0 0.27 0.219 0.488 0.488 0.488z"></path>
<path d="M3.35 13.98c0.27 0 0.488-0.219 0.488-0.488s-0.219-0.488-0.488-0.488-0.488 0.219-0.488 0.488c0 0.27 0.219 0.488 0.488 0.488z"></path>
<path d="M0.74 15.271c0.13 0 0.236-0.106 0.236-0.236s-0.106-0.236-0.236-0.236c-0.13 0-0.236 0.106-0.236 0.236s0.106 0.236 0.236 0.236z"></path>
<path d="M13.793 11.342c0.539 0 0.977-0.437 0.977-0.977s-0.437-0.977-0.977-0.977c-0.54 0-0.977 0.437-0.977 0.977s0.437 0.977 0.977 0.977z"></path>
<path d="M11.183 12.885c0.539 0 0.977-0.437 0.977-0.977s-0.437-0.977-0.977-0.977c-0.54 0-0.977 0.437-0.977 0.977s0.437 0.977 0.977 0.977z"></path>
<path d="M8.571 14.429c0.54 0 0.977-0.437 0.977-0.977s-0.437-0.977-0.977-0.977c-0.539 0-0.977 0.437-0.977 0.977s0.437 0.977 0.977 0.977z"></path>
<path d="M5.962 15.968c0.539 0 0.977-0.437 0.977-0.977s-0.437-0.977-0.977-0.977c-0.54 0-0.977 0.437-0.977 0.977s0.437 0.977 0.977 0.977z"></path>
<path d="M3.35 17.023c0.27 0 0.488-0.219 0.488-0.488s-0.219-0.488-0.488-0.488c-0.27 0-0.488 0.219-0.488 0.488s0.219 0.488 0.488 0.488z"></path>
<path d="M0.74 18.314c0.13 0 0.236-0.106 0.236-0.236s-0.106-0.236-0.236-0.236c-0.13 0-0.236 0.106-0.236 0.236s0.106 0.236 0.236 0.236z"></path>
<path d="M13.793 14.384c0.539 0 0.977-0.437 0.977-0.977s-0.437-0.977-0.977-0.977c-0.54 0-0.977 0.437-0.977 0.977s0.437 0.977 0.977 0.977z"></path>
<path d="M11.183 15.928c0.539 0 0.977-0.437 0.977-0.977s-0.437-0.977-0.977-0.977c-0.54 0-0.977 0.437-0.977 0.977s0.437 0.977 0.977 0.977z"></path>
<path d="M8.571 17.466c0.54 0 0.977-0.437 0.977-0.977s-0.437-0.977-0.977-0.977c-0.539 0-0.977 0.437-0.977 0.977s0.437 0.977 0.977 0.977z"></path>
<path d="M5.962 19.010c0.539 0 0.977-0.437 0.977-0.977s-0.437-0.977-0.977-0.977c-0.54 0-0.977 0.437-0.977 0.977s0.437 0.977 0.977 0.977z"></path>
<path d="M3.35 20.066c0.27 0 0.488-0.219 0.488-0.488s-0.219-0.488-0.488-0.488c-0.27 0-0.488 0.219-0.488 0.488s0.219 0.488 0.488 0.488z"></path>
<path d="M0.74 21.357c0.13 0 0.236-0.106 0.236-0.236s-0.106-0.236-0.236-0.236c-0.13 0-0.236 0.106-0.236 0.236s0.106 0.236 0.236 0.236z"></path>
<path d="M13.793 16.939c0.27 0 0.488-0.219 0.488-0.488s-0.219-0.488-0.488-0.488c-0.27 0-0.488 0.219-0.488 0.488s0.219 0.488 0.488 0.488z"></path>
<path d="M11.181 18.477c0.27 0 0.488-0.219 0.488-0.488s-0.219-0.488-0.488-0.488c-0.27 0-0.488 0.219-0.488 0.488s0.219 0.488 0.488 0.488z"></path>
<path d="M8.572 20.021c0.27 0 0.488-0.219 0.488-0.488s-0.219-0.488-0.488-0.488-0.488 0.219-0.488 0.488c0 0.27 0.219 0.488 0.488 0.488z"></path>
<path d="M5.962 21.565c0.27 0 0.488-0.219 0.488-0.488s-0.219-0.488-0.488-0.488-0.488 0.219-0.488 0.488c0 0.27 0.219 0.488 0.488 0.488z"></path>
<path d="M3.35 22.856c0.13 0 0.236-0.106 0.236-0.236s-0.106-0.236-0.236-0.236c-0.13 0-0.236 0.106-0.236 0.236s0.106 0.236 0.236 0.236z"></path>
<path d="M0.74 24.4c0.13 0 0.236-0.106 0.236-0.236s-0.106-0.236-0.236-0.236c-0.13 0-0.236 0.106-0.236 0.236s0.106 0.236 0.236 0.236z"></path>
<path d="M13.793 19.723c0.13 0 0.236-0.106 0.236-0.236s-0.106-0.236-0.236-0.236c-0.13 0-0.236 0.106-0.236 0.236s0.106 0.236 0.236 0.236z"></path>
<path d="M11.183 21.267c0.13 0 0.236-0.106 0.236-0.236s-0.106-0.236-0.236-0.236c-0.13 0-0.236 0.106-0.236 0.236s0.106 0.236 0.236 0.236z"></path>
<path d="M8.571 22.811c0.13 0 0.236-0.106 0.236-0.236s-0.106-0.236-0.236-0.236-0.236 0.106-0.236 0.236c0 0.13 0.106 0.236 0.236 0.236z"></path>
<path d="M5.962 24.355c0.13 0 0.236-0.106 0.236-0.236s-0.106-0.236-0.236-0.236c-0.13 0-0.236 0.106-0.236 0.236s0.106 0.236 0.236 0.236z"></path>
<path d="M3.35 25.899c0.13 0 0.236-0.106 0.236-0.236s-0.106-0.236-0.236-0.236c-0.13 0-0.236 0.106-0.236 0.236s0.106 0.236 0.236 0.236z"></path>
<path d="M13.793 22.766c0.13 0 0.236-0.106 0.236-0.236s-0.106-0.236-0.236-0.236c-0.13 0-0.236 0.106-0.236 0.236s0.106 0.236 0.236 0.236z"></path>
<path d="M11.183 24.31c0.13 0 0.236-0.106 0.236-0.236s-0.106-0.236-0.236-0.236c-0.13 0-0.236 0.106-0.236 0.236s0.106 0.236 0.236 0.236z"></path>
<path d="M8.571 25.854c0.13 0 0.236-0.106 0.236-0.236s-0.106-0.236-0.236-0.236c-0.13 0-0.236 0.106-0.236 0.236s0.106 0.236 0.236 0.236z"></path>
<path d="M5.962 27.398c0.13 0 0.236-0.106 0.236-0.236s-0.106-0.236-0.236-0.236c-0.13 0-0.236 0.106-0.236 0.236s0.106 0.236 0.236 0.236z"></path>
<path d="M13.793 25.809c0.13 0 0.236-0.106 0.236-0.236s-0.106-0.236-0.236-0.236c-0.13 0-0.236 0.106-0.236 0.236s0.106 0.236 0.236 0.236z"></path>
<path d="M11.183 27.353c0.13 0 0.236-0.106 0.236-0.236s-0.106-0.236-0.236-0.236c-0.13 0-0.236 0.106-0.236 0.236s0.106 0.236 0.236 0.236z"></path>
<path d="M8.571 28.897c0.13 0 0.236-0.106 0.236-0.236s-0.106-0.236-0.236-0.236-0.236 0.106-0.236 0.236c0 0.13 0.106 0.236 0.236 0.236z"></path>
<path d="M13.793 28.852c0.13 0 0.236-0.106 0.236-0.236s-0.106-0.236-0.236-0.236c-0.13 0-0.236 0.106-0.236 0.236s0.106 0.236 0.236 0.236z"></path>
<path d="M11.183 30.395c0.13 0 0.236-0.106 0.236-0.236s-0.106-0.236-0.236-0.236c-0.13 0-0.236 0.106-0.236 0.236s0.106 0.236 0.236 0.236z"></path>
<path d="M13.793 31.895c0.13 0 0.236-0.106 0.236-0.236s-0.106-0.236-0.236-0.236c-0.13 0-0.236 0.106-0.236 0.236s0.106 0.236 0.236 0.236z"></path>
<path d="M26.813 9.186c0.13 0 0.236-0.106 0.236-0.236s-0.106-0.236-0.236-0.236c-0.13 0-0.236 0.106-0.236 0.236s0.106 0.236 0.236 0.236z"></path>
<path d="M21.584 9.146c0.13 0 0.236-0.105 0.236-0.236s-0.106-0.236-0.236-0.236c-0.13 0-0.236 0.106-0.236 0.236s0.106 0.236 0.236 0.236z"></path>
<path d="M24.201 10.685c0.13 0 0.236-0.106 0.236-0.236s-0.106-0.236-0.236-0.236c-0.13 0-0.236 0.106-0.236 0.236s0.106 0.236 0.236 0.236z"></path>
<path d="M26.813 12.229c0.13 0 0.236-0.106 0.236-0.236s-0.106-0.236-0.236-0.236c-0.13 0-0.236 0.106-0.236 0.236s0.106 0.236 0.236 0.236z"></path>
<path d="M13.754 7.81c0.27 0 0.488-0.219 0.488-0.488s-0.219-0.488-0.488-0.488-0.488 0.219-0.488 0.488c0 0.27 0.219 0.488 0.488 0.488z"></path>
<path d="M16.363 9.354c0.27 0 0.488-0.219 0.488-0.488s-0.219-0.488-0.488-0.488c-0.27 0-0.488 0.219-0.488 0.488s0.219 0.488 0.488 0.488z"></path>
<path d="M18.975 10.898c0.27 0 0.488-0.219 0.488-0.488s-0.219-0.488-0.488-0.488-0.488 0.219-0.488 0.488c0 0.27 0.219 0.488 0.488 0.488z"></path>
<path d="M21.585 12.442c0.27 0 0.488-0.219 0.488-0.488s-0.219-0.488-0.488-0.488-0.488 0.219-0.488 0.488c0 0.27 0.219 0.488 0.488 0.488z"></path>
<path d="M24.201 13.98c0.27 0 0.488-0.219 0.488-0.488s-0.219-0.488-0.488-0.488-0.488 0.219-0.488 0.488c0 0.27 0.219 0.488 0.488 0.488z"></path>
<path d="M26.813 15.271c0.13 0 0.236-0.106 0.236-0.236s-0.106-0.236-0.236-0.236c-0.13 0-0.236 0.106-0.236 0.236s0.106 0.236 0.236 0.236z"></path>
<path d="M13.753 11.342c0.54 0 0.977-0.437 0.977-0.977s-0.437-0.977-0.977-0.977c-0.54 0-0.977 0.437-0.977 0.977s0.437 0.977 0.977 0.977z"></path>
<path d="M16.365 12.885c0.54 0 0.977-0.437 0.977-0.977s-0.437-0.977-0.977-0.977c-0.54 0-0.977 0.437-0.977 0.977s0.437 0.977 0.977 0.977z"></path>
<path d="M18.975 14.429c0.54 0 0.977-0.437 0.977-0.977s-0.437-0.977-0.977-0.977c-0.54 0-0.977 0.437-0.977 0.977s0.437 0.977 0.977 0.977z"></path>
<path d="M21.584 15.968c0.54 0 0.977-0.437 0.977-0.977s-0.437-0.977-0.977-0.977c-0.539 0-0.977 0.437-0.977 0.977s0.437 0.977 0.977 0.977z"></path>
<path d="M24.201 17.023c0.27 0 0.488-0.219 0.488-0.488s-0.219-0.488-0.488-0.488c-0.27 0-0.488 0.219-0.488 0.488s0.219 0.488 0.488 0.488z"></path>
<path d="M26.813 18.314c0.13 0 0.236-0.106 0.236-0.236s-0.106-0.236-0.236-0.236c-0.13 0-0.236 0.106-0.236 0.236s0.106 0.236 0.236 0.236z"></path>
<path d="M13.753 14.384c0.54 0 0.977-0.437 0.977-0.977s-0.437-0.977-0.977-0.977-0.977 0.437-0.977 0.977c0 0.54 0.437 0.977 0.977 0.977z"></path>
<path d="M16.365 15.928c0.54 0 0.977-0.437 0.977-0.977s-0.437-0.977-0.977-0.977-0.977 0.437-0.977 0.977c0 0.54 0.437 0.977 0.977 0.977z"></path>
<path d="M18.975 17.466c0.54 0 0.977-0.437 0.977-0.977s-0.437-0.977-0.977-0.977-0.977 0.437-0.977 0.977c0 0.54 0.437 0.977 0.977 0.977z"></path>
<path d="M21.584 19.010c0.54 0 0.977-0.437 0.977-0.977s-0.437-0.977-0.977-0.977c-0.539 0-0.977 0.437-0.977 0.977s0.437 0.977 0.977 0.977z"></path>
<path d="M24.201 20.066c0.27 0 0.488-0.219 0.488-0.488s-0.219-0.488-0.488-0.488c-0.27 0-0.488 0.219-0.488 0.488s0.219 0.488 0.488 0.488z"></path>
<path d="M26.813 21.357c0.13 0 0.236-0.106 0.236-0.236s-0.106-0.236-0.236-0.236c-0.13 0-0.236 0.106-0.236 0.236s0.106 0.236 0.236 0.236z"></path>
<path d="M13.754 16.939c0.27 0 0.488-0.219 0.488-0.488s-0.219-0.488-0.488-0.488c-0.27 0-0.488 0.219-0.488 0.488s0.219 0.488 0.488 0.488z"></path>
<path d="M16.363 18.477c0.27 0 0.488-0.219 0.488-0.488s-0.219-0.488-0.488-0.488c-0.27 0-0.488 0.219-0.488 0.488s0.219 0.488 0.488 0.488z"></path>
<path d="M18.975 20.021c0.27 0 0.488-0.219 0.488-0.488s-0.219-0.488-0.488-0.488-0.488 0.219-0.488 0.488c0 0.27 0.219 0.488 0.488 0.488z"></path>
<path d="M21.585 21.565c0.27 0 0.488-0.219 0.488-0.488s-0.219-0.488-0.488-0.488-0.488 0.219-0.488 0.488c0 0.27 0.219 0.488 0.488 0.488z"></path>
<path d="M24.201 22.856c0.13 0 0.236-0.106 0.236-0.236s-0.106-0.236-0.236-0.236c-0.13 0-0.236 0.106-0.236 0.236s0.106 0.236 0.236 0.236z"></path>
<path d="M26.813 24.4c0.13 0 0.236-0.106 0.236-0.236s-0.106-0.236-0.236-0.236c-0.13 0-0.236 0.106-0.236 0.236s0.106 0.236 0.236 0.236z"></path>
<path d="M13.753 19.723c0.13 0 0.236-0.106 0.236-0.236s-0.106-0.236-0.236-0.236c-0.13 0-0.236 0.106-0.236 0.236s0.106 0.236 0.236 0.236z"></path>
<path d="M16.365 21.267c0.13 0 0.236-0.106 0.236-0.236s-0.106-0.236-0.236-0.236-0.236 0.106-0.236 0.236c0 0.13 0.106 0.236 0.236 0.236z"></path>
<path d="M18.975 22.811c0.13 0 0.236-0.106 0.236-0.236s-0.106-0.236-0.236-0.236-0.236 0.106-0.236 0.236c0 0.13 0.106 0.236 0.236 0.236z"></path>
<path d="M21.584 24.355c0.13 0 0.236-0.106 0.236-0.236s-0.106-0.236-0.236-0.236c-0.13 0-0.236 0.106-0.236 0.236s0.106 0.236 0.236 0.236z"></path>
<path d="M24.201 25.899c0.13 0 0.236-0.106 0.236-0.236s-0.106-0.236-0.236-0.236c-0.13 0-0.236 0.106-0.236 0.236s0.106 0.236 0.236 0.236z"></path>
<path d="M13.753 22.766c0.13 0 0.236-0.106 0.236-0.236s-0.106-0.236-0.236-0.236c-0.13 0-0.236 0.106-0.236 0.236s0.106 0.236 0.236 0.236z"></path>
<path d="M16.365 24.31c0.13 0 0.236-0.106 0.236-0.236s-0.106-0.236-0.236-0.236c-0.13 0-0.236 0.106-0.236 0.236s0.106 0.236 0.236 0.236z"></path>
<path d="M18.975 25.854c0.13 0 0.236-0.106 0.236-0.236s-0.106-0.236-0.236-0.236c-0.13 0-0.236 0.106-0.236 0.236s0.106 0.236 0.236 0.236z"></path>
<path d="M21.584 27.398c0.13 0 0.236-0.106 0.236-0.236s-0.106-0.236-0.236-0.236c-0.13 0-0.236 0.106-0.236 0.236s0.106 0.236 0.236 0.236z"></path>
<path d="M13.753 25.809c0.13 0 0.236-0.106 0.236-0.236s-0.106-0.236-0.236-0.236c-0.13 0-0.236 0.106-0.236 0.236s0.106 0.236 0.236 0.236z"></path>
<path d="M16.365 27.353c0.13 0 0.236-0.106 0.236-0.236s-0.106-0.236-0.236-0.236-0.236 0.106-0.236 0.236c0 0.13 0.106 0.236 0.236 0.236z"></path>
<path d="M18.975 28.897c0.13 0 0.236-0.106 0.236-0.236s-0.106-0.236-0.236-0.236-0.236 0.106-0.236 0.236c0 0.13 0.106 0.236 0.236 0.236z"></path>
<path d="M13.753 28.852c0.13 0 0.236-0.106 0.236-0.236s-0.106-0.236-0.236-0.236c-0.13 0-0.236 0.106-0.236 0.236s0.106 0.236 0.236 0.236z"></path>
<path d="M16.365 30.395c0.13 0 0.236-0.106 0.236-0.236s-0.106-0.236-0.236-0.236-0.236 0.106-0.236 0.236c0 0.13 0.106 0.236 0.236 0.236z"></path>
<path d="M13.753 31.895c0.13 0 0.236-0.106 0.236-0.236s-0.106-0.236-0.236-0.236c-0.13 0-0.236 0.106-0.236 0.236s0.106 0.236 0.236 0.236z"></path>
<path d="M13.484 0.894c0.13 0 0.236-0.106 0.236-0.236s-0.106-0.236-0.236-0.236c-0.13 0-0.236 0.106-0.236 0.236s0.106 0.236 0.236 0.236z"></path>
<path d="M10.874 2.438c0.13 0 0.236-0.106 0.236-0.236s-0.106-0.236-0.236-0.236c-0.13 0-0.236 0.106-0.236 0.236s0.106 0.236 0.236 0.236z"></path>
<path d="M8.262 3.981c0.13 0 0.236-0.106 0.236-0.236s-0.106-0.236-0.236-0.236c-0.13 0-0.236 0.106-0.236 0.236s0.106 0.236 0.236 0.236z"></path>
<path d="M5.652 5.525c0.13 0 0.236-0.106 0.236-0.236s-0.106-0.236-0.236-0.236c-0.13 0-0.236 0.106-0.236 0.236s0.106 0.236 0.236 0.236z"></path>
<path d="M3.043 7.069c0.13 0 0.236-0.106 0.236-0.236s-0.106-0.236-0.236-0.236c-0.13 0-0.236 0.106-0.236 0.236s0.106 0.236 0.236 0.236z"></path>
<path d="M13.484 3.937c0.13 0 0.236-0.106 0.236-0.236s-0.106-0.236-0.236-0.236c-0.13 0-0.236 0.106-0.236 0.236s0.106 0.236 0.236 0.236z"></path>
<path d="M10.874 5.481c0.13 0 0.236-0.106 0.236-0.236s-0.106-0.236-0.236-0.236c-0.13 0-0.236 0.106-0.236 0.236s0.106 0.236 0.236 0.236z"></path>
<path d="M8.262 7.024c0.13 0 0.236-0.106 0.236-0.236s-0.106-0.236-0.236-0.236c-0.13 0-0.236 0.106-0.236 0.236s0.106 0.236 0.236 0.236z"></path>
<path d="M13.444 0.894c0.13 0 0.236-0.106 0.236-0.236s-0.106-0.236-0.236-0.236c-0.13 0-0.236 0.106-0.236 0.236s0.106 0.236 0.236 0.236z"></path>
<path d="M16.056 2.438c0.13 0 0.236-0.106 0.236-0.236s-0.106-0.236-0.236-0.236c-0.13 0-0.236 0.106-0.236 0.236s0.106 0.236 0.236 0.236z"></path>
<path d="M18.666 3.981c0.13 0 0.236-0.106 0.236-0.236s-0.106-0.236-0.236-0.236c-0.13 0-0.236 0.106-0.236 0.236s0.106 0.236 0.236 0.236z"></path>
<path d="M21.277 5.525c0.13 0 0.236-0.106 0.236-0.236s-0.106-0.236-0.236-0.236-0.236 0.106-0.236 0.236c0 0.13 0.106 0.236 0.236 0.236z"></path>
<path d="M23.891 7.069c0.13 0 0.236-0.106 0.236-0.236s-0.106-0.236-0.236-0.236-0.236 0.106-0.236 0.236c0 0.13 0.106 0.236 0.236 0.236z"></path>
<path d="M13.444 3.937c0.13 0 0.236-0.106 0.236-0.236s-0.106-0.236-0.236-0.236c-0.13 0-0.236 0.106-0.236 0.236s0.106 0.236 0.236 0.236z"></path>
<path d="M16.056 5.481c0.13 0 0.236-0.106 0.236-0.236s-0.106-0.236-0.236-0.236c-0.13 0-0.236 0.106-0.236 0.236s0.106 0.236 0.236 0.236z"></path>
<path d="M18.666 7.024c0.13 0 0.236-0.106 0.236-0.236s-0.106-0.236-0.236-0.236c-0.13 0-0.236 0.106-0.236 0.236s0.106 0.236 0.236 0.236z"></path>
</symbol>
    <symbol id="icon-result-icon4" viewBox="0 0 34 32">
<path d="M5.259 11.543c0.285-0.008 0.568 0.054 0.824 0.181l2.449 1.416c0.232 0.163 0.427 0.374 0.569 0.62s0.229 0.519 0.255 0.802v2.821c-0.026 0.282-0.114 0.556-0.256 0.801s-0.336 0.457-0.568 0.621l-2.449 1.416c-0.256 0.125-0.539 0.185-0.824 0.175-0.283 0.011-0.564-0.049-0.818-0.175l-2.454-1.416c-0.232-0.163-0.426-0.375-0.568-0.621s-0.23-0.519-0.256-0.801v-2.821c0.026-0.283 0.113-0.556 0.255-0.802s0.336-0.457 0.569-0.62l2.454-1.416c0.253-0.128 0.535-0.19 0.818-0.181zM5.259 10.414c-0.482-0.009-0.958 0.106-1.382 0.333l-2.454 1.433c-0.403 0.263-0.738 0.617-0.979 1.034s-0.381 0.884-0.409 1.364v2.821c0.028 0.48 0.168 0.948 0.409 1.364s0.577 0.771 0.979 1.034l2.454 1.416c0.425 0.225 0.901 0.338 1.382 0.327 0.483 0.010 0.961-0.102 1.388-0.327l2.449-1.416c0.403-0.263 0.738-0.617 0.979-1.034s0.381-0.884 0.409-1.364v-2.821c-0.028-0.48-0.168-0.948-0.409-1.364s-0.577-0.771-0.979-1.034l-2.449-1.416c-0.427-0.227-0.905-0.341-1.388-0.333v-0.017z"></path>
<path d="M16.765 11.543c0.283-0.008 0.564 0.054 0.818 0.181l2.454 1.416c0.231 0.164 0.423 0.376 0.565 0.621s0.228 0.518 0.253 0.8v2.821c-0.027 0.282-0.113 0.555-0.254 0.8s-0.333 0.457-0.564 0.622l-2.454 1.416c-0.254 0.125-0.535 0.185-0.818 0.175-0.285 0.010-0.568-0.050-0.824-0.175l-2.454-1.416c-0.23-0.165-0.423-0.377-0.564-0.622s-0.228-0.518-0.254-0.8v-2.821c0.026-0.282 0.112-0.555 0.253-0.8s0.334-0.457 0.565-0.621l2.454-1.416c0.256-0.127 0.539-0.189 0.824-0.181zM16.765 10.414c-0.483-0.008-0.961 0.106-1.388 0.333l-2.454 1.433c-0.402 0.264-0.737 0.618-0.977 1.034s-0.379 0.884-0.406 1.364v2.821c0.027 0.48 0.165 0.947 0.406 1.364s0.575 0.771 0.977 1.034l2.454 1.416c0.427 0.225 0.905 0.338 1.388 0.327 0.481 0.011 0.957-0.102 1.382-0.327l2.454-1.416c0.402-0.264 0.737-0.618 0.977-1.034s0.379-0.884 0.406-1.364v-2.821c-0.026-0.48-0.165-0.947-0.406-1.364s-0.575-0.771-0.977-1.034l-2.454-1.416c-0.425-0.227-0.901-0.342-1.382-0.333v-0.017z"></path>
<path d="M28.263 11.543c0.285-0.008 0.568 0.054 0.824 0.181l2.449 1.416c0.232 0.163 0.427 0.374 0.569 0.62s0.229 0.519 0.255 0.802v2.821c-0.026 0.282-0.114 0.556-0.256 0.801s-0.336 0.457-0.568 0.621l-2.449 1.416c-0.256 0.125-0.539 0.185-0.824 0.175-0.283 0.011-0.564-0.049-0.818-0.175l-2.454-1.416c-0.232-0.163-0.426-0.375-0.568-0.621s-0.23-0.519-0.256-0.801v-2.821c0.026-0.283 0.113-0.556 0.255-0.802s0.336-0.457 0.569-0.62l2.454-1.416c0.253-0.128 0.535-0.19 0.818-0.181zM28.263 10.414c-0.482-0.009-0.958 0.106-1.382 0.333l-2.454 1.433c-0.403 0.263-0.738 0.617-0.979 1.034s-0.381 0.884-0.409 1.364v2.821c0.028 0.48 0.168 0.948 0.409 1.364s0.577 0.771 0.979 1.034l2.454 1.416c0.425 0.225 0.901 0.338 1.382 0.327 0.483 0.010 0.961-0.102 1.388-0.327l2.449-1.416c0.403-0.263 0.738-0.617 0.979-1.034s0.381-0.884 0.409-1.364v-2.821c-0.028-0.48-0.167-0.948-0.409-1.364s-0.577-0.771-0.979-1.034l-2.449-1.416c-0.427-0.227-0.905-0.341-1.388-0.333v-0.017z"></path>
<path d="M11.009 21.592c0.287-0.010 0.572 0.052 0.829 0.181l2.454 1.416c0.231 0.164 0.423 0.376 0.565 0.621s0.228 0.518 0.254 0.8v2.821c-0.027 0.282-0.114 0.554-0.255 0.799s-0.333 0.457-0.563 0.622l-2.454 1.428c-0.258 0.115-0.538 0.175-0.821 0.175s-0.563-0.060-0.821-0.175l-2.454-1.416c-0.23-0.165-0.422-0.377-0.563-0.623s-0.228-0.518-0.255-0.799v-2.821c0.026-0.282 0.112-0.555 0.253-0.8s0.334-0.457 0.565-0.621l2.455-1.416c0.254-0.127 0.535-0.189 0.818-0.181l-0.006-0.011zM11.015 20.475c-0.481-0.011-0.957 0.102-1.382 0.327l-2.454 1.416c-0.402 0.265-0.737 0.62-0.977 1.038s-0.379 0.885-0.405 1.366v2.821c0.027 0.48 0.166 0.947 0.406 1.363s0.575 0.771 0.976 1.035l2.454 1.416c0.425 0.225 0.901 0.338 1.382 0.327 0.483 0.010 0.961-0.102 1.388-0.327l2.455-1.416c0.402-0.264 0.736-0.618 0.976-1.035s0.379-0.883 0.406-1.363v-2.821c-0.027-0.481-0.165-0.949-0.405-1.366s-0.575-0.773-0.977-1.038l-2.455-1.428c-0.427-0.225-0.905-0.338-1.388-0.327v0.011z"></path>
<path d="M22.515 21.592c0.284-0.009 0.565 0.053 0.818 0.181l2.454 1.416c0.232 0.163 0.427 0.375 0.569 0.62s0.229 0.519 0.255 0.802v2.821c-0.027 0.282-0.115 0.555-0.257 0.801s-0.335 0.457-0.567 0.621l-2.454 1.416c-0.255 0.123-0.535 0.183-0.818 0.175-0.284 0.007-0.567-0.053-0.824-0.175l-2.449-1.416c-0.231-0.164-0.425-0.376-0.567-0.621s-0.23-0.518-0.257-0.801v-2.821c0.026-0.283 0.113-0.556 0.255-0.802s0.336-0.457 0.569-0.62l2.449-1.416c0.256-0.127 0.539-0.189 0.824-0.181zM22.515 20.464c-0.483-0.010-0.961 0.102-1.388 0.327l-2.449 1.416c-0.403 0.264-0.738 0.62-0.98 1.037s-0.381 0.885-0.409 1.367v2.821c0.028 0.48 0.168 0.948 0.409 1.364s0.576 0.771 0.979 1.034l2.449 1.416c0.427 0.225 0.905 0.338 1.388 0.327 0.481 0.011 0.957-0.102 1.382-0.327l2.454-1.416c0.403-0.264 0.738-0.618 0.979-1.034s0.381-0.884 0.409-1.364v-2.821c-0.028-0.481-0.168-0.949-0.409-1.367s-0.576-0.773-0.98-1.037l-2.454-1.416c-0.425-0.225-0.901-0.338-1.382-0.327z"></path>
<path d="M11.009 1.494c0.285-0.009 0.568 0.053 0.824 0.181l2.454 1.416c0.231 0.164 0.423 0.376 0.565 0.621s0.228 0.518 0.253 0.8v2.821c-0.027 0.282-0.113 0.555-0.255 0.8s-0.333 0.457-0.564 0.622l-2.449 1.428c-0.258 0.115-0.538 0.175-0.821 0.175s-0.563-0.060-0.821-0.175l-2.46-1.388c-0.23-0.165-0.423-0.377-0.564-0.622s-0.228-0.518-0.255-0.8v-2.821c0.026-0.282 0.112-0.555 0.253-0.8s0.334-0.457 0.565-0.621l2.455-1.416c0.254-0.127 0.535-0.189 0.818-0.181v-0.040zM11.009 0.405c-0.482-0.009-0.958 0.106-1.382 0.333l-2.455 1.416c-0.402 0.264-0.737 0.618-0.977 1.034s-0.379 0.884-0.406 1.364v2.821c0.027 0.48 0.165 0.947 0.406 1.364s0.575 0.771 0.977 1.034l2.455 1.416c0.425 0.225 0.901 0.338 1.382 0.327 0.483 0.010 0.961-0.102 1.388-0.327l2.454-1.416c0.402-0.264 0.737-0.618 0.977-1.034s0.379-0.884 0.406-1.364v-2.821c-0.027-0.48-0.165-0.947-0.406-1.364s-0.575-0.771-0.977-1.034l-2.449-1.456c-0.427-0.227-0.905-0.341-1.388-0.333l-0.006 0.040z"></path>
<path d="M22.515 1.494c0.284-0.009 0.565 0.053 0.818 0.181l2.454 1.416c0.232 0.163 0.427 0.374 0.569 0.62s0.229 0.519 0.255 0.802v2.821c-0.026 0.282-0.114 0.556-0.256 0.801s-0.336 0.457-0.568 0.621l-2.454 1.416c-0.254 0.126-0.535 0.186-0.818 0.175-0.285 0.010-0.567-0.050-0.824-0.175l-2.449-1.377c-0.232-0.163-0.426-0.375-0.568-0.621s-0.23-0.519-0.256-0.801v-2.821c0.026-0.283 0.113-0.556 0.255-0.802s0.336-0.457 0.569-0.62l2.449-1.416c0.256-0.127 0.539-0.189 0.824-0.181v-0.039zM22.515 0.404c-0.483-0.008-0.961 0.106-1.388 0.333l-2.449 1.416c-0.403 0.263-0.738 0.617-0.979 1.034s-0.381 0.884-0.409 1.364v2.821c0.028 0.481 0.168 0.948 0.409 1.364s0.577 0.771 0.979 1.034l2.449 1.416c0.427 0.225 0.905 0.338 1.388 0.327 0.481 0.011 0.957-0.102 1.382-0.327l2.454-1.416c0.403-0.263 0.738-0.617 0.979-1.034s0.381-0.884 0.409-1.364v-2.821c-0.028-0.481-0.168-0.948-0.409-1.364s-0.577-0.771-0.979-1.034l-2.454-1.416c-0.425-0.227-0.901-0.342-1.382-0.333z"></path>
</symbol>
    <symbol id="icon-result-icon5" viewBox="0 0 46 32">
<path d="M24.383 17.439l-6.877 11.934-6.877-11.934h13.754zM26.225 16.373h-17.446l8.727 15.112 8.719-15.112z"></path>
<path d="M36.34 2.596l6.877 11.934h-13.754l6.877-11.934zM36.34 0.463l-8.727 15.112h17.454l-8.727-15.112z"></path>
<path d="M0.418 0.463l7.317 13.366 7.996-13.031-15.313-0.336z"></path>
<path d="M17.507 1.634l7.675 13.292h-15.365l7.69-13.292z"></path>
<path d="M27.159 17.827l7.683 13.657h-15.731l7.809-13.657h0.239z"></path>
<path d="M28.822 16.999l7.519 13.448 7.623-13.448h-15.141z"></path>
</symbol>
    </defs>
</svg>