<svg width="49" height="57" fill="none" xmlns="http://www.w3.org/2000/svg"><path d="M1.318 16.156a.42.42 0 100-.84.42.42 0 000 .84zm9.302-.069a.42.42 0 100-.84.42.42 0 000 .84zm-4.653 2.74a.42.42 0 100-.84.42.42 0 000 .84zm-4.649 2.75a.42.42 0 100-.84.42.42 0 000 .84zm23.252-7.87a.87.87 0 100-1.74.87.87 0 000 1.74zm-4.653 2.75a.87.87 0 100-1.74.87.87 0 000 1.74zm-4.649 2.75a.87.87 0 100-1.74.87.87 0 000 1.74zm-4.648 2.75a.87.87 0 100-1.74.87.87 0 000 1.74zm-4.652 2.74a.87.87 0 100-1.74.87.87 0 000 1.74zm-4.65 2.3a.42.42 0 100-.84.42.42 0 000 .84zm23.25-7a1.74 1.74 0 100-3.48 1.74 1.74 0 000 3.48zm-4.648 2.75a1.74 1.74 0 100-3.48 1.74 1.74 0 000 3.48zm-4.653 2.75a1.74 1.74 0 100-3.48 1.74 1.74 0 000 3.48zm-4.648 2.74a1.74 1.74 0 100-3.48 1.74 1.74 0 000 3.48zm-4.651 1.879a.87.87 0 100-1.74.87.87 0 000 1.74zm-4.65 2.3a.42.42 0 100-.84.42.42 0 000 .84zm23.25-7a1.74 1.74 0 100-3.48 1.74 1.74 0 000 3.48zm-4.648 2.75a1.74 1.74 0 100-3.48 1.74 1.74 0 000 3.48zm-4.653 2.741a1.74 1.74 0 100-3.48 1.74 1.74 0 000 3.48zm-4.648 2.75a1.74 1.74 0 100-3.48 1.74 1.74 0 000 3.48zm-4.651 1.879a.87.87 0 100-1.74.87.87 0 000 1.74zm-4.65 2.301a.42.42 0 100-.84.42.42 0 000 .84zm23.252-7.87a.87.87 0 100-1.74.87.87 0 000 1.74zm-4.653 2.74a.87.87 0 100-1.74.87.87 0 000 1.74zm-4.649 2.75a.87.87 0 100-1.74.87.87 0 000 1.74zm-4.648 2.75a.87.87 0 100-1.74.87.87 0 000 1.74zm-4.653 2.3a.42.42 0 100-.84.42.42 0 000 .84zm-4.649 2.75a.42.42 0 100-.84.42.42 0 000 .84zm23.25-8.331a.42.42 0 100-.84.42.42 0 000 .84zm-4.648 2.75a.42.42 0 100-.84.42.42 0 000 .84zm-4.652 2.75a.42.42 0 100-.84.42.42 0 000 .84zm-4.648 2.75a.42.42 0 100-.84.42.42 0 000 .84zm-4.653 2.75a.42.42 0 100-.84.42.42 0 000 .84zm18.601-5.579a.42.42 0 100-.84.42.42 0 000 .84zm-4.648 2.75a.42.42 0 100-.84.42.42 0 000 .84zm-4.652 2.75a.42.42 0 100-.84.42.42 0 000 .84zm-4.648 2.75a.42.42 0 100-.84.42.42 0 000 .84zm13.948-2.83a.42.42 0 100-.84.42.42 0 000 .84zm-4.648 2.75a.42.42 0 100-.84.42.42 0 000 .84zm-4.652 2.75a.42.42 0 100-.84.42.42 0 000 .84zm9.3-.081a.42.42 0 100-.84.42.42 0 000 .84zm-4.648 2.75a.42.42 0 100-.84.42.42 0 000 .84zm4.648 2.671a.42.42 0 100-.84.42.42 0 000 .84zM47.76 16.156a.42.42 0 100-.84.42.42 0 000 .84zm-9.313-.069a.42.42 0 100-.84.42.42 0 000 .84zm4.661 2.74a.42.42 0 100-.84.42.42 0 000 .84zm4.652 2.75a.42.42 0 100-.84.42.42 0 000 .84z" fill="#fff"/><path d="M24.499 13.707a.87.87 0 100-1.74.87.87 0 000 1.74zm4.648 2.75a.87.87 0 100-1.74.87.87 0 000 1.74zm4.653 2.75a.87.87 0 100-1.74.87.87 0 000 1.74zm4.648 2.75a.87.87 0 100-1.74.87.87 0 000 1.74zm4.66 2.74a.87.87 0 100-1.74.87.87 0 000 1.74zm4.652 2.3a.42.42 0 100-.84.42.42 0 000 .84zm-23.262-7a1.74 1.74 0 100-3.48 1.74 1.74 0 000 3.48zm4.652 2.75a1.74 1.74 0 100-3.48 1.74 1.74 0 000 3.48zm4.649 2.75a1.74 1.74 0 100-3.48 1.74 1.74 0 000 3.48zm4.648 2.74a1.74 1.74 0 100-3.48 1.74 1.74 0 000 3.48zm4.661 1.879a.87.87 0 100-1.74.87.87 0 000 1.74zm4.652 2.3a.42.42 0 100-.84.42.42 0 000 .84zm-23.262-7a1.74 1.74 0 100-3.48 1.74 1.74 0 000 3.48zm4.652 2.75a1.74 1.74 0 100-3.48 1.74 1.74 0 000 3.48zm4.649 2.741a1.74 1.74 0 100-3.48 1.74 1.74 0 000 3.48zm4.648 2.75a1.74 1.74 0 100-3.48 1.74 1.74 0 000 3.48zm4.661 1.879a.87.87 0 100-1.74.87.87 0 000 1.74zm4.652 2.301a.42.42 0 100-.84.42.42 0 000 .84zm-23.261-7.87a.87.87 0 100-1.74.87.87 0 000 1.74zm4.648 2.74a.87.87 0 100-1.74.87.87 0 000 1.74zm4.653 2.75a.87.87 0 100-1.74.87.87 0 000 1.74zm4.648 2.75a.87.87 0 100-1.74.87.87 0 000 1.74zm4.66 2.3a.42.42 0 100-.84.42.42 0 000 .84zm4.652 2.75a.42.42 0 100-.84.42.42 0 000 .84zm-23.262-8.331a.42.42 0 100-.84.42.42 0 000 .84zm4.652 2.75a.42.42 0 100-.84.42.42 0 000 .84zm4.649 2.75a.42.42 0 100-.84.42.42 0 000 .84zm4.648 2.75a.42.42 0 100-.84.42.42 0 000 .84zm4.661 2.75a.42.42 0 100-.84.42.42 0 000 .84zm-18.61-5.579a.42.42 0 100-.84.42.42 0 000 .84zm4.652 2.75a.42.42 0 100-.84.42.42 0 000 .84zm4.649 2.75a.42.42 0 100-.84.42.42 0 000 .84zm4.648 2.75a.42.42 0 100-.84.42.42 0 000 .84zm-13.949-2.83a.42.42 0 100-.84.42.42 0 000 .84zm4.652 2.75a.42.42 0 100-.84.42.42 0 000 .84zm4.649 2.75a.42.42 0 100-.84.42.42 0 000 .84zm-9.301-.081a.42.42 0 100-.84.42.42 0 000 .84zm4.652 2.75a.42.42 0 100-.84.42.42 0 000 .84zm-4.652 2.671a.42.42 0 100-.84.42.42 0 000 .84zm-.48-55.221a.42.42 0 100-.84.42.42 0 000 .84zm-4.648 2.75a.42.42 0 100-.84.42.42 0 000 .84zm-4.653 2.75a.42.42 0 100-.84.42.42 0 000 .84zm-4.649 2.75a.42.42 0 100-.84.42.42 0 000 .84zm-4.648 2.75a.42.42 0 100-.84.42.42 0 000 .84zm18.598-5.579a.42.42 0 100-.84.42.42 0 000 .84zm-4.648 2.75a.42.42 0 100-.84.42.42 0 000 .84zm-4.653 2.75a.42.42 0 100-.84.42.42 0 000 .84z" fill="#fff"/><path d="M23.947 1.386a.42.42 0 100-.84.42.42 0 000 .84zm4.653 2.75a.42.42 0 100-.84.42.42 0 000 .84zm4.648 2.75a.42.42 0 100-.84.42.42 0 000 .84zm4.652 2.75a.42.42 0 100-.84.42.42 0 000 .84zm4.657 2.75a.42.42 0 100-.84.42.42 0 000 .84zm-18.61-5.579a.42.42 0 100-.84.42.42 0 000 .84zm4.653 2.75a.42.42 0 100-.84.42.42 0 000 .84zm4.648 2.75a.42.42 0 100-.84.42.42 0 000 .84z" fill="#fff"/></svg>