<svg width="78" height="73" fill="none" xmlns="http://www.w3.org/2000/svg"><g filter="url(#filter0_d_776_1411)" fill="#fff"><path d="M14.847 23.601a3.596 3.596 0 011.699.373l5.05 2.92a4.026 4.026 0 011.7 2.934v5.818a4.051 4.051 0 01-1.7 2.933l-5.05 2.921a3.608 3.608 0 01-1.7.361 3.492 3.492 0 01-1.687-.36l-5.062-2.922a4.05 4.05 0 01-1.7-2.933v-5.819a4.027 4.027 0 011.7-2.932l5.062-2.921a3.492 3.492 0 011.688-.373zm0-2.327a5.819 5.819 0 00-2.851.686l-5.063 2.956a6.342 6.342 0 00-2.863 4.947v5.818a6.343 6.343 0 002.863 4.946l5.063 2.921a5.819 5.819 0 002.85.675 5.877 5.877 0 002.864-.675l5.05-2.92a6.343 6.343 0 002.863-4.947v-5.818a6.342 6.342 0 00-2.863-4.947l-5.05-2.92a5.889 5.889 0 00-2.863-.687v-.035zm23.73 2.328a3.55 3.55 0 011.688.372l5.062 2.921a4.05 4.05 0 011.688 2.933v5.819a4.074 4.074 0 01-1.688 2.932L40.265 41.5a3.56 3.56 0 01-1.688.361 3.607 3.607 0 01-1.699-.36l-5.062-2.922a4.073 4.073 0 01-1.688-2.932v-5.82a4.05 4.05 0 011.688-2.932l5.062-2.921a3.596 3.596 0 011.7-.372zm0-2.328a5.89 5.89 0 00-2.862.687l-5.063 2.956a6.331 6.331 0 00-2.851 4.946v5.819a6.332 6.332 0 002.851 4.946l5.063 2.92a5.877 5.877 0 002.862.676 5.819 5.819 0 002.852-.675l5.062-2.921a6.33 6.33 0 002.851-4.946v-5.82a6.33 6.33 0 00-2.851-4.945l-5.062-2.921a5.82 5.82 0 00-2.852-.687v-.035zm23.715 2.327a3.596 3.596 0 011.7.373l5.05 2.92a4.026 4.026 0 011.7 2.934v5.818a4.05 4.05 0 01-1.7 2.933l-5.05 2.921a3.608 3.608 0 01-1.7.361 3.49 3.49 0 01-1.687-.36l-5.063-2.922a4.05 4.05 0 01-1.699-2.933v-5.819a4.027 4.027 0 011.7-2.932l5.062-2.921a3.491 3.491 0 011.687-.373zm0-2.327a5.819 5.819 0 00-2.851.686l-5.063 2.956a6.343 6.343 0 00-2.862 4.947v5.818a6.343 6.343 0 002.863 4.946l5.062 2.921a5.819 5.819 0 002.851.675 5.876 5.876 0 002.863-.675l5.05-2.92a6.344 6.344 0 002.864-4.947v-5.818a6.343 6.343 0 00-2.863-4.947l-5.051-2.92a5.888 5.888 0 00-2.863-.687v-.035zM26.706 44.328c.593-.02 1.18.109 1.711.373l5.063 2.92a4.05 4.05 0 011.687 2.934v5.819a4.097 4.097 0 01-1.688 2.932l-5.062 2.945a4.155 4.155 0 01-3.387 0l-5.062-2.922a4.096 4.096 0 01-1.687-2.932v-5.82a4.051 4.051 0 011.687-2.932l5.063-2.92a3.55 3.55 0 011.687-.373l-.012-.024zm.012-2.304a5.82 5.82 0 00-2.851.675l-5.063 2.921a6.355 6.355 0 00-2.85 4.958v5.819a6.344 6.344 0 002.85 4.946l5.063 2.92a5.82 5.82 0 002.851.676 5.877 5.877 0 002.863-.675l5.062-2.921a6.343 6.343 0 002.852-4.946v-5.82a6.355 6.355 0 00-2.852-4.957l-5.062-2.944A5.877 5.877 0 0026.718 42v.023zm23.719 2.304a3.491 3.491 0 011.687.373l5.063 2.92a4.027 4.027 0 011.699 2.933v5.82a4.072 4.072 0 01-1.7 2.932l-5.062 2.921a3.665 3.665 0 01-1.687.36 3.757 3.757 0 01-1.7-.36l-5.05-2.921a4.073 4.073 0 01-1.7-2.933v-5.819a4.027 4.027 0 011.7-2.932l5.05-2.921a3.595 3.595 0 011.7-.373zm0-2.327a5.877 5.877 0 00-2.863.675l-5.05 2.92a6.366 6.366 0 00-2.864 4.959v5.818a6.354 6.354 0 002.863 4.946l5.05 2.921a5.876 5.876 0 002.864.675 5.82 5.82 0 002.851-.675l5.062-2.92a6.355 6.355 0 002.863-4.947v-5.819a6.367 6.367 0 00-2.863-4.957l-5.062-2.921A5.82 5.82 0 0050.437 42zM26.706 2.875a3.573 3.573 0 011.7.372l5.062 2.921a4.05 4.05 0 011.687 2.933v5.819a4.073 4.073 0 01-1.687 2.932l-5.051 2.945a4.155 4.155 0 01-3.387 0l-5.074-2.863a4.072 4.072 0 01-1.687-2.933V9.182a4.05 4.05 0 011.687-2.932l5.063-2.921a3.55 3.55 0 011.687-.373v-.081zm0-2.246a5.818 5.818 0 00-2.85.686l-5.063 2.921a6.33 6.33 0 00-2.852 4.946v5.82a6.33 6.33 0 002.852 4.945l5.062 2.921a5.819 5.819 0 002.851.675 5.878 5.878 0 002.863-.675l5.063-2.92A6.331 6.331 0 0037.482 15V9.182a6.331 6.331 0 00-2.85-4.946L29.58 1.234a5.89 5.89 0 00-2.863-.687l-.012.082zm23.731 2.246a3.49 3.49 0 011.687.372l5.063 2.921a4.027 4.027 0 011.699 2.933v5.819a4.05 4.05 0 01-1.7 2.932l-5.062 2.922a3.491 3.491 0 01-1.687.36 3.608 3.608 0 01-1.7-.36l-5.05-2.84a4.05 4.05 0 01-1.7-2.933V9.182a4.027 4.027 0 011.7-2.932l5.05-2.921a3.597 3.597 0 011.7-.373v-.081zm0-2.246a5.888 5.888 0 00-2.863.686l-5.05 2.921a6.344 6.344 0 00-2.864 4.946v5.82a6.342 6.342 0 002.863 4.945l5.05 2.921a5.875 5.875 0 002.864.675 5.818 5.818 0 002.851-.675l5.062-2.92A6.345 6.345 0 0061.213 15V9.182a6.342 6.342 0 00-2.863-4.946l-5.062-2.92a5.819 5.819 0 00-2.851-.687z"/></g><defs><filter id="filter0_d_776_1411" x=".07" y=".546" width="77" height="72.394" filterUnits="userSpaceOnUse" color-interpolation-filters="sRGB"><feFlood flood-opacity="0" result="BackgroundImageFix"/><feColorMatrix in="SourceAlpha" values="0 0 0 0 0 0 0 0 0 0 0 0 0 0 0 0 0 0 127 0" result="hardAlpha"/><feOffset dy="4"/><feGaussianBlur stdDeviation="2"/><feComposite in2="hardAlpha" operator="out"/><feColorMatrix values="0 0 0 0 0 0 0 0 0 0 0 0 0 0 0 0 0 0 0.25 0"/><feBlend in2="BackgroundImageFix" result="effect1_dropShadow_776_1411"/><feBlend in="SourceGraphic" in2="effect1_dropShadow_776_1411" result="shape"/></filter></defs></svg>