<svg width="130" height="129" fill="none" xmlns="http://www.w3.org/2000/svg"><g opacity=".1" stroke="#fff" stroke-miterlimit="10"><path opacity=".1" d="M128.613 124.667v2.999h-3"/><path opacity=".1" d="M119.841 127.667H7.371" stroke-dasharray="5.77 5.77"/><path opacity=".1" d="M4.492 127.666h-3v-2.999"/><path opacity=".1" d="M1.492 118.896V6.426" stroke-dasharray="5.77 5.77"/><path opacity=".1" d="M1.492 3.546v-3h3"/><path opacity=".1" d="M10.262.546h112.47" stroke-dasharray="5.77 5.77"/><path opacity=".1" d="M125.613.546h3v3"/><path opacity=".1" d="M128.613 9.306v112.48" stroke-dasharray="5.77 5.77"/></g><path d="M60.184 64.136a4.94 4.94 0 109.88 0 4.94 4.94 0 00-9.88 0zm4.928 15.44a4.94 4.94 0 100 9.88 4.94 4.94 0 000-9.88zm15.16-20.38a4.939 4.939 0 100 9.878 4.939 4.939 0 000-9.878zm-15.158-10.77a4.94 4.94 0 10.02-9.88 4.94 4.94 0 00-.02 9.88zm-10.32 15.14a4.94 4.94 0 10-9.88 0 4.94 4.94 0 009.88 0z" fill="#fff"/><path d="M76.354 70.867a9.49 9.49 0 010-13.38 4.94 4.94 0 10-7 0 9.46 9.46 0 010 13.44 4.94 4.94 0 107 0v-.06zm-14.221 2.879a5 5 0 00-1.42-3.47 9.49 9.49 0 010-13.38 4.939 4.939 0 10-7 0 9.46 9.46 0 010 13.43 4.94 4.94 0 108.46 3.47l-.04-.05z" fill="#fff"/></svg>