<svg width="130" height="129" viewBox="0 0 130 129" fill="none" xmlns="http://www.w3.org/2000/svg">
<g opacity="0.1">
<path opacity="0.1" d="M128.613 124.667V127.666H125.613" stroke="white" stroke-miterlimit="10"/>
<path opacity="0.1" d="M119.841 127.667H7.37109" stroke="white" stroke-miterlimit="10" stroke-dasharray="5.77 5.77"/>
<path opacity="0.1" d="M4.49219 127.666H1.49219V124.667" stroke="white" stroke-miterlimit="10"/>
<path opacity="0.1" d="M1.49219 118.896V6.42627" stroke="white" stroke-miterlimit="10" stroke-dasharray="5.77 5.77"/>
<path opacity="0.1" d="M1.49219 3.54639V0.546387H4.49219" stroke="white" stroke-miterlimit="10"/>
<path opacity="0.1" d="M10.2617 0.546387H122.732" stroke="white" stroke-miterlimit="10" stroke-dasharray="5.77 5.77"/>
<path opacity="0.1" d="M125.613 0.546387H128.613V3.54639" stroke="white" stroke-miterlimit="10"/>
<path opacity="0.1" d="M128.613 9.3064V121.786" stroke="white" stroke-miterlimit="10" stroke-dasharray="5.77 5.77"/>
</g>
<path d="M60.1836 64.1363C60.1836 65.1138 60.4736 66.0693 61.0169 66.8819C61.5601 67.6945 62.3323 68.3276 63.2355 68.7012C64.1388 69.0748 65.1325 69.1721 66.0911 68.9807C67.0496 68.7892 67.9298 68.3178 68.6203 67.6259C69.3108 66.934 69.7805 66.0529 69.9699 65.0939C70.1594 64.135 70.0602 63.1414 69.6847 62.2389C69.3093 61.3364 68.6746 60.5656 67.8609 60.024C67.0472 59.4824 66.0911 59.1944 65.1136 59.1963C63.8052 59.199 62.5513 59.7206 61.627 60.6468C60.7027 61.5729 60.1836 62.8279 60.1836 64.1363Z" fill="white"/>
<path d="M65.1118 79.5762C64.1348 79.5762 63.1797 79.8659 62.3673 80.4087C61.5549 80.9516 60.9218 81.7231 60.5479 82.6257C60.174 83.5284 60.0761 84.5217 60.2668 85.48C60.4574 86.4382 60.9279 87.3184 61.6187 88.0093C62.3096 88.7002 63.1898 89.1707 64.1481 89.3613C65.1064 89.5519 66.0996 89.4541 67.0023 89.0802C67.905 88.7063 68.6765 88.0731 69.2193 87.2607C69.7621 86.4483 70.0518 85.4932 70.0518 84.5162C70.0518 83.206 69.5314 81.9495 68.6049 81.0231C67.6785 80.0967 66.422 79.5762 65.1118 79.5762Z" fill="white"/>
<path d="M80.2721 59.1963C79.295 59.1963 78.3399 59.486 77.5276 60.0289C76.7152 60.5717 76.082 61.3432 75.7081 62.2459C75.3342 63.1485 75.2364 64.1418 75.427 65.1001C75.6176 66.0583 76.0881 66.9386 76.779 67.6294C77.4698 68.3203 78.3501 68.7908 79.3083 68.9814C80.2666 69.172 81.2599 69.0742 82.1625 68.7003C83.0652 68.3264 83.8367 67.6932 84.3795 66.8808C84.9223 66.0685 85.2121 65.1134 85.2121 64.1363C85.2121 62.8262 84.6916 61.5696 83.7652 60.6432C82.8387 59.7168 81.5822 59.1963 80.2721 59.1963Z" fill="white"/>
<path d="M65.1136 48.4264C66.0911 48.4284 67.0472 48.1403 67.8609 47.5987C68.6746 47.0571 69.3093 46.2863 69.6847 45.3838C70.0602 44.4813 70.1594 43.4877 69.9699 42.5288C69.7805 41.5699 69.3108 40.6887 68.6203 39.9968C67.9298 39.305 67.0496 38.8335 66.0911 38.6421C65.1325 38.4506 64.1388 38.5479 63.2355 38.9215C62.3323 39.2951 61.5601 39.9282 61.0169 40.7408C60.4736 41.5534 60.1836 42.5089 60.1836 43.4864C60.1836 44.7948 60.7027 46.0498 61.627 46.976C62.5513 47.9021 63.8052 48.4237 65.1136 48.4264Z" fill="white"/>
<path d="M54.794 63.5665C54.794 62.5894 54.5043 61.6343 53.9615 60.8219C53.4187 60.0096 52.6472 59.3764 51.7445 59.0025C50.8418 58.6286 49.8486 58.5308 48.8903 58.7214C47.932 58.912 47.0518 59.3825 46.3609 60.0734C45.6701 60.7642 45.1996 61.6444 45.009 62.6027C44.8184 63.561 44.9162 64.5543 45.2901 65.4569C45.664 66.3596 46.2972 67.1311 47.1095 67.6739C47.9219 68.2167 48.877 68.5065 49.854 68.5065C51.1642 68.5065 52.4207 67.986 53.3472 67.0596C54.2736 66.1331 54.794 64.8766 54.794 63.5665Z" fill="white"/>
<path d="M76.354 70.8665C74.5868 69.0885 73.5949 66.6834 73.5949 64.1765C73.5949 61.6696 74.5868 59.2645 76.354 57.4865C77.043 56.7948 77.5115 55.9146 77.7006 54.9569C77.8896 53.9991 77.7906 53.0069 77.4161 52.1053C77.0417 51.2038 76.4085 50.4334 75.5965 49.8915C74.7846 49.3495 73.8303 49.0603 72.854 49.0603C71.8778 49.0603 70.9235 49.3495 70.1116 49.8915C69.2996 50.4334 68.6664 51.2038 68.292 52.1053C67.9175 53.0069 67.8185 53.9991 68.0075 54.9569C68.1966 55.9146 68.6651 56.7948 69.354 57.4865C70.2417 58.366 70.9464 59.4128 71.4273 60.5662C71.9081 61.7196 72.1557 62.9569 72.1557 64.2065C72.1557 65.4561 71.9081 66.6934 71.4273 67.8468C70.9464 69.0002 70.2417 70.0469 69.354 70.9265C68.6651 71.6181 68.1966 72.4984 68.0075 73.4561C67.8185 74.4139 67.9175 75.4061 68.292 76.3077C68.6664 77.2092 69.2996 77.9796 70.1116 78.5215C70.9235 79.0635 71.8778 79.3527 72.854 79.3527C73.8303 79.3527 74.7846 79.0635 75.5965 78.5215C76.4085 77.9796 77.0417 77.2092 77.4161 76.3077C77.7906 75.4061 77.8896 74.4139 77.7006 73.4561C77.5115 72.4984 77.043 71.6181 76.354 70.9265V70.8665Z" fill="white"/>
<path d="M62.1334 73.7464C62.1281 72.4494 61.6189 71.2051 60.7134 70.2764C58.9462 68.4984 57.9543 66.0933 57.9543 63.5864C57.9543 61.0795 58.9462 58.6745 60.7134 56.8964C61.4024 56.2048 61.8709 55.3245 62.0599 54.3668C62.249 53.4091 62.15 52.4168 61.7755 51.5153C61.4011 50.6137 60.7679 49.8434 59.9559 49.3014C59.144 48.7595 58.1896 48.4702 57.2134 48.4702C56.2372 48.4702 55.2829 48.7595 54.4709 49.3014C53.659 49.8434 53.0258 50.6137 52.6513 51.5153C52.2769 52.4168 52.1779 53.4091 52.3669 54.3668C52.556 55.3245 53.0245 56.2048 53.7134 56.8964C54.5996 57.7758 55.303 58.8219 55.783 59.9744C56.263 61.1269 56.5101 62.363 56.5101 63.6114C56.5101 64.8599 56.263 66.096 55.783 67.2485C55.303 68.401 54.5996 69.4471 53.7134 70.3264C53.1447 70.904 52.7268 71.6127 52.4967 72.39C52.2666 73.1672 52.2312 73.9891 52.3938 74.7833C52.5564 75.5774 52.9119 76.3193 53.429 76.9436C53.9461 77.5679 54.6088 78.0553 55.3588 78.3629C56.1088 78.6705 56.9229 78.7889 57.7294 78.7075C58.5359 78.6261 59.31 78.3475 59.9834 77.8962C60.6568 77.445 61.2088 76.835 61.5907 76.12C61.9727 75.405 62.1728 74.607 62.1734 73.7964L62.1334 73.7464Z" fill="white"/>
</svg>
