<svg width="42" height="48" viewBox="0 0 42 48" fill="none" xmlns="http://www.w3.org/2000/svg">
<path d="M20.8866 5.11639L28.6966 9.62639L32.6566 7.34639L20.8866 0.546387L1.22656 11.9064L5.16656 14.1864L20.8866 5.11639Z" fill="white"/>
<path d="M36.5989 9.62646L20.8889 18.6965L13.0789 14.1865L9.12891 16.4665L20.8889 23.2565L40.5589 11.9065L36.5989 9.62646Z" fill="white"/>
<path d="M4.3875 24.8864L0.4375 22.6064V36.1864L20.0975 47.5464V42.9864L4.3875 33.9064V24.8864Z" fill="white"/>
<path d="M0.4375 18.0463L16.1475 27.1163V36.1363L20.0975 38.4263V24.8363L0.4375 13.4863V18.0463Z" fill="white"/>
<path d="M33.4458 22.6064V18.0464L21.6758 24.8364V47.5464L25.6258 45.2664V27.1164L33.4458 22.6064Z" fill="white"/>
<path d="M37.3881 15.7663V33.9063L29.5781 38.4263V42.9863L41.3481 36.1863V13.4863L37.3881 15.7663Z" fill="white"/>
</svg>
