<svg width="78" height="73" viewBox="0 0 78 73" fill="none" xmlns="http://www.w3.org/2000/svg">
<g filter="url(#filter0_d_776_1411)">
<path d="M14.8468 23.6014C15.4351 23.5846 16.0186 23.7125 16.5459 23.9738L21.5967 26.8949C22.076 27.2308 22.4764 27.6672 22.7698 28.1737C23.0633 28.6802 23.2428 29.2446 23.2958 29.8275V35.6464C23.2412 36.229 23.0611 36.7928 22.7678 37.2991C22.4745 37.8053 22.0749 38.242 21.5967 38.5791L16.5459 41.5002C16.0174 41.757 15.4341 41.8809 14.8468 41.861C14.263 41.8838 13.6828 41.7598 13.1593 41.5002L8.09691 38.5791C7.61871 38.242 7.21921 37.8053 6.92591 37.2991C6.63251 36.7928 6.45241 36.229 6.39781 35.6464V29.8275C6.45091 29.2446 6.63031 28.6802 6.92381 28.1737C7.21721 27.6672 7.61761 27.2308 8.09691 26.8949L13.1593 23.9738C13.6817 23.7102 14.262 23.5822 14.8468 23.6014ZM14.8468 21.2739C13.8534 21.2555 12.8718 21.492 11.9956 21.9605L6.93321 24.9165C6.10221 25.4594 5.41041 26.1897 4.91311 27.0487C4.41591 27.9078 4.12721 28.8716 4.07031 29.8625V35.6813C4.12721 36.6723 4.41591 37.6361 4.91311 38.4951C5.41041 39.3541 6.10221 40.0845 6.93321 40.6274L11.9956 43.5484C12.8729 44.013 13.8544 44.2453 14.8468 44.2235C15.8429 44.2448 16.828 44.0125 17.7097 43.5484L22.7605 40.6274C23.5914 40.0845 24.2833 39.3541 24.7805 38.4951C25.2778 37.6361 25.5664 36.6723 25.6233 35.6813V29.8625C25.5664 28.8716 25.2778 27.9078 24.7805 27.0487C24.2833 26.1897 23.5914 25.4594 22.7605 24.9165L17.7097 21.9954C16.8289 21.5278 15.8438 21.2916 14.8468 21.3088V21.2739Z" fill="white"/>
<path d="M38.5774 23.6016C39.1619 23.5849 39.7416 23.7128 40.2648 23.974L45.3272 26.8951C45.8033 27.2334 46.2006 27.6706 46.4919 28.1768C46.7832 28.683 46.9615 29.2462 47.0147 29.8278V35.6466C46.96 36.2278 46.781 36.7905 46.4899 37.2965C46.1987 37.8025 45.8022 38.24 45.3272 38.5794L40.2648 41.5004C39.7404 41.7572 39.1609 41.8811 38.5774 41.8612C37.9901 41.8811 37.4068 41.7573 36.8783 41.5004L31.8159 38.5794C31.3409 38.24 30.9443 37.8025 30.6532 37.2965C30.3621 36.7905 30.1831 36.2278 30.1284 35.6466V29.8278C30.1816 29.2462 30.3599 28.683 30.6512 28.1768C30.9424 27.6706 31.3398 27.2334 31.8159 26.8951L36.8783 23.974C37.4056 23.7127 37.9891 23.5848 38.5774 23.6016ZM38.5774 21.2741C37.5803 21.2569 36.5953 21.4932 35.7145 21.9607L30.6521 24.9167C29.8227 25.4602 29.1326 26.1909 28.6373 27.05C28.1421 27.9091 27.8555 28.8726 27.8008 29.8627V35.6816C27.8555 36.6717 28.1421 37.6352 28.6373 38.4943C29.1326 39.3534 29.8227 40.0841 30.6521 40.6276L35.7145 43.5487C36.5961 44.0127 37.5813 44.245 38.5774 44.2237C39.5698 44.2456 40.5513 44.0132 41.4286 43.5487L46.491 40.6276C47.3204 40.0841 48.0106 39.3534 48.5058 38.4943C49.0011 37.6352 49.2876 36.6717 49.3422 35.6816V29.8627C49.2876 28.8726 49.0011 27.9091 48.5058 27.05C48.0106 26.1909 47.3204 25.4602 46.491 24.9167L41.4286 21.9956C40.5524 21.5271 39.5708 21.2907 38.5774 21.309V21.2741Z" fill="white"/>
<path d="M62.2921 23.6014C62.8804 23.5846 63.4639 23.7125 63.9912 23.9738L69.042 26.8949C69.5214 27.2308 69.9217 27.6672 70.2152 28.1737C70.5086 28.6802 70.6881 29.2446 70.7411 29.8275V35.6464C70.6866 36.229 70.5064 36.7928 70.2131 37.2991C69.9198 37.8053 69.5203 38.242 69.042 38.5791L63.9912 41.5002C63.4627 41.757 62.8794 41.8809 62.2921 41.861C61.7083 41.8838 61.1281 41.7598 60.6047 41.5002L55.5423 38.5791C55.064 38.242 54.6645 37.8053 54.3712 37.2991C54.0778 36.7928 53.8977 36.229 53.8432 35.6464V29.8275C53.8962 29.2446 54.0757 28.6802 54.3691 28.1737C54.6626 27.6672 55.0629 27.2308 55.5423 26.8949L60.6047 23.9738C61.1271 23.7102 61.7073 23.5822 62.2921 23.6014ZM62.2921 21.2739C61.2987 21.2555 60.3171 21.492 59.4409 21.9605L54.3785 24.9165C53.5476 25.4594 52.8557 26.1897 52.3584 27.0487C51.8612 27.9078 51.5725 28.8716 51.5156 29.8625V35.6813C51.5725 36.6723 51.8612 37.6361 52.3584 38.4951C52.8557 39.3541 53.5476 40.0845 54.3785 40.6274L59.4409 43.5484C60.3182 44.013 61.2997 44.2453 62.2921 44.2235C63.2882 44.2448 64.2734 44.0125 65.155 43.5484L70.2058 40.6274C71.0367 40.0845 71.7286 39.3541 72.2259 38.4951C72.7231 37.6361 73.0117 36.6723 73.0686 35.6813V29.8625C73.0117 28.8716 72.7231 27.9078 72.2259 27.0487C71.7286 26.1897 71.0367 25.4594 70.2058 24.9165L65.155 21.9954C64.2743 21.5278 63.2892 21.2916 62.2921 21.3088V21.2739Z" fill="white"/>
<path d="M26.7063 44.3284C27.2986 44.3087 27.8865 44.4367 28.4171 44.7008L33.4795 47.6219C33.9556 47.9602 34.3529 48.3974 34.6441 48.9036C34.9354 49.4098 35.1138 49.973 35.167 50.5546V56.3735C35.1108 56.9543 34.9312 57.5164 34.6402 58.0222C34.3491 58.528 33.9534 58.9657 33.4795 59.3061L28.4171 62.2505C27.8842 62.4883 27.3073 62.6112 26.7238 62.6112C26.1403 62.6112 25.5633 62.4883 25.0305 62.2505L19.9681 59.3294C19.4942 58.989 19.0984 58.5512 18.8074 58.0454C18.5164 57.5396 18.3368 56.9775 18.2806 56.3967V50.5779C18.3338 49.9963 18.5122 49.4331 18.8034 48.9269C19.0947 48.4207 19.492 47.9835 19.9681 47.6452L25.0305 44.7241C25.5537 44.4629 26.1334 44.3349 26.718 44.3517L26.7063 44.3284ZM26.718 42.0242C25.7255 42.0023 24.744 42.2347 23.8667 42.6992L18.8043 45.6202C17.9747 46.1662 17.2846 46.8992 16.7894 47.7601C16.2943 48.6211 16.0078 49.5862 15.9531 50.5779V56.3967C16.0087 57.3866 16.2956 58.3497 16.7907 59.2087C17.2859 60.0676 17.9756 60.7985 18.8043 61.3427L23.8667 64.2638C24.744 64.7283 25.7255 64.9607 26.718 64.9388C27.714 64.9601 28.6992 64.7278 29.5808 64.2638L34.6433 61.3427C35.472 60.7985 36.1617 60.0676 36.6568 59.2087C37.152 58.3497 37.4389 57.3866 37.4945 56.3967V50.5779C37.4398 49.5862 37.1533 48.6211 36.6582 47.7601C36.163 46.8992 35.4729 46.1662 34.6433 45.6202L29.5808 42.6759C28.6992 42.2119 27.714 41.9796 26.718 42.0009V42.0242Z" fill="white"/>
<path d="M50.4367 44.3282C51.0216 44.309 51.6018 44.4371 52.1242 44.7007L57.1866 47.6217C57.666 47.9577 58.0663 48.3941 58.3598 48.9006C58.6532 49.4071 58.8327 49.9715 58.8857 50.5545V56.3733C58.8297 56.9555 58.6489 57.5187 58.3557 58.0248C58.0625 58.5308 57.6638 58.9678 57.1866 59.306L52.1242 62.227C51.5984 62.4799 51.0199 62.6035 50.4367 62.5878C49.85 62.6019 49.2681 62.4783 48.7377 62.227L43.6869 59.306C43.2097 58.9678 42.811 58.5308 42.5178 58.0248C42.2246 57.5187 42.0438 56.9555 41.9878 56.3733V50.5545C42.0408 49.9715 42.2203 49.4071 42.5137 48.9006C42.8072 48.3941 43.2075 47.9577 43.6869 47.6217L48.7377 44.7007C49.265 44.4393 49.8484 44.3115 50.4367 44.3282ZM50.4367 42.0007C49.4407 41.9794 48.4555 42.2117 47.5739 42.6757L42.5231 45.5968C41.6919 46.1422 41.0001 46.8747 40.5029 47.7356C40.0058 48.5965 39.7172 49.5619 39.6602 50.5545V56.3733C39.718 57.364 40.0071 58.3274 40.5043 59.1863C41.0014 60.0452 41.6928 60.7757 42.5231 61.3193L47.5739 64.2403C48.4555 64.7044 49.4407 64.9367 50.4367 64.9154C51.4292 64.9372 52.4107 64.7049 53.288 64.2403L58.3504 61.3193C59.1807 60.7757 59.8721 60.0452 60.3693 59.1863C60.8664 58.3274 61.1555 57.364 61.2133 56.3733V50.5545C61.1563 49.5619 60.8677 48.5965 60.3706 47.7356C59.8734 46.8747 59.1816 46.1422 58.3504 45.5968L53.288 42.6757C52.4107 42.2112 51.4292 41.9788 50.4367 42.0007Z" fill="white"/>
<path d="M26.7063 2.87476C27.2947 2.85706 27.8784 2.98496 28.4054 3.24716L33.4678 6.16826C33.9439 6.50656 34.3412 6.94376 34.6325 7.44996C34.9237 7.95616 35.1021 8.51936 35.1553 9.10096V14.9198C35.1006 15.501 34.9216 16.0637 34.6304 16.5697C34.3393 17.0757 33.9428 17.5132 33.4678 17.8525L28.417 20.7969C27.8842 21.0347 27.3072 21.1576 26.7237 21.1576C26.1402 21.1576 25.5633 21.0347 25.0305 20.7969L19.9564 17.934C19.4814 17.5947 19.0849 17.1572 18.7938 16.6512C18.5026 16.1452 18.3236 15.5825 18.2689 15.0013V9.18236C18.3221 8.60076 18.5005 8.03766 18.7917 7.53146C19.083 7.02526 19.4803 6.58796 19.9564 6.24976L25.0188 3.32866C25.542 3.06746 26.1217 2.93946 26.7063 2.95626V2.87476ZM26.7063 0.628764C25.7128 0.610364 24.7313 0.846764 23.8551 1.31526L18.7926 4.23636C17.9632 4.77986 17.2731 5.51066 16.7779 6.36976C16.2826 7.22886 15.9961 8.19226 15.9414 9.18236V15.0013C15.9961 15.9914 16.2826 16.9549 16.7779 17.814C17.2731 18.6731 17.9632 19.4038 18.7926 19.9473L23.8551 22.8684C24.7323 23.3329 25.7139 23.5653 26.7063 23.5434C27.7024 23.5647 28.6875 23.3324 29.5692 22.8684L34.6316 19.9473C35.461 19.4038 36.1511 18.6731 36.6464 17.814C37.1416 16.9549 37.4281 15.9914 37.4828 15.0013V9.18236C37.4281 8.19226 37.1416 7.22886 36.6464 6.36976C36.1511 5.51066 35.461 4.77986 34.6316 4.23636L29.5808 1.23386C28.7 0.766363 27.715 0.530063 26.7179 0.547263L26.7063 0.628764Z" fill="white"/>
<path d="M50.4367 2.87477C51.0216 2.85547 51.6018 2.98358 52.1242 3.24718L57.1866 6.16817C57.666 6.50417 58.0663 6.94057 58.3598 7.44707C58.6532 7.95357 58.8327 8.51798 58.8857 9.10088V14.9198C58.8312 15.5023 58.651 16.0662 58.3577 16.5724C58.0644 17.0787 57.6649 17.5154 57.1866 17.8525L52.1242 20.7736C51.6008 21.0331 51.0206 21.1572 50.4367 21.1343C49.8495 21.1542 49.2662 21.0304 48.7377 20.7736L43.6869 17.934C43.2086 17.5969 42.8091 17.1602 42.5158 16.6539C42.2225 16.1476 42.0423 15.5838 41.9878 15.0012V9.18238C42.0408 8.59938 42.2203 8.03508 42.5137 7.52858C42.8072 7.02208 43.2075 6.58568 43.6869 6.24968L48.7377 3.32857C49.265 3.06727 49.8484 2.93948 50.4367 2.95618V2.87477ZM50.4367 0.628673C49.4397 0.611473 48.4546 0.847677 47.5739 1.31528L42.5231 4.23627C41.6922 4.77927 41.0003 5.50967 40.5031 6.36867C40.0058 7.22767 39.7171 8.19138 39.6602 9.18238V15.0012C39.7171 15.9922 40.0058 16.9559 40.5031 17.815C41.0003 18.674 41.6922 19.4043 42.5231 19.9473L47.5739 22.8683C48.4555 23.3324 49.4407 23.5647 50.4367 23.5433C51.4292 23.5652 52.4107 23.3329 53.288 22.8683L58.3504 19.9473C59.1813 19.4043 59.8732 18.674 60.3705 17.815C60.8677 16.9559 61.1564 15.9922 61.2133 15.0012V9.18238C61.1564 8.19138 60.8677 7.22767 60.3705 6.36867C59.8732 5.50967 59.1813 4.77927 58.3504 4.23627L53.288 1.31528C52.4118 0.846677 51.4302 0.610373 50.4367 0.628673Z" fill="white"/>
</g>
<defs>
<filter id="filter0_d_776_1411" x="0.0703125" y="0.546387" width="77" height="72.3938" filterUnits="userSpaceOnUse" color-interpolation-filters="sRGB">
<feFlood flood-opacity="0" result="BackgroundImageFix"/>
<feColorMatrix in="SourceAlpha" type="matrix" values="0 0 0 0 0 0 0 0 0 0 0 0 0 0 0 0 0 0 127 0" result="hardAlpha"/>
<feOffset dy="4"/>
<feGaussianBlur stdDeviation="2"/>
<feComposite in2="hardAlpha" operator="out"/>
<feColorMatrix type="matrix" values="0 0 0 0 0 0 0 0 0 0 0 0 0 0 0 0 0 0 0.25 0"/>
<feBlend mode="normal" in2="BackgroundImageFix" result="effect1_dropShadow_776_1411"/>
<feBlend mode="normal" in="SourceGraphic" in2="effect1_dropShadow_776_1411" result="shape"/>
</filter>
</defs>
</svg>
