<svg width="74" height="51" viewBox="0 0 74 51" fill="none" xmlns="http://www.w3.org/2000/svg">
<path d="M39.622 28.1332L28.4467 47.5262L17.2715 28.1332H39.622ZM42.6158 26.3999H14.2656L28.4467 50.9564L42.6158 26.3999Z" fill="white"/>
<path d="M59.0523 4.01289L70.2275 23.4059H47.877L59.0523 4.01289ZM59.0523 0.546387L44.8711 25.1028H73.2334L59.0523 0.546387Z" fill="white"/>
<path d="M0.679688 0.546387L12.5701 22.2666L25.5634 1.09179L0.679688 0.546387Z" fill="white"/>
<path d="M28.4495 2.44946L40.9217 24.0485H15.9531L28.4495 2.44946Z" fill="white"/>
<path d="M44.1329 28.7634L56.6172 50.9564H31.0547L43.745 28.7634H44.1329Z" fill="white"/>
<path d="M46.8359 27.418L59.0535 49.2715L71.4408 27.418H46.8359Z" fill="white"/>
</svg>
