<svg width="49" height="57" viewBox="0 0 49 57" fill="none" xmlns="http://www.w3.org/2000/svg">
<path d="M1.31844 16.1564C1.55034 16.1564 1.73844 15.9684 1.73844 15.7364C1.73844 15.5045 1.55034 15.3164 1.31844 15.3164C1.08644 15.3164 0.898438 15.5045 0.898438 15.7364C0.898438 15.9684 1.08644 16.1564 1.31844 16.1564Z" fill="white"/>
<path d="M10.6192 16.0866C10.8512 16.0866 11.0392 15.8986 11.0392 15.6666C11.0392 15.4346 10.8512 15.2466 10.6192 15.2466C10.3873 15.2466 10.1992 15.4346 10.1992 15.6666C10.1992 15.8986 10.3873 16.0866 10.6192 16.0866Z" fill="white"/>
<path d="M5.96687 18.8266C6.19887 18.8266 6.38688 18.6385 6.38688 18.4066C6.38688 18.1746 6.19887 17.9866 5.96687 17.9866C5.73497 17.9866 5.54688 18.1746 5.54688 18.4066C5.54688 18.6385 5.73497 18.8266 5.96687 18.8266Z" fill="white"/>
<path d="M1.31844 21.5766C1.55034 21.5766 1.73844 21.3885 1.73844 21.1566C1.73844 20.9246 1.55034 20.7366 1.31844 20.7366C1.08644 20.7366 0.898438 20.9246 0.898438 21.1566C0.898438 21.3885 1.08644 21.5766 1.31844 21.5766Z" fill="white"/>
<path d="M24.5692 13.7066C25.0497 13.7066 25.4392 13.317 25.4392 12.8366C25.4392 12.3561 25.0497 11.9666 24.5692 11.9666C24.0888 11.9666 23.6992 12.3561 23.6992 12.8366C23.6992 13.317 24.0888 13.7066 24.5692 13.7066Z" fill="white"/>
<path d="M19.9169 16.4566C20.3974 16.4566 20.7869 16.067 20.7869 15.5866C20.7869 15.1061 20.3974 14.7166 19.9169 14.7166C19.4365 14.7166 19.0469 15.1061 19.0469 15.5866C19.0469 16.067 19.4365 16.4566 19.9169 16.4566Z" fill="white"/>
<path d="M15.2684 19.2066C15.7489 19.2066 16.1384 18.817 16.1384 18.3366C16.1384 17.8561 15.7489 17.4666 15.2684 17.4666C14.7879 17.4666 14.3984 17.8561 14.3984 18.3366C14.3984 18.817 14.7879 19.2066 15.2684 19.2066Z" fill="white"/>
<path d="M10.62 21.9566C11.1005 21.9566 11.49 21.567 11.49 21.0866C11.49 20.6061 11.1005 20.2166 10.62 20.2166C10.1395 20.2166 9.75 20.6061 9.75 21.0866C9.75 21.567 10.1395 21.9566 10.62 21.9566Z" fill="white"/>
<path d="M5.96766 24.6965C6.44816 24.6965 6.83766 24.3069 6.83766 23.8265C6.83766 23.346 6.44816 22.9565 5.96766 22.9565C5.48716 22.9565 5.09766 23.346 5.09766 23.8265C5.09766 24.3069 5.48716 24.6965 5.96766 24.6965Z" fill="white"/>
<path d="M1.31844 26.9965C1.55034 26.9965 1.73844 26.8085 1.73844 26.5765C1.73844 26.3445 1.55034 26.1565 1.31844 26.1565C1.08644 26.1565 0.898438 26.3445 0.898438 26.5765C0.898438 26.8085 1.08644 26.9965 1.31844 26.9965Z" fill="white"/>
<path d="M24.5681 19.9966C25.529 19.9966 26.3081 19.2176 26.3081 18.2566C26.3081 17.2956 25.529 16.5166 24.5681 16.5166C23.6071 16.5166 22.8281 17.2956 22.8281 18.2566C22.8281 19.2176 23.6071 19.9966 24.5681 19.9966Z" fill="white"/>
<path d="M19.9197 22.7466C20.8806 22.7466 21.6597 21.9676 21.6597 21.0066C21.6597 20.0456 20.8806 19.2666 19.9197 19.2666C18.9587 19.2666 18.1797 20.0456 18.1797 21.0066C18.1797 21.9676 18.9587 22.7466 19.9197 22.7466Z" fill="white"/>
<path d="M15.2673 25.4966C16.2283 25.4966 17.0073 24.7176 17.0073 23.7566C17.0073 22.7956 16.2283 22.0166 15.2673 22.0166C14.3064 22.0166 13.5273 22.7956 13.5273 23.7566C13.5273 24.7176 14.3064 25.4966 15.2673 25.4966Z" fill="white"/>
<path d="M10.6189 28.2366C11.5798 28.2366 12.3589 27.4576 12.3589 26.4966C12.3589 25.5356 11.5798 24.7566 10.6189 24.7566C9.65791 24.7566 8.87891 25.5356 8.87891 26.4966C8.87891 27.4576 9.65791 28.2366 10.6189 28.2366Z" fill="white"/>
<path d="M5.96766 30.1165C6.44816 30.1165 6.83766 29.727 6.83766 29.2465C6.83766 28.766 6.44816 28.3765 5.96766 28.3765C5.48716 28.3765 5.09766 28.766 5.09766 29.2465C5.09766 29.727 5.48716 30.1165 5.96766 30.1165Z" fill="white"/>
<path d="M1.31844 32.4164C1.55034 32.4164 1.73844 32.2284 1.73844 31.9964C1.73844 31.7645 1.55034 31.5764 1.31844 31.5764C1.08644 31.5764 0.898438 31.7645 0.898438 31.9964C0.898438 32.2284 1.08644 32.4164 1.31844 32.4164Z" fill="white"/>
<path d="M24.5681 25.4165C25.529 25.4165 26.3081 24.6375 26.3081 23.6765C26.3081 22.7156 25.529 21.9365 24.5681 21.9365C23.6071 21.9365 22.8281 22.7156 22.8281 23.6765C22.8281 24.6375 23.6071 25.4165 24.5681 25.4165Z" fill="white"/>
<path d="M19.9197 28.1665C20.8806 28.1665 21.6597 27.3875 21.6597 26.4265C21.6597 25.4656 20.8806 24.6865 19.9197 24.6865C18.9587 24.6865 18.1797 25.4656 18.1797 26.4265C18.1797 27.3875 18.9587 28.1665 19.9197 28.1665Z" fill="white"/>
<path d="M15.2673 30.9065C16.2283 30.9065 17.0073 30.1275 17.0073 29.1665C17.0073 28.2056 16.2283 27.4265 15.2673 27.4265C14.3064 27.4265 13.5273 28.2056 13.5273 29.1665C13.5273 30.1275 14.3064 30.9065 15.2673 30.9065Z" fill="white"/>
<path d="M10.6189 33.6565C11.5798 33.6565 12.3589 32.8775 12.3589 31.9165C12.3589 30.9556 11.5798 30.1765 10.6189 30.1765C9.65791 30.1765 8.87891 30.9556 8.87891 31.9165C8.87891 32.8775 9.65791 33.6565 10.6189 33.6565Z" fill="white"/>
<path d="M5.96766 35.5364C6.44816 35.5364 6.83766 35.1469 6.83766 34.6664C6.83766 34.1859 6.44816 33.7964 5.96766 33.7964C5.48716 33.7964 5.09766 34.1859 5.09766 34.6664C5.09766 35.1469 5.48716 35.5364 5.96766 35.5364Z" fill="white"/>
<path d="M1.31844 37.8366C1.55034 37.8366 1.73844 37.6486 1.73844 37.4166C1.73844 37.1846 1.55034 36.9966 1.31844 36.9966C1.08644 36.9966 0.898438 37.1846 0.898438 37.4166C0.898438 37.6486 1.08644 37.8366 1.31844 37.8366Z" fill="white"/>
<path d="M24.5692 29.9666C25.0497 29.9666 25.4392 29.5771 25.4392 29.0966C25.4392 28.6161 25.0497 28.2266 24.5692 28.2266C24.0888 28.2266 23.6992 28.6161 23.6992 29.0966C23.6992 29.5771 24.0888 29.9666 24.5692 29.9666Z" fill="white"/>
<path d="M19.9169 32.7066C20.3974 32.7066 20.7869 32.317 20.7869 31.8366C20.7869 31.3561 20.3974 30.9666 19.9169 30.9666C19.4365 30.9666 19.0469 31.3561 19.0469 31.8366C19.0469 32.317 19.4365 32.7066 19.9169 32.7066Z" fill="white"/>
<path d="M15.2684 35.4566C15.7489 35.4566 16.1384 35.067 16.1384 34.5866C16.1384 34.1061 15.7489 33.7166 15.2684 33.7166C14.7879 33.7166 14.3984 34.1061 14.3984 34.5866C14.3984 35.067 14.7879 35.4566 15.2684 35.4566Z" fill="white"/>
<path d="M10.62 38.2066C11.1005 38.2066 11.49 37.817 11.49 37.3366C11.49 36.8561 11.1005 36.4666 10.62 36.4666C10.1395 36.4666 9.75 36.8561 9.75 37.3366C9.75 37.817 10.1395 38.2066 10.62 38.2066Z" fill="white"/>
<path d="M5.96687 40.5065C6.19887 40.5065 6.38688 40.3185 6.38688 40.0865C6.38688 39.8546 6.19887 39.6665 5.96687 39.6665C5.73497 39.6665 5.54688 39.8546 5.54688 40.0865C5.54688 40.3185 5.73497 40.5065 5.96687 40.5065Z" fill="white"/>
<path d="M1.31844 43.2565C1.55034 43.2565 1.73844 43.0685 1.73844 42.8365C1.73844 42.6046 1.55034 42.4165 1.31844 42.4165C1.08644 42.4165 0.898438 42.6046 0.898438 42.8365C0.898438 43.0685 1.08644 43.2565 1.31844 43.2565Z" fill="white"/>
<path d="M24.5684 34.9264C24.8003 34.9264 24.9884 34.7384 24.9884 34.5064C24.9884 34.2745 24.8003 34.0864 24.5684 34.0864C24.3364 34.0864 24.1484 34.2745 24.1484 34.5064C24.1484 34.7384 24.3364 34.9264 24.5684 34.9264Z" fill="white"/>
<path d="M19.92 37.6764C20.152 37.6764 20.34 37.4884 20.34 37.2564C20.34 37.0245 20.152 36.8364 19.92 36.8364C19.6881 36.8364 19.5 37.0245 19.5 37.2564C19.5 37.4884 19.6881 37.6764 19.92 37.6764Z" fill="white"/>
<path d="M15.2677 40.4264C15.4997 40.4264 15.6877 40.2384 15.6877 40.0064C15.6877 39.7745 15.4997 39.5864 15.2677 39.5864C15.0357 39.5864 14.8477 39.7745 14.8477 40.0064C14.8477 40.2384 15.0357 40.4264 15.2677 40.4264Z" fill="white"/>
<path d="M10.6192 43.1764C10.8512 43.1764 11.0392 42.9884 11.0392 42.7564C11.0392 42.5245 10.8512 42.3364 10.6192 42.3364C10.3873 42.3364 10.1992 42.5245 10.1992 42.7564C10.1992 42.9884 10.3873 43.1764 10.6192 43.1764Z" fill="white"/>
<path d="M5.96687 45.9264C6.19887 45.9264 6.38688 45.7384 6.38688 45.5064C6.38688 45.2745 6.19887 45.0864 5.96687 45.0864C5.73497 45.0864 5.54688 45.2745 5.54688 45.5064C5.54688 45.7384 5.73497 45.9264 5.96687 45.9264Z" fill="white"/>
<path d="M24.5684 40.3466C24.8003 40.3466 24.9884 40.1586 24.9884 39.9266C24.9884 39.6946 24.8003 39.5066 24.5684 39.5066C24.3364 39.5066 24.1484 39.6946 24.1484 39.9266C24.1484 40.1586 24.3364 40.3466 24.5684 40.3466Z" fill="white"/>
<path d="M19.92 43.0966C20.152 43.0966 20.34 42.9086 20.34 42.6766C20.34 42.4446 20.152 42.2566 19.92 42.2566C19.6881 42.2566 19.5 42.4446 19.5 42.6766C19.5 42.9086 19.6881 43.0966 19.92 43.0966Z" fill="white"/>
<path d="M15.2677 45.8466C15.4997 45.8466 15.6877 45.6586 15.6877 45.4266C15.6877 45.1946 15.4997 45.0066 15.2677 45.0066C15.0357 45.0066 14.8477 45.1946 14.8477 45.4266C14.8477 45.6586 15.0357 45.8466 15.2677 45.8466Z" fill="white"/>
<path d="M10.6192 48.5966C10.8512 48.5966 11.0392 48.4086 11.0392 48.1766C11.0392 47.9446 10.8512 47.7566 10.6192 47.7566C10.3873 47.7566 10.1992 47.9446 10.1992 48.1766C10.1992 48.4086 10.3873 48.5966 10.6192 48.5966Z" fill="white"/>
<path d="M24.5684 45.7665C24.8003 45.7665 24.9884 45.5785 24.9884 45.3465C24.9884 45.1146 24.8003 44.9265 24.5684 44.9265C24.3364 44.9265 24.1484 45.1146 24.1484 45.3465C24.1484 45.5785 24.3364 45.7665 24.5684 45.7665Z" fill="white"/>
<path d="M19.92 48.5165C20.152 48.5165 20.34 48.3285 20.34 48.0965C20.34 47.8646 20.152 47.6765 19.92 47.6765C19.6881 47.6765 19.5 47.8646 19.5 48.0965C19.5 48.3285 19.6881 48.5165 19.92 48.5165Z" fill="white"/>
<path d="M15.2677 51.2665C15.4997 51.2665 15.6877 51.0785 15.6877 50.8465C15.6877 50.6146 15.4997 50.4265 15.2677 50.4265C15.0357 50.4265 14.8477 50.6146 14.8477 50.8465C14.8477 51.0785 15.0357 51.2665 15.2677 51.2665Z" fill="white"/>
<path d="M24.5684 51.1864C24.8003 51.1864 24.9884 50.9984 24.9884 50.7664C24.9884 50.5345 24.8003 50.3464 24.5684 50.3464C24.3364 50.3464 24.1484 50.5345 24.1484 50.7664C24.1484 50.9984 24.3364 51.1864 24.5684 51.1864Z" fill="white"/>
<path d="M19.92 53.9364C20.152 53.9364 20.34 53.7484 20.34 53.5164C20.34 53.2845 20.152 53.0964 19.92 53.0964C19.6881 53.0964 19.5 53.2845 19.5 53.5164C19.5 53.7484 19.6881 53.9364 19.92 53.9364Z" fill="white"/>
<path d="M24.5684 56.6066C24.8003 56.6066 24.9884 56.4186 24.9884 56.1866C24.9884 55.9547 24.8003 55.7666 24.5684 55.7666C24.3364 55.7666 24.1484 55.9547 24.1484 56.1866C24.1484 56.4186 24.3364 56.6066 24.5684 56.6066Z" fill="white"/>
<path d="M47.7599 16.1564C47.9918 16.1564 48.1799 15.9684 48.1799 15.7364C48.1799 15.5045 47.9918 15.3164 47.7599 15.3164C47.5279 15.3164 47.3398 15.5045 47.3398 15.7364C47.3398 15.9684 47.5279 16.1564 47.7599 16.1564Z" fill="white"/>
<path d="M38.4473 16.0866C38.6793 16.0866 38.8673 15.8986 38.8673 15.6666C38.8673 15.4346 38.6793 15.2466 38.4473 15.2466C38.2154 15.2466 38.0273 15.4346 38.0273 15.6666C38.0273 15.8986 38.2154 16.0866 38.4473 16.0866Z" fill="white"/>
<path d="M43.1076 18.8266C43.3395 18.8266 43.5275 18.6385 43.5275 18.4066C43.5275 18.1746 43.3395 17.9866 43.1076 17.9866C42.8756 17.9866 42.6875 18.1746 42.6875 18.4066C42.6875 18.6385 42.8756 18.8266 43.1076 18.8266Z" fill="white"/>
<path d="M47.7599 21.5766C47.9918 21.5766 48.1799 21.3885 48.1799 21.1566C48.1799 20.9246 47.9918 20.7366 47.7599 20.7366C47.5279 20.7366 47.3398 20.9246 47.3398 21.1566C47.3398 21.3885 47.5279 21.5766 47.7599 21.5766Z" fill="white"/>
<path d="M24.4989 13.7066C24.9794 13.7066 25.3689 13.317 25.3689 12.8366C25.3689 12.3561 24.9794 11.9666 24.4989 11.9666C24.0184 11.9666 23.6289 12.3561 23.6289 12.8366C23.6289 13.317 24.0184 13.7066 24.4989 13.7066Z" fill="white"/>
<path d="M29.1474 16.4566C29.6278 16.4566 30.0173 16.067 30.0173 15.5866C30.0173 15.1061 29.6278 14.7166 29.1474 14.7166C28.6669 14.7166 28.2773 15.1061 28.2773 15.5866C28.2773 16.067 28.6669 16.4566 29.1474 16.4566Z" fill="white"/>
<path d="M33.7997 19.2066C34.2802 19.2066 34.6697 18.817 34.6697 18.3366C34.6697 17.8561 34.2802 17.4666 33.7997 17.4666C33.3192 17.4666 32.9297 17.8561 32.9297 18.3366C32.9297 18.817 33.3192 19.2066 33.7997 19.2066Z" fill="white"/>
<path d="M38.4481 21.9566C38.9286 21.9566 39.3181 21.567 39.3181 21.0866C39.3181 20.6061 38.9286 20.2166 38.4481 20.2166C37.9676 20.2166 37.5781 20.6061 37.5781 21.0866C37.5781 21.567 37.9676 21.9566 38.4481 21.9566Z" fill="white"/>
<path d="M43.1083 24.6965C43.5888 24.6965 43.9783 24.3069 43.9783 23.8265C43.9783 23.346 43.5888 22.9565 43.1083 22.9565C42.6278 22.9565 42.2383 23.346 42.2383 23.8265C42.2383 24.3069 42.6278 24.6965 43.1083 24.6965Z" fill="white"/>
<path d="M47.7599 26.9965C47.9918 26.9965 48.1799 26.8085 48.1799 26.5765C48.1799 26.3445 47.9918 26.1565 47.7599 26.1565C47.5279 26.1565 47.3398 26.3445 47.3398 26.5765C47.3398 26.8085 47.5279 26.9965 47.7599 26.9965Z" fill="white"/>
<path d="M24.4978 19.9966C25.4588 19.9966 26.2378 19.2176 26.2378 18.2566C26.2378 17.2956 25.4588 16.5166 24.4978 16.5166C23.5368 16.5166 22.7578 17.2956 22.7578 18.2566C22.7578 19.2176 23.5368 19.9966 24.4978 19.9966Z" fill="white"/>
<path d="M29.1502 22.7466C30.1112 22.7466 30.8902 21.9676 30.8902 21.0066C30.8902 20.0456 30.1112 19.2666 29.1502 19.2666C28.1892 19.2666 27.4102 20.0456 27.4102 21.0066C27.4102 21.9676 28.1892 22.7466 29.1502 22.7466Z" fill="white"/>
<path d="M33.7986 25.4966C34.7596 25.4966 35.5386 24.7176 35.5386 23.7566C35.5386 22.7956 34.7596 22.0166 33.7986 22.0166C32.8376 22.0166 32.0586 22.7956 32.0586 23.7566C32.0586 24.7176 32.8376 25.4966 33.7986 25.4966Z" fill="white"/>
<path d="M38.4469 28.2366C39.4079 28.2366 40.1869 27.4576 40.1869 26.4966C40.1869 25.5356 39.4079 24.7566 38.4469 24.7566C37.486 24.7566 36.707 25.5356 36.707 26.4966C36.707 27.4576 37.486 28.2366 38.4469 28.2366Z" fill="white"/>
<path d="M43.1083 30.1165C43.5888 30.1165 43.9783 29.727 43.9783 29.2465C43.9783 28.766 43.5888 28.3765 43.1083 28.3765C42.6278 28.3765 42.2383 28.766 42.2383 29.2465C42.2383 29.727 42.6278 30.1165 43.1083 30.1165Z" fill="white"/>
<path d="M47.7599 32.4164C47.9918 32.4164 48.1799 32.2284 48.1799 31.9964C48.1799 31.7645 47.9918 31.5764 47.7599 31.5764C47.5279 31.5764 47.3398 31.7645 47.3398 31.9964C47.3398 32.2284 47.5279 32.4164 47.7599 32.4164Z" fill="white"/>
<path d="M24.4978 25.4165C25.4588 25.4165 26.2378 24.6375 26.2378 23.6765C26.2378 22.7156 25.4588 21.9365 24.4978 21.9365C23.5368 21.9365 22.7578 22.7156 22.7578 23.6765C22.7578 24.6375 23.5368 25.4165 24.4978 25.4165Z" fill="white"/>
<path d="M29.1502 28.1665C30.1112 28.1665 30.8902 27.3875 30.8902 26.4265C30.8902 25.4656 30.1112 24.6865 29.1502 24.6865C28.1892 24.6865 27.4102 25.4656 27.4102 26.4265C27.4102 27.3875 28.1892 28.1665 29.1502 28.1665Z" fill="white"/>
<path d="M33.7986 30.9065C34.7596 30.9065 35.5386 30.1275 35.5386 29.1665C35.5386 28.2056 34.7596 27.4265 33.7986 27.4265C32.8376 27.4265 32.0586 28.2056 32.0586 29.1665C32.0586 30.1275 32.8376 30.9065 33.7986 30.9065Z" fill="white"/>
<path d="M38.4469 33.6565C39.4079 33.6565 40.1869 32.8775 40.1869 31.9165C40.1869 30.9556 39.4079 30.1765 38.4469 30.1765C37.486 30.1765 36.707 30.9556 36.707 31.9165C36.707 32.8775 37.486 33.6565 38.4469 33.6565Z" fill="white"/>
<path d="M43.1083 35.5364C43.5888 35.5364 43.9783 35.1469 43.9783 34.6664C43.9783 34.1859 43.5888 33.7964 43.1083 33.7964C42.6278 33.7964 42.2383 34.1859 42.2383 34.6664C42.2383 35.1469 42.6278 35.5364 43.1083 35.5364Z" fill="white"/>
<path d="M47.7599 37.8366C47.9918 37.8366 48.1799 37.6486 48.1799 37.4166C48.1799 37.1846 47.9918 36.9966 47.7599 36.9966C47.5279 36.9966 47.3398 37.1846 47.3398 37.4166C47.3398 37.6486 47.5279 37.8366 47.7599 37.8366Z" fill="white"/>
<path d="M24.4989 29.9666C24.9794 29.9666 25.3689 29.5771 25.3689 29.0966C25.3689 28.6161 24.9794 28.2266 24.4989 28.2266C24.0184 28.2266 23.6289 28.6161 23.6289 29.0966C23.6289 29.5771 24.0184 29.9666 24.4989 29.9666Z" fill="white"/>
<path d="M29.1474 32.7066C29.6278 32.7066 30.0173 32.317 30.0173 31.8366C30.0173 31.3561 29.6278 30.9666 29.1474 30.9666C28.6669 30.9666 28.2773 31.3561 28.2773 31.8366C28.2773 32.317 28.6669 32.7066 29.1474 32.7066Z" fill="white"/>
<path d="M33.7997 35.4566C34.2802 35.4566 34.6697 35.067 34.6697 34.5866C34.6697 34.1061 34.2802 33.7166 33.7997 33.7166C33.3192 33.7166 32.9297 34.1061 32.9297 34.5866C32.9297 35.067 33.3192 35.4566 33.7997 35.4566Z" fill="white"/>
<path d="M38.4481 38.2066C38.9286 38.2066 39.3181 37.817 39.3181 37.3366C39.3181 36.8561 38.9286 36.4666 38.4481 36.4666C37.9676 36.4666 37.5781 36.8561 37.5781 37.3366C37.5781 37.817 37.9676 38.2066 38.4481 38.2066Z" fill="white"/>
<path d="M43.1076 40.5065C43.3395 40.5065 43.5275 40.3185 43.5275 40.0865C43.5275 39.8546 43.3395 39.6665 43.1076 39.6665C42.8756 39.6665 42.6875 39.8546 42.6875 40.0865C42.6875 40.3185 42.8756 40.5065 43.1076 40.5065Z" fill="white"/>
<path d="M47.7599 43.2565C47.9918 43.2565 48.1799 43.0685 48.1799 42.8365C48.1799 42.6046 47.9918 42.4165 47.7599 42.4165C47.5279 42.4165 47.3398 42.6046 47.3398 42.8365C47.3398 43.0685 47.5279 43.2565 47.7599 43.2565Z" fill="white"/>
<path d="M24.4981 34.9264C24.73 34.9264 24.9181 34.7384 24.9181 34.5064C24.9181 34.2745 24.73 34.0864 24.4981 34.0864C24.2661 34.0864 24.0781 34.2745 24.0781 34.5064C24.0781 34.7384 24.2661 34.9264 24.4981 34.9264Z" fill="white"/>
<path d="M29.1505 37.6764C29.3825 37.6764 29.5705 37.4884 29.5705 37.2564C29.5705 37.0245 29.3825 36.8364 29.1505 36.8364C28.9185 36.8364 28.7305 37.0245 28.7305 37.2564C28.7305 37.4884 28.9185 37.6764 29.1505 37.6764Z" fill="white"/>
<path d="M33.7989 40.4264C34.0309 40.4264 34.2189 40.2384 34.2189 40.0064C34.2189 39.7745 34.0309 39.5864 33.7989 39.5864C33.5669 39.5864 33.3789 39.7745 33.3789 40.0064C33.3789 40.2384 33.5669 40.4264 33.7989 40.4264Z" fill="white"/>
<path d="M38.4473 43.1764C38.6793 43.1764 38.8673 42.9884 38.8673 42.7564C38.8673 42.5245 38.6793 42.3364 38.4473 42.3364C38.2154 42.3364 38.0273 42.5245 38.0273 42.7564C38.0273 42.9884 38.2154 43.1764 38.4473 43.1764Z" fill="white"/>
<path d="M43.1076 45.9264C43.3395 45.9264 43.5275 45.7384 43.5275 45.5064C43.5275 45.2745 43.3395 45.0864 43.1076 45.0864C42.8756 45.0864 42.6875 45.2745 42.6875 45.5064C42.6875 45.7384 42.8756 45.9264 43.1076 45.9264Z" fill="white"/>
<path d="M24.4981 40.3466C24.73 40.3466 24.9181 40.1586 24.9181 39.9266C24.9181 39.6946 24.73 39.5066 24.4981 39.5066C24.2661 39.5066 24.0781 39.6946 24.0781 39.9266C24.0781 40.1586 24.2661 40.3466 24.4981 40.3466Z" fill="white"/>
<path d="M29.1505 43.0966C29.3825 43.0966 29.5705 42.9086 29.5705 42.6766C29.5705 42.4446 29.3825 42.2566 29.1505 42.2566C28.9185 42.2566 28.7305 42.4446 28.7305 42.6766C28.7305 42.9086 28.9185 43.0966 29.1505 43.0966Z" fill="white"/>
<path d="M33.7989 45.8466C34.0309 45.8466 34.2189 45.6586 34.2189 45.4266C34.2189 45.1946 34.0309 45.0066 33.7989 45.0066C33.5669 45.0066 33.3789 45.1946 33.3789 45.4266C33.3789 45.6586 33.5669 45.8466 33.7989 45.8466Z" fill="white"/>
<path d="M38.4473 48.5966C38.6793 48.5966 38.8673 48.4086 38.8673 48.1766C38.8673 47.9446 38.6793 47.7566 38.4473 47.7566C38.2154 47.7566 38.0273 47.9446 38.0273 48.1766C38.0273 48.4086 38.2154 48.5966 38.4473 48.5966Z" fill="white"/>
<path d="M24.4981 45.7665C24.73 45.7665 24.9181 45.5785 24.9181 45.3465C24.9181 45.1146 24.73 44.9265 24.4981 44.9265C24.2661 44.9265 24.0781 45.1146 24.0781 45.3465C24.0781 45.5785 24.2661 45.7665 24.4981 45.7665Z" fill="white"/>
<path d="M29.1505 48.5165C29.3825 48.5165 29.5705 48.3285 29.5705 48.0965C29.5705 47.8646 29.3825 47.6765 29.1505 47.6765C28.9185 47.6765 28.7305 47.8646 28.7305 48.0965C28.7305 48.3285 28.9185 48.5165 29.1505 48.5165Z" fill="white"/>
<path d="M33.7989 51.2665C34.0309 51.2665 34.2189 51.0785 34.2189 50.8465C34.2189 50.6146 34.0309 50.4265 33.7989 50.4265C33.5669 50.4265 33.3789 50.6146 33.3789 50.8465C33.3789 51.0785 33.5669 51.2665 33.7989 51.2665Z" fill="white"/>
<path d="M24.4981 51.1864C24.73 51.1864 24.9181 50.9984 24.9181 50.7664C24.9181 50.5345 24.73 50.3464 24.4981 50.3464C24.2661 50.3464 24.0781 50.5345 24.0781 50.7664C24.0781 50.9984 24.2661 51.1864 24.4981 51.1864Z" fill="white"/>
<path d="M29.1505 53.9364C29.3825 53.9364 29.5705 53.7484 29.5705 53.5164C29.5705 53.2845 29.3825 53.0964 29.1505 53.0964C28.9185 53.0964 28.7305 53.2845 28.7305 53.5164C28.7305 53.7484 28.9185 53.9364 29.1505 53.9364Z" fill="white"/>
<path d="M24.4981 56.6066C24.73 56.6066 24.9181 56.4186 24.9181 56.1866C24.9181 55.9547 24.73 55.7666 24.4981 55.7666C24.2661 55.7666 24.0781 55.9547 24.0781 56.1866C24.0781 56.4186 24.2661 56.6066 24.4981 56.6066Z" fill="white"/>
<path d="M24.0177 1.38639C24.2496 1.38639 24.4377 1.19838 24.4377 0.966385C24.4377 0.734485 24.2496 0.546387 24.0177 0.546387C23.7857 0.546387 23.5977 0.734485 23.5977 0.966385C23.5977 1.19838 23.7857 1.38639 24.0177 1.38639Z" fill="white"/>
<path d="M19.3693 4.13639C19.6012 4.13639 19.7892 3.94838 19.7892 3.71638C19.7892 3.48448 19.6012 3.29639 19.3693 3.29639C19.1373 3.29639 18.9492 3.48448 18.9492 3.71638C18.9492 3.94838 19.1373 4.13639 19.3693 4.13639Z" fill="white"/>
<path d="M14.7169 6.88639C14.9489 6.88639 15.1369 6.69838 15.1369 6.46638C15.1369 6.23448 14.9489 6.04639 14.7169 6.04639C14.485 6.04639 14.2969 6.23448 14.2969 6.46638C14.2969 6.69838 14.485 6.88639 14.7169 6.88639Z" fill="white"/>
<path d="M10.0684 9.63639C10.3003 9.63639 10.4884 9.44838 10.4884 9.21638C10.4884 8.98448 10.3003 8.79639 10.0684 8.79639C9.83644 8.79639 9.64844 8.98448 9.64844 9.21638C9.64844 9.44838 9.83644 9.63639 10.0684 9.63639Z" fill="white"/>
<path d="M5.42 12.3864C5.6519 12.3864 5.84 12.1984 5.84 11.9664C5.84 11.7345 5.6519 11.5464 5.42 11.5464C5.188 11.5464 5 11.7345 5 11.9664C5 12.1984 5.188 12.3864 5.42 12.3864Z" fill="white"/>
<path d="M24.0177 6.80655C24.2496 6.80655 24.4377 6.61845 24.4377 6.38655C24.4377 6.15455 24.2496 5.96655 24.0177 5.96655C23.7857 5.96655 23.5977 6.15455 23.5977 6.38655C23.5977 6.61845 23.7857 6.80655 24.0177 6.80655Z" fill="white"/>
<path d="M19.3693 9.55655C19.6012 9.55655 19.7892 9.36845 19.7892 9.13655C19.7892 8.90455 19.6012 8.71655 19.3693 8.71655C19.1373 8.71655 18.9492 8.90455 18.9492 9.13655C18.9492 9.36845 19.1373 9.55655 19.3693 9.55655Z" fill="white"/>
<path d="M14.7169 12.3066C14.9489 12.3066 15.1369 12.1185 15.1369 11.8866C15.1369 11.6546 14.9489 11.4666 14.7169 11.4666C14.485 11.4666 14.2969 11.6546 14.2969 11.8866C14.2969 12.1185 14.485 12.3066 14.7169 12.3066Z" fill="white"/>
<path d="M23.9473 1.38639C24.1793 1.38639 24.3673 1.19838 24.3673 0.966385C24.3673 0.734485 24.1793 0.546387 23.9473 0.546387C23.7154 0.546387 23.5273 0.734485 23.5273 0.966385C23.5273 1.19838 23.7154 1.38639 23.9473 1.38639Z" fill="white"/>
<path d="M28.5997 4.13639C28.8317 4.13639 29.0197 3.94838 29.0197 3.71638C29.0197 3.48448 28.8317 3.29639 28.5997 3.29639C28.3678 3.29639 28.1797 3.48448 28.1797 3.71638C28.1797 3.94838 28.3678 4.13639 28.5997 4.13639Z" fill="white"/>
<path d="M33.2481 6.88639C33.48 6.88639 33.6681 6.69838 33.6681 6.46638C33.6681 6.23448 33.48 6.04639 33.2481 6.04639C33.0161 6.04639 32.8281 6.23448 32.8281 6.46638C32.8281 6.69838 33.0161 6.88639 33.2481 6.88639Z" fill="white"/>
<path d="M37.9005 9.63639C38.1325 9.63639 38.3205 9.44838 38.3205 9.21638C38.3205 8.98448 38.1325 8.79639 37.9005 8.79639C37.6685 8.79639 37.4805 8.98448 37.4805 9.21638C37.4805 9.44838 37.6685 9.63639 37.9005 9.63639Z" fill="white"/>
<path d="M42.5567 12.3864C42.7887 12.3864 42.9767 12.1984 42.9767 11.9664C42.9767 11.7345 42.7887 11.5464 42.5567 11.5464C42.3247 11.5464 42.1367 11.7345 42.1367 11.9664C42.1367 12.1984 42.3247 12.3864 42.5567 12.3864Z" fill="white"/>
<path d="M23.9473 6.80655C24.1793 6.80655 24.3673 6.61845 24.3673 6.38655C24.3673 6.15455 24.1793 5.96655 23.9473 5.96655C23.7154 5.96655 23.5273 6.15455 23.5273 6.38655C23.5273 6.61845 23.7154 6.80655 23.9473 6.80655Z" fill="white"/>
<path d="M28.5997 9.55655C28.8317 9.55655 29.0197 9.36845 29.0197 9.13655C29.0197 8.90455 28.8317 8.71655 28.5997 8.71655C28.3678 8.71655 28.1797 8.90455 28.1797 9.13655C28.1797 9.36845 28.3678 9.55655 28.5997 9.55655Z" fill="white"/>
<path d="M33.2481 12.3066C33.48 12.3066 33.6681 12.1185 33.6681 11.8866C33.6681 11.6546 33.48 11.4666 33.2481 11.4666C33.0161 11.4666 32.8281 11.6546 32.8281 11.8866C32.8281 12.1185 33.0161 12.3066 33.2481 12.3066Z" fill="white"/>
</svg>
